<svg width="2087" height="545" viewBox="0 0 2087 545" fill="none" xmlns="http://www.w3.org/2000/svg">
<path d="M519.385 388.271L519.385 317.333M248.374 388.271L248.374 239.646M494.748 388.271L494.748 287.655M223.737 388.271L223.737 269.015M470.111 388.271L470.111 287.655M199.099 388.271L199.099 287.655M445.473 388.271L445.473 269.015M174.462 388.271L174.462 239.646M420.836 388.271L420.836 287.655M149.825 388.271L149.825 287.655M396.199 388.271L396.199 239.646M125.187 388.271L125.187 287.655M371.561 388.271L371.561 269.015M100.55 388.271L100.55 269.015M346.924 388.271L346.924 287.655M75.9122 388.271L75.9122 287.655M322.286 388.271L322.286 287.655M51.2748 388.271L51.2748 317.333M297.649 388.271L297.649 269.015M26.6374 388.271L26.6374 317.333M273.012 388.271L273.012 269.015M2.00002 388.271L2.00003 287.655" stroke="url(#paint0_linear_425_2198)" stroke-width="2.06085"/>
<path d="M2085.62 388.275L2085.62 317.337M1814.61 388.275L1814.61 239.649M2060.98 388.275L2060.98 287.659M1789.97 388.275L1789.97 269.019M2036.35 388.275L2036.35 287.659M1765.34 388.275L1765.34 287.659M2011.71 388.275L2011.71 269.019M1740.7 388.275L1740.7 239.649M1987.07 388.275L1987.07 287.659M1716.06 388.275L1716.06 287.659M1962.44 388.275L1962.44 239.649M1691.42 388.275L1691.42 287.659M1937.8 388.275L1937.8 269.019M1666.79 388.275L1666.79 269.019M1913.16 388.275L1913.16 287.659M1642.15 388.275L1642.15 287.659M1888.52 388.275L1888.52 287.659M1617.51 388.275L1617.51 317.337M1863.89 388.275L1863.89 269.019M1592.87 388.275L1592.87 317.337M1839.25 388.275L1839.25 269.019M1568.24 388.275L1568.24 287.659" stroke="url(#paint1_linear_425_2198)" stroke-width="2.06085"/>
<mask id="mask0_425_2198" style="mask-type:alpha" maskUnits="userSpaceOnUse" x="753" y="0" width="549" height="545">
<circle cx="1026.97" cy="272.028" r="261.379" stroke="#272727"/>
<circle cx="1026.97" cy="272.028" r="213.978" stroke="#272727" stroke-width="0.818651"/>
<circle cx="1026.97" cy="272.027" r="207.141" stroke="#272727" stroke-width="0.79249"/>
<circle cx="1026.97" cy="272.028" r="202.726" stroke="#272727" stroke-width="0.7756"/>
<circle cx="1026.97" cy="272.028" r="202.726" stroke="#272727" stroke-width="0.7756"/>
<circle cx="1026.97" cy="272.028" r="128.133" stroke="#272727" stroke-width="0.7756"/>
<circle cx="1026.97" cy="272.028" r="202.726" stroke="#272727" stroke-width="0.7756"/>
<g clip-path="url(#clip0_425_2198)">
<path d="M1301.14 273.176L1277.85 273.049" stroke="#231F20" stroke-miterlimit="10"/>
<path d="M1286.61 359.572L1264.56 352.117" stroke="#231F20" stroke-miterlimit="10"/>
<path d="M1245.42 436.954L1226.85 422.912" stroke="#231F20" stroke-miterlimit="10"/>
<path d="M1181.79 497.386L1168.62 478.238" stroke="#231F20" stroke-miterlimit="10"/>
<path d="M1102.25 534.659L1095.84 512.346" stroke="#231F20" stroke-miterlimit="10"/>
<path d="M1014.97 544.949L1015.94 521.768" stroke="#231F20" stroke-miterlimit="10"/>
<path d="M928.869 527.281L937.195 505.58" stroke="#231F20" stroke-miterlimit="10"/>
<path d="M852.838 483.319L867.619 465.371" stroke="#231F20" stroke-miterlimit="10"/>
<path d="M794.662 417.679L814.336 405.271" stroke="#231F20" stroke-miterlimit="10"/>
<path d="M760.232 337.054L782.852 331.539" stroke="#231F20" stroke-miterlimit="10"/>
<path d="M753.239 249.766L776.448 251.604" stroke="#231F20" stroke-miterlimit="10"/>
<path d="M774.117 164.672L795.558 173.761" stroke="#231F20" stroke-miterlimit="10"/>
<path d="M821.124 90.6328L838.569 106.002" stroke="#231F20" stroke-miterlimit="10"/>
<path d="M889.086 35.1309L900.793 55.1978" stroke="#231F20" stroke-miterlimit="10"/>
<path d="M971.214 3.80469L975.902 26.5524" stroke="#231F20" stroke-miterlimit="10"/>
<path d="M1059 0.152344L1056.29 23.2064" stroke="#231F20" stroke-miterlimit="10"/>
<path d="M1143.54 24.2031L1133.63 45.1892" stroke="#231F20" stroke-miterlimit="10"/>
<path d="M1216.01 73.7578L1199.92 90.5569" stroke="#231F20" stroke-miterlimit="10"/>
<path d="M1269.17 143.508L1248.6 154.409" stroke="#231F20" stroke-miterlimit="10"/>
<path d="M1297.37 226.48L1274.39 230.31" stroke="#231F20" stroke-miterlimit="10"/>
<path d="M1285.89 315.048L1274.39 313.133" stroke="#231F20" stroke-miterlimit="10"/>
<path d="M1258.87 394.471L1248.6 389.033" stroke="#231F20" stroke-miterlimit="10"/>
<path d="M1207.97 461.286L1199.92 452.887" stroke="#231F20" stroke-miterlimit="10"/>
<path d="M1138.57 508.747L1133.63 498.254" stroke="#231F20" stroke-miterlimit="10"/>
<path d="M1057.65 531.776L1056.29 520.236" stroke="#231F20" stroke-miterlimit="10"/>
<path d="M973.546 528.252L975.902 516.891" stroke="#231F20" stroke-miterlimit="10"/>
<path d="M894.952 498.28L900.793 488.246" stroke="#231F20" stroke-miterlimit="10"/>
<path d="M829.834 445.124L838.569 437.439" stroke="#231F20" stroke-miterlimit="10"/>
<path d="M784.825 374.226L795.558 369.682" stroke="#231F20" stroke-miterlimit="10"/>
<path d="M764.844 292.759L776.448 291.84" stroke="#231F20" stroke-miterlimit="10"/>
<path d="M771.53 209.146L782.852 211.904" stroke="#231F20" stroke-miterlimit="10"/>
<path d="M804.499 131.967L814.336 138.171" stroke="#231F20" stroke-miterlimit="10"/>
<path d="M860.216 69.1113L867.619 78.0725" stroke="#231F20" stroke-miterlimit="10"/>
<path d="M933.02 27.0117L937.195 37.8622" stroke="#231F20" stroke-miterlimit="10"/>
<path d="M1015.46 10.084L1015.94 21.6748" stroke="#231F20" stroke-miterlimit="10"/>
<path d="M1099.04 19.9395L1095.84 31.0963" stroke="#231F20" stroke-miterlimit="10"/>
<path d="M1175.2 55.6309L1168.62 65.2048" stroke="#231F20" stroke-miterlimit="10"/>
<path d="M1236.12 113.508L1226.85 120.529" stroke="#231F20" stroke-miterlimit="10"/>
<path d="M1275.6 187.598L1264.56 191.325" stroke="#231F20" stroke-miterlimit="10"/>
</g>
</mask>
<g mask="url(#mask0_425_2198)">
<rect x="750.927" y="-8.58008" width="550.209" height="260.184" fill="url(#paint2_radial_425_2198)"/>
</g>
<defs>
<linearGradient id="paint0_linear_425_2198" x1="519.385" y1="313.959" x2="2" y2="313.959" gradientUnits="userSpaceOnUse">
<stop stop-color="#333333" stop-opacity="0"/>
<stop offset="0.5" stop-color="#EEEAE0"/>
<stop offset="1" stop-color="#333333" stop-opacity="0"/>
</linearGradient>
<linearGradient id="paint1_linear_425_2198" x1="2085.62" y1="313.962" x2="1568.24" y2="313.962" gradientUnits="userSpaceOnUse">
<stop stop-color="#333333" stop-opacity="0"/>
<stop offset="0.5" stop-color="#EEEAE0"/>
<stop offset="1" stop-color="#333333" stop-opacity="0"/>
</linearGradient>
<radialGradient id="paint2_radial_425_2198" cx="0" cy="0" r="1" gradientUnits="userSpaceOnUse" gradientTransform="translate(1026.03 121.512) rotate(90) scale(130.092 275.104)">
<stop stop-color="#272727"/>
<stop offset="1" stop-color="#737373" stop-opacity="0"/>
</radialGradient>
<clipPath id="clip0_425_2198">
<rect width="548" height="545" fill="white" transform="translate(753.136)"/>
</clipPath>
</defs>
</svg>
