<svg width="127" height="195" viewBox="0 0 127 195" fill="none" xmlns="http://www.w3.org/2000/svg">
<rect x="0.90332" y="0.0585938" width="125.694" height="32.5" rx="11" fill="#414141" fill-opacity="0.38"/>
<rect x="0.90332" y="102.273" width="125.694" height="32.4966" rx="11" fill="#414141" fill-opacity="0.38"/>
<rect x="5.98828" y="107.545" width="21.1768" height="21.9536" rx="6" fill="#414141" fill-opacity="0.38"/>
<rect x="0.90332" y="75.0469" width="21.1768" height="21.9536" rx="6" fill="white" fill-opacity="0.38"/>
<rect x="0.90332" y="140.041" width="21.1768" height="21.9536" rx="6" fill="white" fill-opacity="0.38"/>
<rect x="0.90332" y="172.537" width="21.1768" height="21.9536" rx="6" fill="white" fill-opacity="0.38"/>
<rect x="0.90332" y="41.9844" width="21.1768" height="21.9536" rx="6" fill="white" fill-opacity="0.38"/>
<path d="M15.682 20.0302C14.158 20.0062 12.862 19.1662 12.802 17.6302H13.846C13.894 18.7582 15.034 19.1302 15.718 19.1302C16.534 19.1302 17.434 18.8062 17.458 17.8702C17.494 16.9582 16.858 16.5622 15.514 16.3342C13.786 16.0822 12.694 15.3862 12.694 14.0422C12.694 12.6982 13.894 11.8702 15.394 11.8702C16.906 11.8702 18.262 12.7462 18.298 14.2582H17.254C17.206 13.2022 16.258 12.7702 15.394 12.7702C14.578 12.7702 13.786 13.2142 13.786 14.0662C13.774 14.7742 14.362 15.2302 15.622 15.4342C17.59 15.7462 18.598 16.4782 18.55 17.9422C18.49 19.4422 17.122 20.0542 15.682 20.0302ZM22.2763 20.0302C20.5843 20.0302 19.0723 18.7462 19.0723 16.8862C19.0723 14.8462 20.5843 13.7062 22.2763 13.7062C23.9083 13.7062 25.2763 14.7622 25.4323 16.6822C25.4443 16.8262 25.4443 16.9942 25.4323 17.1502H20.1403C20.2483 18.3022 21.2803 19.0822 22.2643 19.0942C23.0323 19.0942 23.7883 18.7342 24.1843 18.0502L25.0483 18.4942C24.4963 19.4662 23.4523 20.0302 22.2763 20.0302ZM20.2243 16.4782H24.3643C24.2323 15.3262 23.2603 14.6302 22.2763 14.6302C21.3043 14.6302 20.3443 15.3262 20.2243 16.4782ZM27.1059 19.9102H25.9779V11.9902H27.1059V19.9102ZM30.8375 20.0302C29.1455 20.0302 27.6335 18.7462 27.6335 16.8862C27.6335 14.8462 29.1455 13.7062 30.8375 13.7062C32.4695 13.7062 33.8375 14.7622 33.9935 16.6822C34.0055 16.8262 34.0055 16.9942 33.9935 17.1502H28.7015C28.8095 18.3022 29.8415 19.0822 30.8255 19.0942C31.5935 19.0942 32.3495 18.7342 32.7455 18.0502L33.6095 18.4942C33.0575 19.4662 32.0135 20.0302 30.8375 20.0302ZM28.7855 16.4782H32.9255C32.7935 15.3262 31.8215 14.6302 30.8375 14.6302C29.8655 14.6302 28.9055 15.3262 28.7855 16.4782ZM37.8512 20.0302C36.0392 20.0302 34.5512 18.7342 34.5392 16.8982C34.5272 14.9302 35.9792 13.7062 37.8512 13.7062C39.2432 13.7062 40.4312 14.4262 40.8992 15.4942L39.8552 15.8902C39.4832 15.1222 38.7032 14.6542 37.8512 14.6542C36.6632 14.6542 35.6672 15.5422 35.6672 16.8982C35.6672 18.1582 36.6752 19.0822 37.8392 19.0822C38.7272 19.0822 39.5192 18.5662 39.8672 17.7982L40.9112 18.2182C40.4072 19.2862 39.2552 20.0302 37.8512 20.0302ZM45.2598 18.7582L45.4758 19.7302C44.0358 20.3542 41.9838 19.7422 41.9838 17.6542V14.7742H40.9878V13.7782C42.1278 13.7782 41.9838 13.0942 41.9838 11.9902H43.1118L43.1238 13.7782H45.0198V14.7742H43.1118V17.5342C43.1118 18.7582 44.2518 19.2022 45.2598 18.7582ZM53.9027 19.9102H48.6467V11.9902H49.7747V18.9142H53.9027V19.9102ZM56.9602 20.0302C55.2082 20.0422 53.8882 18.6622 53.8882 16.8982C53.8882 14.8942 55.1962 13.6942 56.9002 13.7062C58.0282 13.7062 59.0842 14.3422 59.4682 15.3382V13.8262H60.6082V19.9102H59.4802V18.3622C59.1082 19.3462 58.0642 20.0302 56.9602 20.0302ZM57.2122 19.0702C58.3762 19.0702 59.4322 18.1702 59.4322 16.8982C59.4322 15.4942 58.3762 14.6542 57.2122 14.6542C56.0362 14.6422 55.0162 15.4102 55.0162 16.8982C55.0162 18.1822 56.0602 19.0822 57.2122 19.0702ZM62.3097 19.9102H61.1337V13.8262H62.2617V15.3382C62.6577 14.3422 63.7017 13.7062 64.8417 13.7062C66.5457 13.6942 67.8537 14.8942 67.8537 16.8982V19.9102H66.7137L66.7257 16.8982C66.7377 15.4102 65.6937 14.6422 64.5177 14.6542C63.3657 14.6542 62.3097 15.4702 62.3097 16.8982V19.9102ZM71.1348 22.8262C69.2148 22.8262 68.0868 22.1302 68.0628 20.9182C68.0268 20.0662 68.6628 19.4542 69.2988 19.1782C69.0108 19.0222 68.8668 18.8422 68.8788 18.4942C68.8908 18.1582 69.1188 17.8462 69.4908 17.6062C68.8788 17.2582 68.5428 16.6342 68.5428 15.9502C68.5428 14.5702 69.5148 13.7062 71.1588 13.7062C71.6748 13.7062 72.0348 13.7782 72.2748 13.8142H74.1948V14.6782H73.1748C73.5228 14.9182 73.7148 15.4462 73.7148 15.8902C73.7148 17.2342 72.7308 18.0742 71.1228 18.0742C70.8228 18.0742 70.4868 18.0382 70.3308 18.0142C69.9588 18.1942 69.7668 18.4342 69.7668 18.6502C69.7788 19.0102 70.1748 19.0582 70.6068 19.0582H71.8308C73.2708 19.0582 74.3628 19.5982 74.3388 20.8702C74.3148 22.2022 73.1628 22.8262 71.1348 22.8262ZM71.1348 17.1502C72.1428 17.1502 72.6828 16.6942 72.6828 15.8902C72.6828 15.1222 72.1428 14.6422 71.1348 14.6422C70.0908 14.6422 69.5748 15.1102 69.5748 15.9262C69.5748 16.6822 70.0788 17.1502 71.1348 17.1502ZM71.0748 21.9742C72.5388 21.9742 73.2828 21.6142 73.2948 20.9182C73.3188 20.1742 72.7788 19.8022 71.6628 19.8022H70.6188C69.7908 19.8022 69.0708 20.1862 69.1068 20.9422C69.1308 21.6502 69.7908 21.9742 71.0748 21.9742ZM77.3514 20.0302C75.7314 20.0422 74.6754 18.9622 74.6754 17.1022V13.8262H75.8034V17.0902C75.8034 18.3382 76.4874 19.0942 77.6514 19.0822C78.8514 19.0702 79.5474 18.1102 79.5474 16.7902V13.8262H80.7234V19.9102H79.5954V18.3022C79.3074 19.4662 78.2994 20.0302 77.3514 20.0302ZM84.3249 20.0302C82.5729 20.0422 81.2529 18.6622 81.2529 16.8982C81.2529 14.8942 82.5609 13.6942 84.2649 13.7062C85.3929 13.7062 86.4489 14.3422 86.8329 15.3382V13.8262H87.9729V19.9102H86.8449V18.3622C86.4729 19.3462 85.4289 20.0302 84.3249 20.0302ZM84.5769 19.0702C85.7409 19.0702 86.7969 18.1702 86.7969 16.8982C86.7969 15.4942 85.7409 14.6542 84.5769 14.6542C83.4009 14.6422 82.3809 15.4102 82.3809 16.8982C82.3809 18.1822 83.4249 19.0822 84.5769 19.0702ZM91.5235 22.8262C89.6035 22.8262 88.4755 22.1302 88.4515 20.9182C88.4155 20.0662 89.0515 19.4542 89.6875 19.1782C89.3995 19.0222 89.2555 18.8422 89.2675 18.4942C89.2795 18.1582 89.5075 17.8462 89.8795 17.6062C89.2675 17.2582 88.9315 16.6342 88.9315 15.9502C88.9315 14.5702 89.9035 13.7062 91.5475 13.7062C92.0635 13.7062 92.4235 13.7782 92.6635 13.8142H94.5835V14.6782H93.5635C93.9115 14.9182 94.1035 15.4462 94.1035 15.8902C94.1035 17.2342 93.1195 18.0742 91.5115 18.0742C91.2115 18.0742 90.8755 18.0382 90.7195 18.0142C90.3475 18.1942 90.1555 18.4342 90.1555 18.6502C90.1675 19.0102 90.5635 19.0582 90.9955 19.0582H92.2195C93.6595 19.0582 94.7515 19.5982 94.7275 20.8702C94.7035 22.2022 93.5515 22.8262 91.5235 22.8262ZM91.5235 17.1502C92.5315 17.1502 93.0715 16.6942 93.0715 15.8902C93.0715 15.1222 92.5315 14.6422 91.5235 14.6422C90.4795 14.6422 89.9635 15.1102 89.9635 15.9262C89.9635 16.6822 90.4675 17.1502 91.5235 17.1502ZM91.4635 21.9742C92.9275 21.9742 93.6715 21.6142 93.6835 20.9182C93.7075 20.1742 93.1675 19.8022 92.0515 19.8022H91.0075C90.1795 19.8022 89.4595 20.1862 89.4955 20.9422C89.5195 21.6502 90.1795 21.9742 91.4635 21.9742ZM97.8463 20.0302C96.1543 20.0302 94.6423 18.7462 94.6423 16.8862C94.6423 14.8462 96.1543 13.7062 97.8463 13.7062C99.4783 13.7062 100.846 14.7622 101.002 16.6822C101.014 16.8262 101.014 16.9942 101.002 17.1502H95.7103C95.8183 18.3022 96.8503 19.0822 97.8343 19.0942C98.6023 19.0942 99.3583 18.7342 99.7543 18.0502L100.618 18.4942C100.066 19.4662 99.0223 20.0302 97.8463 20.0302ZM95.7943 16.4782H99.9343C99.8023 15.3262 98.8303 14.6302 97.8463 14.6302C96.8743 14.6302 95.9143 15.3262 95.7943 16.4782Z" fill="#EFEBE1"/>
<path d="M38.034 56.4249H32.694V48.5409H38.046V49.6689H33.822V51.9849H37.614V52.9809H33.822V55.3089H38.034V56.4249ZM39.7444 56.4609H38.5684V50.3769H39.6964V51.8889C40.0924 50.8929 41.1364 50.2569 42.2764 50.2569C43.9804 50.2449 45.2884 51.4449 45.2884 53.4489V56.4609H44.1484L44.1604 53.4489C44.1724 51.9609 43.1284 51.1929 41.9524 51.2049C40.8004 51.2049 39.7444 52.0209 39.7444 53.4489V56.4609ZM48.5694 59.3769C46.6494 59.3769 45.5214 58.6809 45.4974 57.4689C45.4614 56.6169 46.0974 56.0049 46.7334 55.7289C46.4454 55.5729 46.3014 55.3929 46.3134 55.0449C46.3254 54.7089 46.5534 54.3969 46.9254 54.1569C46.3134 53.8089 45.9774 53.1849 45.9774 52.5009C45.9774 51.1209 46.9494 50.2569 48.5934 50.2569C49.1094 50.2569 49.4694 50.3289 49.7094 50.3649H51.6294V51.2289H50.6094C50.9574 51.4689 51.1494 51.9969 51.1494 52.4409C51.1494 53.7849 50.1654 54.6249 48.5574 54.6249C48.2574 54.6249 47.9214 54.5889 47.7654 54.5649C47.3934 54.7449 47.2014 54.9849 47.2014 55.2009C47.2134 55.5609 47.6094 55.6089 48.0414 55.6089H49.2654C50.7054 55.6089 51.7974 56.1489 51.7734 57.4209C51.7494 58.7529 50.5974 59.3769 48.5694 59.3769ZM48.5694 53.7009C49.5774 53.7009 50.1174 53.2449 50.1174 52.4409C50.1174 51.6729 49.5774 51.1929 48.5694 51.1929C47.5254 51.1929 47.0094 51.6609 47.0094 52.4769C47.0094 53.2329 47.5134 53.7009 48.5694 53.7009ZM48.5094 58.5249C49.9734 58.5249 50.7174 58.1649 50.7294 57.4689C50.7534 56.7249 50.2134 56.3529 49.0974 56.3529H48.0534C47.2254 56.3529 46.5054 56.7369 46.5414 57.4929C46.5654 58.2009 47.2254 58.5249 48.5094 58.5249ZM53.4608 56.4609H52.3328V48.5409H53.4608V56.4609ZM54.6604 49.5489C54.3004 49.5489 53.9884 49.3329 53.9884 49.0209C53.9884 48.6969 54.3004 48.4929 54.6604 48.4929C54.9964 48.4929 55.3204 48.6969 55.3204 49.0209C55.3204 49.3329 54.9964 49.5489 54.6604 49.5489ZM55.2124 56.4609H54.0844V50.3769H55.2124V56.4609ZM58.3755 56.5809C56.9235 56.5449 55.8435 55.7649 55.8315 54.4449H56.8755C56.9355 55.3809 57.5955 55.6929 58.3755 55.7289C59.0235 55.7649 59.6715 55.4049 59.6955 54.8289C59.7195 54.2049 59.2875 53.9649 58.3035 53.8089C56.8275 53.5929 55.8675 53.2449 55.8435 52.0569C55.8195 50.9769 56.7915 50.2569 58.1835 50.2569C59.6715 50.2569 60.6915 50.9649 60.7755 52.3329H59.7315C59.6715 51.6009 59.1075 51.1209 58.2195 51.1089C57.4635 51.0969 56.9355 51.5289 56.9475 52.0929C56.9595 52.6689 57.3795 52.9329 58.3875 53.1129C60.0435 53.4009 60.7995 53.7129 60.7875 54.8889C60.7635 55.9929 59.7555 56.6169 58.3755 56.5809ZM62.5069 56.4609H61.3309V48.5409H62.4589V51.8889C62.8549 50.8929 63.8989 50.2569 65.0389 50.2569C66.7429 50.2449 68.0509 51.4449 68.0509 53.4489V56.4609H66.9109L66.9229 53.4489C66.9229 51.9609 65.8909 51.1929 64.7149 51.2049C63.5629 51.2049 62.5069 52.0209 62.5069 53.4489V56.4609Z" fill="white" fill-opacity="0.73"/>
<path d="M36.762 88.2118C34.518 88.2118 32.682 86.5318 32.694 84.1318C32.706 81.7438 34.518 80.0518 36.774 80.0518C38.238 80.0518 39.486 80.7358 40.194 81.9598L39.234 82.4398C38.706 81.5638 37.806 81.0358 36.786 81.0358C35.214 81.0358 33.822 82.2838 33.822 84.1318C33.834 85.9318 35.178 87.2158 36.762 87.2158C37.806 87.2158 38.73 86.8078 39.246 85.8958V84.5638H36.798V83.7958H40.254V86.1718C39.582 87.4558 38.286 88.2118 36.762 88.2118ZM43.9872 88.2118C42.2952 88.2118 40.7832 86.9278 40.7832 85.0678C40.7832 83.0278 42.2952 81.8878 43.9872 81.8878C45.6192 81.8878 46.9872 82.9438 47.1432 84.8638C47.1552 85.0078 47.1552 85.1758 47.1432 85.3318H41.8512C41.9592 86.4838 42.9912 87.2638 43.9752 87.2758C44.7432 87.2758 45.4992 86.9158 45.8952 86.2318L46.7592 86.6758C46.2072 87.6478 45.1632 88.2118 43.9872 88.2118ZM41.9352 84.6598H46.0752C45.9432 83.5078 44.9712 82.8118 43.9872 82.8118C43.0152 82.8118 42.0552 83.5078 41.9352 84.6598ZM48.8648 88.0918H47.6888V82.0078H48.8168V83.7118C49.1648 82.4998 50.5808 81.8038 51.7808 82.1398L51.2288 83.0758C50.2328 82.7998 48.8648 83.6398 48.8648 85.0798V88.0918ZM53.4733 88.0918H52.3093V82.0078H53.4373V83.5198C53.6533 82.5958 54.5893 81.8998 55.5373 81.8878C56.6533 81.8758 57.5173 82.4878 57.8413 83.5678C58.1653 82.5358 59.1013 81.8758 60.1213 81.8878C61.6813 81.8998 62.7013 82.9558 62.7013 84.8158V88.0918H61.5733V84.8278C61.5733 83.5918 60.9133 82.8238 59.8093 82.8358C58.7653 82.8358 58.1053 83.6278 58.1053 84.8398V88.0918H56.9773V84.8278C56.9773 83.5918 56.3053 82.8118 55.2133 82.8358C54.1933 82.8598 53.4973 83.7838 53.4853 84.8158L53.4733 88.0918ZM66.3065 88.2118C64.5545 88.2238 63.2345 86.8438 63.2345 85.0798C63.2345 83.0758 64.5425 81.8758 66.2465 81.8878C67.3745 81.8878 68.4305 82.5238 68.8145 83.5198V82.0078H69.9545V88.0918H68.8265V86.5438C68.4545 87.5278 67.4105 88.2118 66.3065 88.2118ZM66.5585 87.2518C67.7225 87.2518 68.7785 86.3518 68.7785 85.0798C68.7785 83.6758 67.7225 82.8358 66.5585 82.8358C65.3825 82.8238 64.3625 83.5918 64.3625 85.0798C64.3625 86.3638 65.4065 87.2638 66.5585 87.2518ZM71.6559 88.0918H70.4799V82.0078H71.6079V83.5198C72.0039 82.5238 73.0479 81.8878 74.1879 81.8878C75.8919 81.8758 77.1999 83.0758 77.1999 85.0798V88.0918H76.0599L76.0719 85.0798C76.0839 83.5918 75.0399 82.8238 73.8639 82.8358C72.7119 82.8358 71.6559 83.6518 71.6559 85.0798V88.0918Z" fill="white" fill-opacity="0.73"/>
<path d="M33.822 122.021H32.694V114.101H33.822V117.581H37.398V114.101H38.526V122.021H37.398V118.577H33.822V122.021ZM39.7208 115.109C39.3608 115.109 39.0488 114.893 39.0488 114.581C39.0488 114.257 39.3608 114.053 39.7208 114.053C40.0568 114.053 40.3808 114.257 40.3808 114.581C40.3808 114.893 40.0568 115.109 39.7208 115.109ZM40.2728 122.021H39.1448V115.937H40.2728V122.021ZM42.068 122.021H40.892V115.937H42.02V117.449C42.416 116.453 43.46 115.817 44.6 115.817C46.304 115.805 47.612 117.005 47.612 119.009V122.021H46.472L46.484 119.009C46.496 117.521 45.452 116.753 44.276 116.765C43.124 116.765 42.068 117.581 42.068 119.009V122.021ZM51.2094 122.141C49.4574 122.153 48.1374 120.773 48.1374 119.009C48.1374 117.005 49.4454 115.805 51.1494 115.817C52.2774 115.817 53.3334 116.453 53.7174 117.449V114.101H54.8574V122.021H53.7294V120.473C53.3574 121.457 52.3134 122.141 51.2094 122.141ZM51.4614 121.181C52.6254 121.181 53.6814 120.281 53.6814 119.009C53.6814 117.581 52.6254 116.765 51.4614 116.765C50.2854 116.753 49.2654 117.521 49.2654 119.009C49.2654 120.293 50.3094 121.193 51.4614 121.181ZM56.0549 115.109C55.6949 115.109 55.3829 114.893 55.3829 114.581C55.3829 114.257 55.6949 114.053 56.0549 114.053C56.3909 114.053 56.7149 114.257 56.7149 114.581C56.7149 114.893 56.3909 115.109 56.0549 115.109ZM56.6069 122.021H55.4789V115.937H56.6069V122.021Z" fill="white" fill-opacity="0.73"/>
<path d="M33.822 153.949H32.694V146.029H38.046V147.157H33.822V149.473H37.242V150.469H33.822V153.949ZM39.1467 153.949H37.9707V147.865H39.0987V149.569C39.4467 148.357 40.8627 147.661 42.0627 147.997L41.5107 148.933C40.5147 148.657 39.1467 149.497 39.1467 150.937V153.949ZM44.6819 154.069C42.9899 154.069 41.4779 152.785 41.4779 150.925C41.4779 148.885 42.9899 147.745 44.6819 147.745C46.3139 147.745 47.6819 148.801 47.8379 150.721C47.8499 150.865 47.8499 151.033 47.8379 151.189H42.5459C42.6539 152.341 43.6859 153.121 44.6699 153.133C45.4379 153.133 46.1939 152.773 46.5899 152.089L47.4539 152.533C46.9019 153.505 45.8579 154.069 44.6819 154.069ZM42.6299 150.517H46.7699C46.6379 149.365 45.6659 148.669 44.6819 148.669C43.7099 148.669 42.7499 149.365 42.6299 150.517ZM49.5595 153.949H48.3835V147.865H49.5115V149.377C49.9075 148.381 50.9515 147.745 52.0915 147.745C53.7955 147.733 55.1035 148.933 55.1035 150.937V153.949H53.9635L53.9755 150.937C53.9875 149.449 52.9435 148.681 51.7675 148.693C50.6155 148.693 49.5595 149.509 49.5595 150.937V153.949ZM58.941 154.069C57.129 154.069 55.641 152.773 55.629 150.937C55.617 148.969 57.069 147.745 58.941 147.745C60.333 147.745 61.521 148.465 61.989 149.533L60.945 149.929C60.573 149.161 59.793 148.693 58.941 148.693C57.753 148.693 56.757 149.581 56.757 150.937C56.757 152.197 57.765 153.121 58.929 153.121C59.817 153.121 60.609 152.605 60.957 151.837L62.001 152.257C61.497 153.325 60.345 154.069 58.941 154.069ZM63.7106 153.949H62.5346V146.029H63.6626V149.377C64.0586 148.381 65.1026 147.745 66.2426 147.745C67.9466 147.733 69.2546 148.933 69.2546 150.937V153.949H68.1146L68.1266 150.937C68.1266 149.449 67.0946 148.681 65.9186 148.693C64.7666 148.693 63.7106 149.509 63.7106 150.937V153.949Z" fill="white" fill-opacity="0.73"/>
<path d="M33.822 185.582H32.694V177.662H35.682C37.974 177.662 38.502 179.042 38.502 180.074C38.502 181.346 37.698 182.378 35.682 182.378H33.822V185.582ZM33.822 178.646V181.382H35.682C36.786 181.382 37.374 180.998 37.374 180.074C37.374 179.318 36.954 178.646 35.67 178.646H33.822ZM41.8218 185.702C40.0098 185.702 38.5218 184.394 38.5098 182.57C38.4978 180.626 39.9498 179.378 41.8218 179.378C43.7178 179.378 45.1698 180.626 45.1578 182.57C45.1458 184.382 43.7418 185.702 41.8218 185.702ZM41.8098 184.754C42.9858 184.754 44.0298 183.878 44.0298 182.57C44.0298 181.226 43.0458 180.326 41.8218 180.326C40.6338 180.326 39.6378 181.166 39.6378 182.57C39.6378 183.818 40.6458 184.754 41.8098 184.754ZM46.8129 185.582H45.6849V177.662H46.8129V185.582ZM48.4686 185.582H47.3406V177.662H48.4686V185.582ZM52.0682 185.702C50.3162 185.714 48.9962 184.334 48.9962 182.57C48.9962 180.566 50.3042 179.366 52.0082 179.378C53.1362 179.378 54.1922 180.014 54.5762 181.01V179.498H55.7162V185.582H54.5882V184.034C54.2162 185.018 53.1722 185.702 52.0682 185.702ZM52.3202 184.742C53.4842 184.742 54.5402 183.842 54.5402 182.57C54.5402 181.166 53.4842 180.326 52.3202 180.326C51.1442 180.314 50.1242 181.082 50.1242 182.57C50.1242 183.854 51.1682 184.754 52.3202 184.742ZM57.4177 185.582H56.2417V179.498H57.3697V181.01C57.7657 180.014 58.8097 179.378 59.9497 179.378C61.6537 179.366 62.9617 180.566 62.9617 182.57V185.582H61.8217L61.8337 182.57C61.8457 181.082 60.8017 180.314 59.6257 180.326C58.4737 180.326 57.4177 181.142 57.4177 182.57V185.582ZM66.5591 185.702C64.8071 185.714 63.4871 184.334 63.4871 182.57C63.4871 180.566 64.7951 179.366 66.4991 179.378C67.6271 179.378 68.6831 180.014 69.0671 181.01V177.662H70.2071V185.582H69.0791V184.034C68.7071 185.018 67.6631 185.702 66.5591 185.702ZM66.8111 184.742C67.9751 184.742 69.0311 183.842 69.0311 182.57C69.0311 181.142 67.9751 180.326 66.8111 180.326C65.6351 180.314 64.6151 181.082 64.6151 182.57C64.6151 183.854 65.6591 184.754 66.8111 184.742Z" fill="white" fill-opacity="0.73"/>
<line x1="2.12598" y1="69.2754" x2="124.762" y2="69.2754" stroke="white" stroke-opacity="0.2"/>
<line x1="2.12598" y1="166.766" x2="124.762" y2="166.766" stroke="white" stroke-opacity="0.2"/>
<path d="M11.0801 124.34H23.0801V112.34H11.0801V124.34Z" fill="white" fill-opacity="0.73"/>
<path d="M5.08008 59.3009H17.0801V47.3009H5.08008V59.3009Z" fill="white" fill-opacity="0.73"/>
<path d="M5.08008 91.8205H17.0801V79.8205H5.08008V91.8205Z" fill="white" fill-opacity="0.73"/>
<path d="M5.08008 156.813H17.0801V144.813H5.08008V156.813Z" fill="white" fill-opacity="0.73"/>
<path d="M5.08008 189.854H17.0801V177.854H5.08008V189.854Z" fill="white" fill-opacity="0.73"/>
</svg>
