<svg width="220" height="37" viewBox="0 0 220 37" fill="none" xmlns="http://www.w3.org/2000/svg">
<path d="M17.656 17.4021C19.656 18.5568 19.656 21.4435 17.656 22.5982L4.5 30.1938C2.5 31.3485 -1.00947e-07 29.9052 0 27.5958L6.6403e-07 12.4045C7.64977e-07 10.0951 2.5 8.65173 4.5 9.80644L17.656 17.4021Z" fill="#D9D9D9"/>
<path d="M41.4237 29.9923C37.6837 29.9923 35.2837 27.0923 35.2837 23.3923C35.2837 19.6323 37.6437 16.3923 41.4637 16.3923C45.3637 16.3923 47.5837 19.6323 47.5837 23.3923C47.5837 27.0923 45.2037 29.9923 41.4237 29.9923ZM41.4437 28.3123C43.9637 28.3123 45.7637 26.2923 45.7637 23.3723C45.7837 20.2323 44.0037 18.0723 41.4837 18.0723C38.9437 18.0723 37.0837 20.2523 37.1037 23.3723C37.1037 26.2723 38.9237 28.3123 41.4437 28.3123Z" fill="#EFEBE1"/>
<path d="M54.6128 29.9923C50.8728 29.9923 48.4728 27.0923 48.4728 23.3923C48.4728 19.6323 50.8328 16.3923 54.6528 16.3923C58.5528 16.3923 60.7728 19.6323 60.7728 23.3923C60.7728 27.0923 58.3928 29.9923 54.6128 29.9923ZM54.6328 28.3123C57.1528 28.3123 58.9528 26.2923 58.9528 23.3723C58.9728 20.2323 57.1928 18.0723 54.6728 18.0723C52.1328 18.0723 50.2728 20.2523 50.2928 23.3723C50.2928 26.2723 52.1128 28.3123 54.6328 28.3123Z" fill="#EFEBE1"/>
<path d="M62.8018 21.2923C62.1818 21.2923 61.6618 20.7923 61.6618 20.1523C61.6618 19.5523 62.1818 19.0523 62.8018 19.0523C63.4018 19.0523 63.9218 19.5523 63.9218 20.1523C63.9218 20.7923 63.4018 21.2923 62.8018 21.2923ZM62.8218 28.3123C62.2018 28.3123 61.6818 27.8123 61.6818 27.1723C61.6818 26.5723 62.2018 26.0723 62.8218 26.0723C63.4218 26.0723 63.9418 26.5723 63.9418 27.1723C63.9418 27.8123 63.4218 28.3123 62.8218 28.3123Z" fill="#EFEBE1"/>
<path d="M70.9714 29.9923C67.2314 29.9923 64.8314 27.0923 64.8314 23.3923C64.8314 19.6323 67.1914 16.3923 71.0114 16.3923C74.9114 16.3923 77.1314 19.6323 77.1314 23.3923C77.1314 27.0923 74.7514 29.9923 70.9714 29.9923ZM70.9914 28.3123C73.5114 28.3123 75.3114 26.2923 75.3114 23.3723C75.3314 20.2323 73.5514 18.0723 71.0314 18.0723C68.4914 18.0723 66.6314 20.2523 66.6514 23.3723C66.6514 26.2723 68.4714 28.3123 70.9914 28.3123Z" fill="#EFEBE1"/>
<path d="M84.1604 29.9923C80.4204 29.9923 78.0204 27.0923 78.0204 23.3923C78.0204 19.6323 80.3804 16.3923 84.2004 16.3923C88.1004 16.3923 90.3204 19.6323 90.3204 23.3923C90.3204 27.0923 87.9404 29.9923 84.1604 29.9923ZM84.1804 28.3123C86.7004 28.3123 88.5004 26.2923 88.5004 23.3723C88.5204 20.2323 86.7404 18.0723 84.2204 18.0723C81.6804 18.0723 79.8204 20.2523 79.8404 23.3723C79.8404 26.2723 81.6604 28.3123 84.1804 28.3123Z" fill="#EFEBE1"/>
<path d="M92.3495 21.2923C91.7295 21.2923 91.2095 20.7923 91.2095 20.1523C91.2095 19.5523 91.7295 19.0523 92.3495 19.0523C92.9495 19.0523 93.4695 19.5523 93.4695 20.1523C93.4695 20.7923 92.9495 21.2923 92.3495 21.2923ZM92.3695 28.3123C91.7495 28.3123 91.2295 27.8123 91.2295 27.1723C91.2295 26.5723 91.7495 26.0723 92.3695 26.0723C92.9695 26.0723 93.4895 26.5723 93.4895 27.1723C93.4895 27.8123 92.9695 28.3123 92.3695 28.3123Z" fill="#EFEBE1"/>
<path d="M103.919 29.7923H94.759V28.3723L97.799 25.7723C100.419 23.5323 102.119 22.2923 102.199 20.7723C102.279 19.1123 101.119 18.0323 99.159 18.0323C97.719 18.0523 96.439 18.9123 96.199 20.5923H94.379C94.499 17.9123 96.439 16.4723 99.059 16.3923C102.079 16.3123 104.059 18.1123 103.999 20.4923C103.939 22.7123 102.299 23.9323 99.459 26.3923L97.519 28.1323H103.919V29.7923Z" fill="#EFEBE1"/>
<path d="M108.112 29.7923H106.312V18.9323H104.912V17.3523C105.492 17.3523 106.252 17.1723 106.272 16.5923H108.072L108.112 29.7923Z" fill="#EFEBE1"/>
<path d="M110.139 21.2923C109.519 21.2923 108.999 20.7923 108.999 20.1523C108.999 19.5523 109.519 19.0523 110.139 19.0523C110.739 19.0523 111.259 19.5523 111.259 20.1523C111.259 20.7923 110.739 21.2923 110.139 21.2923ZM110.159 28.3123C109.539 28.3123 109.019 27.8123 109.019 27.1723C109.019 26.5723 109.539 26.0723 110.159 26.0723C110.759 26.0723 111.279 26.5723 111.279 27.1723C111.279 27.8123 110.759 28.3123 110.159 28.3123Z" fill="#EFEBE1"/>
<path d="M120.689 29.7923H118.889V26.9923L112.169 26.9723V25.6323L119.069 16.5923H120.709L120.689 25.4323H122.669V27.0123H120.689V29.7923ZM118.909 19.3723L114.429 25.4123H118.889L118.909 19.3723Z" fill="#EFEBE1"/>
<path d="M129.682 29.9923C125.942 29.9923 123.542 27.0923 123.542 23.3923C123.542 19.6323 125.902 16.3923 129.722 16.3923C133.622 16.3923 135.842 19.6323 135.842 23.3923C135.842 27.0923 133.462 29.9923 129.682 29.9923ZM129.702 28.3123C132.222 28.3123 134.022 26.2923 134.022 23.3723C134.042 20.2323 132.262 18.0723 129.742 18.0723C127.202 18.0723 125.342 20.2523 125.362 23.3723C125.362 26.2723 127.182 28.3123 129.702 28.3123Z" fill="#EFEBE1"/>
<path d="M37.9437 6.99938H37.0037L37.0237 1.22938L34.9137 1.21938V0.399375H40.0837V1.21938L37.9637 1.22938L37.9437 6.99938Z" fill="#EFEBE1"/>
<path d="M41.0819 1.23937C40.7819 1.23937 40.5219 1.05937 40.5219 0.799375C40.5219 0.529375 40.7819 0.359375 41.0819 0.359375C41.3619 0.359375 41.6319 0.529375 41.6319 0.799375C41.6319 1.05937 41.3619 1.23937 41.0819 1.23937ZM41.5419 6.99938H40.6019V1.92938H41.5419V6.99938Z" fill="#EFEBE1"/>
<path d="M43.0278 6.99938H42.0578V1.92938H42.9978V3.18938C43.1778 2.41937 43.9578 1.83938 44.7478 1.82938C45.6778 1.81938 46.3978 2.32938 46.6678 3.22938C46.9378 2.36938 47.7178 1.81938 48.5678 1.82938C49.8678 1.83938 50.7178 2.71938 50.7178 4.26938V6.99938H49.7778V4.27938C49.7778 3.24937 49.2278 2.60938 48.3078 2.61938C47.4378 2.61938 46.8878 3.27938 46.8878 4.28938V6.99938H45.9478V4.27938C45.9478 3.24937 45.3878 2.59938 44.4778 2.61938C43.6278 2.63938 43.0478 3.40938 43.0378 4.26938L43.0278 6.99938Z" fill="#EFEBE1"/>
<path d="M53.8321 7.09938C52.4221 7.09938 51.1621 6.02938 51.1621 4.47938C51.1621 2.77938 52.4221 1.82938 53.8321 1.82938C55.1921 1.82938 56.3321 2.70938 56.4621 4.30938C56.4721 4.42938 56.4721 4.56938 56.4621 4.69938H52.0521C52.1421 5.65938 53.0021 6.30938 53.8221 6.31938C54.4621 6.31938 55.0921 6.01938 55.4221 5.44938L56.1421 5.81938C55.6821 6.62938 54.8121 7.09938 53.8321 7.09938ZM52.1221 4.13938H55.5721C55.4621 3.17938 54.6521 2.59938 53.8321 2.59938C53.0221 2.59938 52.2221 3.17938 52.1221 4.13938Z" fill="#EFEBE1"/>
<path d="M59.6768 7.09938C58.1668 7.09938 56.9268 6.01938 56.9168 4.48938C56.9068 2.84938 58.1168 1.82938 59.6768 1.82938C60.8368 1.82938 61.8268 2.42938 62.2168 3.31938L61.3468 3.64938C61.0368 3.00938 60.3868 2.61938 59.6768 2.61938C58.6868 2.61938 57.8568 3.35938 57.8568 4.48938C57.8568 5.53938 58.6968 6.30938 59.6668 6.30938C60.4068 6.30938 61.0668 5.87938 61.3568 5.23938L62.2268 5.58938C61.8068 6.47938 60.8468 7.09938 59.6768 7.09938Z" fill="#EFEBE1"/>
<path d="M65.4315 7.09938C63.9215 7.09938 62.6815 6.00938 62.6715 4.48938C62.6615 2.86938 63.8715 1.82938 65.4315 1.82938C67.0115 1.82938 68.2215 2.86938 68.2115 4.48938C68.2015 5.99938 67.0315 7.09938 65.4315 7.09938ZM65.4215 6.30938C66.4015 6.30938 67.2715 5.57938 67.2715 4.48938C67.2715 3.36938 66.4515 2.61938 65.4315 2.61938C64.4415 2.61938 63.6115 3.31938 63.6115 4.48938C63.6115 5.52938 64.4515 6.30938 65.4215 6.30938Z" fill="#EFEBE1"/>
<path d="M71.2108 7.09938C69.7508 7.10938 68.6508 5.95938 68.6508 4.48938C68.6508 2.81938 69.7408 1.81938 71.1608 1.82938C72.1008 1.82938 72.9808 2.35938 73.3008 3.18938V0.399375H74.2508V6.99938H73.3108V5.70938C73.0008 6.52938 72.1308 7.09938 71.2108 7.09938ZM71.4208 6.29938C72.3908 6.29938 73.2708 5.54938 73.2708 4.48938C73.2708 3.29938 72.3908 2.61938 71.4208 2.61938C70.4408 2.60938 69.5908 3.24937 69.5908 4.48938C69.5908 5.55938 70.4608 6.30938 71.4208 6.29938Z" fill="#EFEBE1"/>
<path d="M77.3587 7.09938C75.9487 7.09938 74.6887 6.02938 74.6887 4.47938C74.6887 2.77938 75.9487 1.82938 77.3587 1.82938C78.7187 1.82938 79.8587 2.70938 79.9887 4.30938C79.9987 4.42938 79.9987 4.56938 79.9887 4.69938H75.5787C75.6687 5.65938 76.5287 6.30938 77.3487 6.31938C77.9887 6.31938 78.6187 6.01938 78.9487 5.44938L79.6687 5.81938C79.2087 6.62938 78.3387 7.09938 77.3587 7.09938ZM75.6487 4.13938H79.0987C78.9887 3.17938 78.1787 2.59938 77.3587 2.59938C76.5487 2.59938 75.7487 3.17938 75.6487 4.13938Z" fill="#EFEBE1"/>
<path d="M152.724 5.49938C152.724 4.39481 153.62 3.49938 154.724 3.49938H171.8C172.904 3.49938 173.8 4.39481 173.8 5.49938V7.52477C173.8 8.62934 172.904 9.52477 171.8 9.52477H154.724C153.62 9.52477 152.724 8.62934 152.724 7.52477V5.49938Z" fill="#03FFB2"/>
<path d="M175.709 5.49938C175.709 4.39481 176.605 3.49938 177.709 3.49938H194.785C195.889 3.49938 196.785 4.39481 196.785 5.49938V7.52477C196.785 8.62934 195.889 9.52477 194.785 9.52477H177.709C176.605 9.52477 175.709 8.62934 175.709 7.52477V5.49938Z" fill="#222222" fill-opacity="0.29"/>
<path d="M198.694 5.49938C198.694 4.39481 199.589 3.49938 200.694 3.49938H217.769C218.874 3.49938 219.769 4.39481 219.769 5.49938V7.52477C219.769 8.62934 218.874 9.52477 217.769 9.52477H200.694C199.589 9.52477 198.694 8.62934 198.694 7.52477V5.49938Z" fill="#222222" fill-opacity="0.29"/>
<path d="M152.724 18.8334C152.724 17.7288 153.62 16.8334 154.724 16.8334H171.8C172.904 16.8334 173.8 17.7288 173.8 18.8334V20.8588C173.8 21.9633 172.904 22.8587 171.8 22.8587H154.724C153.62 22.8587 152.724 21.9633 152.724 20.8587V18.8334Z" fill="#222222" fill-opacity="0.29"/>
<path d="M175.709 18.8334C175.709 17.7288 176.605 16.8334 177.709 16.8334H194.785C195.889 16.8334 196.785 17.7288 196.785 18.8334V20.8588C196.785 21.9633 195.889 22.8587 194.785 22.8587H177.709C176.605 22.8587 175.709 21.9633 175.709 20.8587V18.8334Z" fill="#03FFB2"/>
<path d="M198.694 18.8334C198.694 17.7288 199.589 16.8334 200.694 16.8334H217.769C218.874 16.8334 219.769 17.7288 219.769 18.8334V20.8588C219.769 21.9633 218.874 22.8587 217.769 22.8587H200.694C199.589 22.8587 198.694 21.9633 198.694 20.8587V18.8334Z" fill="#03FFB2"/>
<path d="M152.724 32.1654C152.724 31.0608 153.62 30.1654 154.724 30.1654H171.8C172.904 30.1654 173.8 31.0608 173.8 32.1654V34.1908C173.8 35.2954 172.904 36.1908 171.8 36.1908H154.724C153.62 36.1908 152.724 35.2954 152.724 34.1908V32.1654Z" fill="#222222" fill-opacity="0.29"/>
<path d="M175.709 32.1654C175.709 31.0608 176.605 30.1654 177.709 30.1654H194.785C195.889 30.1654 196.785 31.0608 196.785 32.1654V34.1908C196.785 35.2954 195.889 36.1908 194.785 36.1908H177.709C176.605 36.1908 175.709 35.2954 175.709 34.1908V32.1654Z" fill="#222222" fill-opacity="0.29"/>
<path d="M198.694 32.1654C198.694 31.0608 199.589 30.1654 200.694 30.1654H217.769C218.874 30.1654 219.769 31.0608 219.769 32.1654V34.1908C219.769 35.2954 218.874 36.1908 217.769 36.1908H200.694C199.589 36.1908 198.694 35.2954 198.694 34.1908V32.1654Z" fill="#222222" fill-opacity="0.29"/>
</svg>
