<svg width="24" height="25" viewBox="0 0 24 25" fill="none" xmlns="http://www.w3.org/2000/svg">
<path fill-rule="evenodd" clip-rule="evenodd" d="M5 1.84717C3.93913 1.84717 2.92172 2.2686 2.17157 3.01874C1.42143 3.76889 1 4.7863 1 5.84717V19.8472C1 20.908 1.42143 21.9254 2.17157 22.6756C2.92172 23.4257 3.93913 23.8472 5 23.8472H19C20.0609 23.8472 21.0783 23.4257 21.8284 22.6756C22.5786 21.9254 23 20.908 23 19.8472V5.84717C23 4.7863 22.5786 3.76889 21.8284 3.01874C21.0783 2.2686 20.0609 1.84717 19 1.84717H5ZM6.205 8.75717C6.65719 8.75717 7.09087 8.57753 7.41062 8.25778C7.73037 7.93804 7.91 7.50436 7.91 7.05217C7.91 6.59997 7.73037 6.1663 7.41062 5.84655C7.09087 5.5268 6.65719 5.34717 6.205 5.34717C5.75281 5.34717 5.31913 5.5268 4.99938 5.84655C4.67963 6.1663 4.5 6.59997 4.5 7.05217C4.5 7.50436 4.67963 7.93804 4.99938 8.25778C5.31913 8.57753 5.75281 8.75717 6.205 8.75717ZM7.909 20.3472V10.1202H4.5V20.3472H7.909ZM12.341 10.1202H9.273V20.3472H12.341V14.1772C12.736 13.5352 13.418 12.8472 14.386 12.8472C15.75 12.8472 16.091 14.2112 16.091 14.8932V20.3472H19.5V14.8932C19.5 13.0652 18.703 10.1202 15.75 10.1202C13.872 10.1202 12.83 10.8052 12.34 11.4472L12.341 10.1202Z" fill="black"/>
</svg>
