<svg width="136" height="84" viewBox="0 0 136 84" fill="none" xmlns="http://www.w3.org/2000/svg">
<rect width="136" height="84" fill="#D9D9D9"/>
<path d="M43.3734 52H30.2334V32.2H33.0534V49.51H43.3734V52ZM52.6305 52.3C47.0205 52.3 42.3405 48.1 42.3705 42.19C42.4005 36.19 46.9905 31.9 52.6605 31.9C58.4505 31.9 62.8305 36.25 62.8005 42.19C62.8005 48.01 58.3305 52.3 52.6305 52.3ZM52.6305 49.81C56.6505 49.81 59.9205 46.57 59.9505 42.19C59.9805 37.51 56.6505 34.39 52.6905 34.39C48.7305 34.39 45.2205 37.54 45.2205 42.19C45.2505 46.54 48.6405 49.81 52.6305 49.81ZM74.287 52.3C68.677 52.3 64.087 48.1 64.117 42.1C64.147 36.13 68.677 31.9 74.317 31.9C77.977 31.9 81.097 33.61 82.867 36.67L80.467 37.87C79.147 35.68 76.897 34.36 74.347 34.36C70.417 34.36 66.937 37.48 66.937 42.1C66.967 46.6 70.327 49.81 74.287 49.81C76.897 49.81 79.207 48.79 80.497 46.51V43.18H74.377V41.26H83.017V47.2C81.337 50.41 78.097 52.3 74.287 52.3ZM94.6001 52.3C88.9901 52.3 84.3101 48.1 84.3401 42.19C84.3701 36.19 88.9601 31.9 94.6301 31.9C100.42 31.9 104.8 36.25 104.77 42.19C104.77 48.01 100.3 52.3 94.6001 52.3ZM94.6001 49.81C98.6201 49.81 101.89 46.57 101.92 42.19C101.95 37.51 98.6201 34.39 94.6601 34.39C90.7001 34.39 87.1901 37.54 87.1901 42.19C87.2201 46.54 90.6101 49.81 94.6001 49.81Z" fill="#161616"/>
</svg>
