<?xml version="1.0" encoding="UTF-8"?>
<svg id="Layer_1" xmlns="http://www.w3.org/2000/svg" version="1.1" xmlns:xlink="http://www.w3.org/1999/xlink" viewBox="0 0 363 82">
  <!-- Generator: Adobe Illustrator 29.8.2, SVG Export Plug-In . SVG Version: 2.1.1 Build 3)  -->
  <defs>
    <style>
      .st0 {
        fill: #959595;
      }

      .st1 {
        fill: #faf2e6;
        filter: url(#drop-shadow-1);
        font-family: Montserrat-Bold, Montserrat;
        font-size: 35px;
        font-weight: 700;
      }
    </style>
    <filter id="drop-shadow-1" filterUnits="userSpaceOnUse">
      <feOffset dx="1" dy="3"/>
      <feGaussianBlur result="blur" stdDeviation="0"/>
      <feFlood flood-color="#000" flood-opacity=".47"/>
      <feComposite in2="blur" operator="in"/>
      <feComposite in="SourceGraphic"/>
    </filter>
  </defs>
  <text class="st1" transform="translate(289.68 1227.8)"><tspan x="0" y="0">Skip the search. Go Byond. </tspan></text>
  <g>
    <g>
      <path class="st0" d="M75.39,40.81c.05-.33.09-.58.14-.91-.05-.08-.11-.3-.26-.37-.24-.12-.37-.35-.48-.53-.14-.26-.32-.44-.55-.59v-.19c-.12-.41-.45-.5-.56-.83-.09-.28-.02-.58-.19-.89-.15.12-.27.22-.52.41.1-.24.2-.37.17-.44-.15-.3-.26-.6-.52-.86-.21-.21-.51-.32-.64-.62-.13-.29-.44-.42-.65-.63-.19-.19-.18-.2-.47-.04-.12-.54-.78-.57-.98-1.05-.03-.22.11-.51-.29-.69.06.2.11.36.18.6-.24-.1-.39-.15-.53-.23-.15-.08-.24-.27-.15-.38.16-.21-.04-.32-.05-.44-.19.03-.39.06-.58.09-.09-.26-.16-.47-.24-.71-.1.06-.18.1-.24.14-.39-.43-.94-.71-1.14-1.29h-.3c.04-.21.06-.37.1-.53.03-.13-.06-.47-.16-.53h-.23c-.12-.18-.21-.37-.34-.52-.12-.14-.28-.25-.44-.39.12-.14.21-.24.33-.37-.16-.02-.28-.04-.34-.05-.09-.21-.16-.36-.29-.65-.04.27-.06.39-.07.52-.25.06-.24-.09-.24-.25.24-.06.16-.25.1-.35-.09-.15-.24-.25-.36-.38-.28-.28-.54-.58-.85-.84-.29-.24-.38-.66-.78-.81-.08-.03-.08-.36-.15-.37-.36-.05-.31-.35-.4-.6-.11.06-.19.11-.28.16-.2-.54-.83-.74-1.03-1.29-.25-.02-.34-.24-.51-.37-.18-.15-.34-.34-.55-.43-.21-.09-.13-.43-.41-.41-.26-.45-.72-.68-1.07-1.05-.3-.32-.57-.7-1.05-.81-.07-.02-.12-.12-.19-.18-.69-.58-1.4-1.11-2.24-1.45-.31-.12-.68-.12-.87-.47,0,0-.12.08-.18.07-.52-.12-.52-.12-.78.3-.03-.08-.06-.16-.08-.23-.34.12-.64.29-.81.64-.05-.05-.08-.08-.15-.15-.13.28-.51.3-.61.62-.33.05-.61.23-.93.38v.34c-.08-.06-.12-.1-.16-.14-.17.25-.59.23-.65.61-.02.13-.14.25-.23.37-.29.37-.66.67-.96,1.05-.27.34-.62.63-.85,1.02-.05.09-.14.21-.23.23-.43.1-.53.63-.96.71-.27.57-3.57,2.62-3.93,3.11v.48c.18-.04.33-.08.49-.11.04.05.1.1.11.13-.11.14-.2.26-.3.39-.19-.06-.36-.11-.53-.16-.12.15-.12.02-.32.15-.11.07-.14.28-.21.46-.12-.06-.25-.11-.37-.17-.24.31.11.24.2.38,0,.11.14.6.14.78.67-.14.57.69,1.08.79.31-.18.62-.36.99-.58,0,.16.04.37,0,.39-.38.17-.41,1.23-.82,1.43.24.16.4.31.58.38.19.08.44-.16.66,0,.08.05.33.13.5.11.09-.14.16-.26.23-.38.09.11.19.23.3.36-.14.1-.31.23-.46.34v.31c.17,0,.32.02.49.03v.5c-.2.02-.21,1.16-.18,1.53.11-.07.23-.1.25-.16.1-.31.24-.06.35-.04.35-.35,1.39-1.62,1.59-2.03.3-.08.54-.15.74-.2.09-.25.16-.45.24-.67q.27.24.57.26c.07-.21.02-.5.36-.51.05.04.1.09.13.12.16-.15,2.37-1.93,2.53-2.08,0-.6,0-.6.47-.99.14-.12.29-.26.46-.32.14-.04.32,0,.45-.09.28-.19.54-.2.82,0,.08.05.18.07.24.1.14-.09.28-.17.54-.33-.11.3-.16.44-.23.61h.35c.1.2.19.38.29.58.69-.18,1.09.25,1.47.68-.04.1-.08.21-.13.35.14-.02.2-.01.25-.04.07-.03.14-.09.2-.13.31.53.31.53.76.24.1-.07.26-.05.4-.08v.39h-.06c.06,0,.12,0,.17.01.01.02.03.04.04.07-.1.02-.2.04-.26.05,0,.04,0-.04-.03-.13h-.27c.01.21.02.37.03.53h.64v-.22c.12-.02.25-.02.35-.07.13-.06.23-.18.32-.25.06.04.11.07.16.09v-.43c.12.15.18.22.17.21-.04.09-.08.16-.12.25.02.01.04.02.05.03.03-.03.05-.06.06-.09-.02.03-.04.06-.06.09.09.11.2.22.27.35.08.14.13.3.19.45h.26c.06.12.12.24.15.3-.04.14-.07.23-.13.41.2-.08.3-.16.4-.15.13,0,.26.08.38.12.09-.23.13-.43.38-.42.06,0,.12.01.2.03v.43q.42.42.81.54c-.15.11-.29.21-.47.35.16.13.29.24.41.33.07-.1.15-.23.25-.37.15.26.29.1.42.04.04.09.07.17.1.24.03.07.05.16.1.22.05.07.12.12.19.18.06.04.13.07.18.12.05.06.08.15.13.2.05.05.14.06.27.12v-.31h.31c.33.31.16.65.04,1.09.34.34.71.71,1.08,1.08-.03.06-.08.17-.14.3.17.02.29.04.4.06.03.09.06.17.08.24.06-.05.11-.09.17-.14.27.32.53.63.78.95.04.04.06.12.05.17-.05.19.07.32.13.48.01.03-.03.07-.05.11-.13.1-.28-.24-.42.04-.09-.23-.04-.55-.4-.57-.02,0-.02-.12-.05-.17-.1-.16-.2-.32-.3-.47-.09.05-.16.09-.22.13.15.36.3.71.45,1.08h.32c.02.17-.02.38.06.45.26.22.47.52.84.59.04-.11.07-.19.1-.29.07.14.21.32.18.35-.12.14-.16.3-.06.41.13.14.09.28.09.43,0,.07-.06.16-.12.21-.18.13-.13.31-.14.47h.29c-.06.36-.12.66-.15.97-.02.21-.11.31-.31.36-.1-.09-.2-.17-.31-.27q-.16.24-.11.55h.33c-.26.36-.51.68-.77,1.03-.04-.11-.06-.19-.1-.3-.11.16-.19.39-.3.41-.28.05-.12.23-.17.35,0,.02-.06.03-.1.05-.02-.13-.04-.25-.06-.4-.07.06-.12.1-.17.14-.04-.04-.09-.08-.16-.15-.06.12-.11.23-.17.33-.07.12-.16.24-.22.37-.09.23-.19-.05-.28.01-.02.12-.04.24-.09.5-.05-.28-.08-.41-.11-.54-.06.17-.13.38-.05.48.14.19.06.36.07.52-.22.06-.41.11-.6.16,0,0-.03-.03-.07-.07v-.28c-.07,0-.14-.03-.15-.02-.09.16-.22.26-.37.35-.16.1-.3.26-.42.41-.06.07-.07.18-.09.27,0,0,0,0,0,0,.19,0,.24-.06.78.11-.52-.09-.75.38-1.18.63.05-.22-.15-.44.17-.45.16,0,.06-.17.12-.25-.07.01-.14.03-.18.07-.11.12-.17.35-.29.39-.27.09-.37.37-.6.47-.21.09-.35.27-.47.4-.16.18-.31.39-.49.58-.18.19-.38.36-.56.56-.17.2-.42.28-.62.42-.19.14-.33.36-.49.55-.03.03-.07.09-.09.09-.29-.05-.41.19-.6.32-.11.08-.27.1-.4.14,0,.09.04.2,0,.26-.34.47-.68.94-1.18,1.26-.16.11-.23.31-.43.36-.04,0-.09.06-.09.09.04.29-.29.2-.37.36-.09.19-.22.35-.34.53h-.6c-.12.17-.19.41-.34.47-.62.22-.92.81-1.39,1.18-.18.14-.3.42-.48.56-.24.18-.38.42-.58.62-.21.19-.41.4-.61.61-.11.11-.26.2-.31.33-.09.24-.27.34-.47.47-.2.13-.32.38-.48.58-.02.03-.07.05-.11.06-.44.07-.78.35-1.17.53,0,0-.43.47-.43.47.08.04.17.08.24.12-.19.3-.32.63-.64.81-.03.02,0,.13,0,.19h-.02c0,.08.01.17.02.25-.03,0-.06,0-.09.01-.02-.09-.03-.17-.05-.26.02,0,.03,0,.05,0h-.25c-.32-.36-.73-.64-.9-1.14-.06-.18-.3-.3-.46-.44-.08-.07-.23-.1-.25-.17-.12-.47-.66-.55-.84-.96-.32.01-.33-.36-.58-.48-.24-.12-.41-.39-.61-.59-.11-.11-.2-.27-.33-.31-.45-.12-.7-.48-1-.76-.2-.18-.38-.38-.57-.57-.08.08-.13.13-.18.18.07.24.44.29.37.62-.54-.04-.77-.5-1.1-.77h-.6c-.04.24.09.33.27.37.35.07.52.3.69.66,0-.02,0-.04.01-.06.14.11.24.18.41.3h-.47c.02-.08.03-.15.05-.24-.17,0-.36.01-.36,0-.04-.35-.39-.25-.58-.38-.12-.09-.22-.15-.31-.28-.18-.24-.37-.49-.62-.65-.23-.14-.51-.22-.66-.45-.18-.27-.5-.3-.73-.47-.21-.15-.37-.37-.55-.56-.01.03-.03.05-.04.08-.26-.09-.53-.18-.83-.29,0,.07-.02.16,0,.23.02.06.11.09.17.13.03.02.09.06.08.08-.07.3.19.42.35.59.21.23.43.44.63.63.13.03.31.02.32.07.11.39.65.33.74.73.43-.05.5.3.62.61-.06.06-.13.14-.13.14-.48-.02-.71-.31-.97-.57-.11-.11-.21-.23-.34-.3-.23-.11-.49-.19-.61-.41-.14-.27-.48-.1-.62-.33-.03-.05-.14-.04-.32-.09.12.36.37.48.51.68.05.07.06.17.09.25-.28-.04-.48-.14-.64-.29-.21-.18-.39-.39-.66-.48-.09-.03-.22-.09-.25-.17-.09-.27-.39-.28-.53-.48-.01-.02-.11.03-.17.04.08.17.38.22.22.48-.35-.17-.55-.34-.75-.59-.06-.08-.16-.14-.24-.2-.25-.18-.5-.37-.77-.55-.16-.11-.34-.18-.52-.27.21.36.46.66.76.89.41.32.45.62.38,1.12-.01.09,0,.18,0,.26,0,0,0,0-.01,0,.06.09.1.16.15.23-.21.09-.25,0-.25-.22-.04,0-.07,0-.07,0-.12-.47-.68-.5-.89-.88-.29-.01-.24-.39-.53-.46-.22-.05-.4-.25-.73-.46.1.27.12.42.2.52.2.23.44.43.64.66.18.2.32.43.48.64-.11.1-.18.16-.24.22-.45-.34-.85-.75-1.36-1.04-.09.27,0,.51.19.51.3,0,.42.21.58.37.15.14.28.31.38.49.15.26.3.52.55.69.23.15.26.39.31.6.03.13-.05.29-.08.45.41.35.69.84,1.2,1,.14-.06.25-.1.38-.16-.06.19-.1.32-.12.4.2.2.37.36.55.54.08-.04.19-.1.23-.11.13.07.22.12.44.23-.45-.03-.55.44-.89.26-.05-.1-.08-.2-.15-.27-.11-.13-.25-.24-.37-.38-.11-.13-.38-.11-.37-.36-.43-.1-.62-.61-1.13-.62-.25,0-.52-.15-.69-.4-.06-.1-.19-.15-.28-.22-.05.04-.08.05-.08.07-.1.34.41.37.37.68-.05.06-.09.1-.19.21h.85c.22.51.65.82,1.07,1.15.15.11.35.16.44.39.08.18.33.36.53.41.25.07.27.34.42.41.44.2.7.52.83.94-.1.1-.19.19-.28.28.18.24.3.47.48.64.19.18.46.28.46.6-.04.04-.08.09-.11.12.14.11.32.21.43.35.11.14.24.14.37.13-.07-.12-.12-.22-.18-.32.18.03.35.1.23.32.02,0,.03,0,.05,0,.01.27.13.48.33.65.16.14.34.24.5.38.29.25.39.32.73.4.11-.33-.23-.31-.41-.52.18.03.35,0,.41.08.41.51,1.11.69,1.45,1.28.05.1.25.11.37.16.16.28.32.55.47.83-.27-.13-.45-.33-.66-.5-.07-.06-.19-.07-.29-.1.17.42.45.72.86.87.13-.09.21-.14.3-.2.07.18.02.23-.13.25,0,0,.02,0,.03,0,.12.14.23.28.36.44.1-.07.17-.12.25-.17.06.07.14.14.18.23.01.03-.06.09-.11.15-.03-.04-.06-.07-.09-.11-.01.01-.03.03-.04.04.04.03.07.06.11.09,0,0,0,0,.01-.01v.24c.21-.11.38-.21.54-.29q.52.51.52.65c-.09.04-.18.08-.31.14.09.11.16.21.24.32.07-.08.1-.11.15-.16.21.59.89.54,1.19.97.15-.07.26-.13.36-.17.23.42.58.58,1.01.58v.54c.22-.24.33.15.55,0,.28-.19.3.27.53.22.02,0,.05,0,.06,0,.22.13.44.2.67.03.12.14.31.16.39.05.13-.17.21.12.29,0,.07-.12.35-.01.29-.27,0-.01.1-.06.16-.07.45-.08.81-.37,1.23-.52.24-.09.39-.27.58-.41.1-.07.56-.4.66-.39.16.02.32.08.44.11.22-.21.43-.4.66-.61v-.71c.1.06.17.1.24.14.09-.07.17-.14.26-.2-.04-.05-.08-.1-.14-.16.07-.14.14-.29.24-.49.1.23.17.4.26.6.1-.16.23-.29.27-.44.04-.2.3-.22.29-.32-.01-.23.1-.28.26-.36.08-.04.15-.17.15-.26,0-.19.11-.26.24-.35.09-.06.25-.11.25-.16,0-.33.28-.46.42-.69.4-.61.48-.72.91-.9,0-.21.34-.38.07-.65-.3.13-.49.38-.65.71-.05-.14-.07-.21-.11-.32-.39.53-.73,1.07-1.37,1.39v-.48c.15-.12.34-.2.35-.3.02-.24.19-.42.24-.63.07-.28.4-.23.47-.46.11-.34.38-.46.68-.57.09-.03.18-.13.24-.22.11-.17.27-.28.41-.41.34-.32.7-.64.92-1.05.24-.46.73-.72.94-1.19.24-.03.43-.2.46-.39.04-.28.37-.21.41-.42.05-.23.34-.22.38-.36.07-.24.24-.39.41-.48.19-.11.27-.29.4-.43.15-.16.27-.35.36-.46-.04-.21-.07-.35-.09-.48.08-.02.12-.03.15-.05.35-.23.6-.54.79-.95.04-.09.14-.23.2-.23.2.01.31-.1.46-.19.14-.1.35-.1.56-.15-.07-.14-.12-.27-.18-.4.46-.12.8-.39,1.08-.73.09-.06.17-.12.26-.18-.29-.28.11-.49.01-.72.36-.08.57-.26.74-.55.2-.34.49-.63.79-1,.04.25.06.42.1.66.36-.39.08-.98.63-1.27h.75c-.16-.15-.25-.24-.35-.33v-.27c.14-.03.26-.05.38-.07-.04-.23.02-.38.22-.47.03.1.06.17.09.26.22,0,.33-.13.34-.31.02-.22-.12-.37-.29-.49-.05-.03-.08-.07-.07-.06.14-.14.26-.26.38-.38-.01-.01.02.02.05.05.14-.19.28-.37.42-.56.12-.16.47-.11.43-.4-.04-.33.42-.2.4-.5-.05-.1-.1-.21-.18-.36.21-.02.38-.03.53-.05.05-.13.1-.25.21-.5-.25.18-.38.28-.47.34-.15-.15-.3-.31-.44-.45.14-.09.43-.1.29-.5-.15.12-.25.24-.38.3-.16.09-.24,0-.21-.18.29-.13.6-.24.66-.63.04-.29.09-.57.14-.88h.58c.07-.11.1-.22.18-.27.24-.15.51-.26.75-.41.05-.03.03-.16.05-.29-.1.08-.15.12-.2.16q-.02-.31.15-.47c.11.03.2.06.31.09v-.34c-.11-.08-.19-.14-.31-.22.22-.11.41-.16.53-.28.12-.12.1-.39.34-.37.1.07.18.13.28.19-.22.21-.39.37-.58.55.03.11.05.22.09.41.17-.21.27-.37.39-.49.14-.13.32-.21.45-.34.13-.13.24-.29.35-.43.24.3.25.31.06.56-.18.24-.36.47-.56.69-.2.23-.44.43-.63.67-.17.21-.44.35-.53.63-.51.24-.79.73-1.2,1.06,0,.12.01.23.02.33.07-.35.39-.36.64-.54v.53h.29c-.06-.3-.11-.58-.17-.89.47,0,.53-.65,1.02-.55.08-.19.16-.35.2-.44.19-.09.32-.15.45-.21,0,0,.03.03.05.05.01.1.02.21.04.36.13-.02.28,0,.36-.08.27-.22.45-.28.75-.19.2-.48.42-.95.87-1.27-.05-.21-.09-.39-.16-.68.27.17.43.27.65.41.04-.27.06-.48.12-.67.06-.21.22-.49,0-.77.1-.07.21-.15.24-.18ZM48.59,22.48c.21-.14.31-.43.72-.5-.2.35-.25.7-.66.86-.02-.13-.04-.23-.06-.37ZM51.75,23.54c-.05-.11-.1-.17-.1-.23,0-.03.11-.1.12-.1.06.04.11.1.13.16,0,.02-.07.08-.15.17ZM52.55,27.15s-.04,0-.07,0c-.02-.07-.03-.15-.05-.22.04,0,.08,0,.11,0v.22ZM53.47,26.31c-.05-.11-.1-.17-.1-.23,0-.03.11-.1.12-.1.06.04.11.1.13.16,0,.02-.07.08-.15.17ZM53.92,24.32c-.01-.17-.02-.29-.04-.53.13.13.2.19.27.26-.08.09-.13.15-.23.27ZM54.47,24.24s-.03-.03-.04-.04c.03-.02.06-.03.09-.05.02.02.03.03.05.05-.03.01-.06.03-.09.04ZM54.33,21.75c-.13.05-.28.08-.41.14-.13.06-.16-.1-.31-.08-.42.06-.76.3-1.18.37-.28.04-.51.34-.76.54-.32.26-.61.54-.93.79-.12.1-.37.09-.44.2-.36.58-1.11.8-1.36,1.49-.07-.4.08-.75.2-1.14-.07-.03-.15-.05-.27-.09.02-.18.02-.35.11-.57.21-.51.55-.93.87-1.36.26-.34.56-.65.83-.98.03-.04.03-.11.06-.26-.16.07-.25.15-.35.16-.07,0-.15-.07-.2-.21.16-.02.32-.04.5-.06.02-.06.05-.14.07-.2.81.16,1.37-.51,2.1-.63-.08-.08-.14-.14-.23-.22-.21.08-.44.16-.7.26,0-.11-.01-.23-.02-.35.15-.03.28-.05.45-.07-.09-.14-.15-.24-.23-.38-.06.11-.1.2-.14.29-.06-.06-.12-.12-.17-.16.1-.13.21-.25.33-.4.08.05.15.09.23.14.15-.33.34-.6.71-.18-.14.11-.29.2-.5.1v.37c.07,0,.18.03.23,0,.3-.19.62-.12.94-.12.08,0,.16.06.31.13-.17-.45-.5-.39-.81-.4v-.42c.3.08.57.32.83.02q.5.32.33.6c.23.11.42.23.54.49.08.2.25.4.55.37.09,0,.19.07.28.11.24.12.47.24.72.37v.25c-.15.18-.3-.19-.43.04-.13-.09-.26-.19-.49-.35.04.2.03.32.09.37.13.13.29.24.46.37-.05.23-.2.33-.46.28-.08-.13-.17-.27-.29-.45-.24.26-.48.19-.75.07-.2-.09-.34.15-.64.25.31.12.49.2.78.32-.22.1-.34.16-.46.21ZM56.31,22.82c-.1-.05-.2-.11-.31-.15-.12-.04-.28,0-.36-.07-.13-.11-.24-.28-.32-.44-.09-.19-.3-.29-.49-.53.25,0,.4-.05.47,0,.23.19.45.38.77.37.03,0,.07.06.07.09-.01.32.29.08.36.19.11.25,0,.39-.19.53ZM57.26,21.88s.04.03.04.04c0,.03-.03.06-.04.09-.01-.01-.03-.03-.05-.05.02-.03.03-.06.05-.09ZM57.12,28.94c-.11-.32.05-.4.32-.48.06.33-.12.38-.32.48ZM64.65,27.45s.06.07.09.11c0,0-.02.02-.03.03-.04-.03-.07-.06-.11-.09.01-.01.03-.03.04-.04ZM63.98,26.63c0,.27.57.29.29.68-.21-.24-.47-.43-.57-.8.1.04.28.08.28.12ZM63.62,28.88c.07.15.13.28.16.34-.09.16-.14.26-.23.42-.21-.26-.37-.47-.58-.73.25-.01.46-.02.65-.03ZM63.27,30.34c-.03.06-.1.09-.16.14-.03-.04-.1-.1-.09-.13.01-.06.07-.11.15-.2.06.1.12.17.1.2ZM62.85,28.1v.54q-.35-.17-.29-.54h.29ZM62.73,30.17s-.03.03-.04.04c-.01-.03-.03-.06-.04-.09,0-.01.03-.03.04-.04.01.03.03.06.04.09ZM62.59,29.02v.26h-.07v-.26h.07ZM60.61,24.2c-.05-.11-.1-.17-.1-.23,0-.03.11-.1.12-.1.06.04.11.1.13.16,0,.02-.07.08-.15.17ZM60.91,31.15s-.06.07-.09.11c-.01-.01-.03-.03-.04-.04.04-.03.07-.06.11-.09.03-.04.06-.07.09-.11.01.01.03.03.04.04-.04.03-.07.06-.11.09ZM61.39,30.26c-.14-.09-.24-.15-.43-.26.2-.03.32-.05.48-.07-.02.13-.03.2-.05.33ZM61.11,29.01c.36,0,.41.17.49.4-.32.02-.39-.14-.49-.4ZM61.78,31.11s-.04,0-.04,0c-.02-.07-.03-.14-.05-.21.05,0,.09,0,.14,0-.01.07-.03.14-.05.21ZM61.73,30.47v-.26h.07v.26h-.07ZM61.7,28.35c-.06-.03-.09-.1-.14-.16.04-.03.1-.1.13-.09.06.01.11.07.21.15-.1.06-.17.12-.2.1ZM61.58,27.74c.17-.17.24-.24.31-.31.07.07.14.15.24.25-.08.1-.16.19-.17.2-.12-.05-.22-.09-.38-.15ZM62.1,28.93c.07-.02.15-.03.22-.05,0,.04,0,.08,0,.11h-.22s0-.04,0-.06ZM62.26,30.85s-.03-.03-.04-.04c.03-.02.06-.03.09-.05.02.02.03.03.05.05-.03.01-.06.03-.09.04ZM62.35,27.76c.01-.06,0-.14.05-.17.03-.03.11-.01.17-.01.02,0,.03.03.05.04-.03.03-.05.07-.08.09-.06.03-.12.03-.18.05ZM62.5,30.52c.07-.02.15-.03.22-.05,0,.04,0,.08,0,.11h-.22s0-.04,0-.07ZM62.81,32.32c-.16-.13-.27-.28-.15-.51.21-.06.3.08.35.25.04.16-.15.16-.2.26ZM63.09,32.31s-.06-.07-.09-.11c0,0,.02-.02.03-.03.04.03.07.06.11.09-.01.01-.03.03-.04.04ZM63.93,33.4s-.07-.06-.11-.09c.01-.01.03-.03.04-.04.03.04.06.07.09.11,0,0-.02.02-.03.03ZM64.16,33.15c-.08-.09-.13-.15-.21-.24.1-.07.2-.15.3-.22.04.03.07.06.11.1-.06.11-.12.23-.2.36ZM64.33,31.79s-.09-.06-.13-.09c.04-.05.08-.12.14-.16.02-.01.09.05.2.1-.09.07-.14.13-.21.15ZM65.23,34.94c-.18-.16-.29-.26-.4-.36.02-.04.04-.08.06-.12h.34v.48ZM65.02,32.28s.03-.06.04-.09c.01.01.03.03.05.05-.02.03-.03.06-.05.09-.01-.01-.04-.03-.04-.04ZM65.27,31.53c-.08-.16-.13-.34-.2-.52-.37-.08-.1.31-.31.4-.11-.08-.24-.17-.36-.26-.1.09-.21.18-.38.33-.03-.13-.05-.21-.07-.29h0c-.17-.09-.25-.14-.36-.19-.08.13-.17.26-.26.39-.04,0-.11,0-.12-.02-.05-.16-.14-.28-.36-.32.08-.11.15-.22.2-.3.12.05.22.09.45.17-.13-.16-.16-.2-.2-.26.17-.17.32-.05.47.05.03-.08.06-.15.09-.23.03.02.08.03.08.05,0,.18,0,.36,0,.59h.23c.02-.16.03-.32.05-.49.09-.04.18-.07.38-.15-.43-.22-.71-.45-.79-.82.15-.13.29-.25.45-.38.12.05.1.3.34.33.24.03.07.31.18.44.11.01.21.02.31.04q.07.33.54.69c-.05.29-.1.57-.16.91-.08-.06-.17-.09-.2-.16ZM65.46,33.25s-.03-.06-.04-.09c0-.01.03-.03.04-.04.02.03.03.06.05.09-.02.02-.03.03-.05.05ZM65.59,32.99s-.03-.03-.05-.05c.02-.03.03-.06.05-.09.01.01.04.03.04.04,0,.03-.03.06-.04.09ZM65.61,32.72c-.04-.24-.22-.5.15-.72-.06.31-.11.51-.15.72ZM66.96,38.25s-.04,0-.06,0c-.02-.07-.03-.15-.05-.22.04,0,.08,0,.11,0v.22ZM33.19,55.04s-.04-.11-.09-.23h.39c-.17.27-.18.28-.3.23ZM33.71,55.44s-.03-.03-.05-.05c.03-.01.06-.03.09-.04.01,0,.03.03.04.04-.03.02-.06.03-.09.05ZM34.13,55.86s-.03-.06-.04-.09c0-.01.03-.03.04-.04.02.03.03.06.05.09-.02.02-.03.03-.05.05ZM34.92,55.2s.03.06.05.09c-.02.02-.03.03-.05.05-.01-.03-.03-.06-.04-.09,0-.01.03-.03.04-.04ZM35.16,58.08s-.03-.03-.04-.04c.03-.01.06-.03.09-.04.01,0,.03.03.04.04-.03.01-.06.03-.09.04ZM34.86,56.46c.07-.09.13-.15.19-.22.08.16.15.31.26.53-.27-.05-.33-.23-.45-.31ZM72.42,36.05s.05,0,.07,0c.02.12.03.24.05.35-.04,0-.08,0-.12,0v-.35ZM71.77,35.5h.07v.4h-.07v-.4ZM71.77,35.99q.28.33,0,.45v-.45ZM71.5,35.52s.04,0,.06,0c.02.07.03.15.05.22-.04,0-.08,0-.11,0v-.22ZM70.77,36.27s.02-.08.04-.11c.05-.05.11-.09.17-.13.03.07.11.16.09.2-.01.02-.02.04-.03.05.33.05.59.14.64.43.06.33.36.42.54.62.24.27.34.57.46.87-.18.2-.29.03-.36-.08-.1-.16-.12-.37-.38-.37-.04.09-.08.18-.13.28-.05-.15-.08-.29-.15-.42-.05-.11-.14-.2-.23-.32.12-.04.2-.07.29-.1-.22-.28-.44-.57-.69-.89-.09.15-.21.29-.34.47-.14-.19-.23-.33-.34-.48.08-.13.16-.14.43-.02ZM72.26,38.46s-.07.06-.11.09c0,0-.02-.02-.03-.03.03-.04.06-.07.09-.11.01.01.03.03.04.04ZM71.79,38.69c-.04-.09-.08-.19-.11-.27.21-.06.19.08.11.27ZM71.08,36.89s-.06.03-.09.04c-.01,0-.03-.03-.04-.04.03-.02.06-.03.09-.05.02.02.03.03.05.05ZM70.19,35c-.05.21-.05.29-.08.34-.02.03-.11.02-.28.03.13-.13.2-.2.36-.38ZM70.03,35.86s-.08,0-.12.01v-.35s.04,0,.07,0c.02.12.03.23.05.35ZM68.94,34.99v.22s-.04,0-.06,0c-.02-.07-.03-.15-.05-.22.04,0,.08,0,.11,0ZM68.36,34.44c.06.11.11.21.19.37-.05.03-.12.09-.2.14-.06-.06-.12-.12-.17-.17.06-.12.12-.23.18-.34ZM68.44,38.51s-.08,0-.11,0v-.22s.04,0,.06,0c.02.07.03.15.05.22ZM67.73,34.2s.03.03.05.05c-.03.01-.06.03-.09.04-.01,0-.03-.03-.04-.04.03-.02.06-.03.09-.05ZM67.34,38.01h-.07v-.26h.07v.26ZM67.38,34.6c.04-.05.08-.12.14-.16.02-.01.09.05.2.1-.09.07-.14.13-.21.15-.03,0-.09-.06-.13-.09ZM67.74,38.67v.4h-.07v-.4h.07ZM67.52,39.67s.07-.06.11-.09c0,0,.02.02.03.03,0,0,0,0,0,.01.45-.21.36-.62.41-.97.46.1.41.63.78.73,0,.24-.41.52.09.67.04.01.03.19.04.29-.11.05-.2.09-.31.13.07.13.12.21.17.3,0,.1-.39.54-.61.69-.18-.35.19-.56.22-.9-.2.02-.4.03-.64.05,0-.16-.02-.36-.03-.55.26-.04.34-.17.24-.43h-.36s-.06.06-.08.1c-.01-.01-.03-.03-.04-.04ZM68.96,41.68c-.1.05-.21.12-.46.25.11-.29.18-.44.25-.64.08.15.13.26.2.39ZM68.31,42.34s-.08,0-.11,0v-.22s.04,0,.06,0c.02.07.03.15.05.22ZM68.01,43.28h-.63c-.02-.26.1-.37.33-.37.12.28.34-.2.47.1-.06.08-.13.18-.18.26ZM67.99,44.66q-.19-.26-.18-.54.21.04.18.54ZM67.62,44.8s-.03.06-.04.09c-.01-.01-.03-.03-.05-.05.02-.03.03-.06.05-.09.01.01.04.03.04.04ZM66.41,43.06h.24c.12-.19.05-.45.33-.58.18-.09.24-.4.41-.56.15-.15.37-.25.62-.4.02.21.04.37.05.51-.29.23-.55.44-.8.63v.31c-.21.07-.42.14-.65.22v.43c-.13.07-.24.12-.36.18-.05-.03-.11-.08-.17-.13.09-.17.2-.37.34-.62ZM66.74,43.7v-.47c.1.18.17.29.24.43-.07.01-.14.03-.24.04ZM66.96,47.22s-.03.03-.04.04c-.01-.03-.03-.06-.04-.09,0-.01.03-.03.04-.04.01.03.03.06.04.09ZM66.35,46.36c-.01-.1-.02-.17-.04-.27h.41c-.02.1-.03.17-.06.28-.07-.08-.11-.13-.15-.18-.05.05-.1.09-.17.16ZM66.2,49.69v-.42c.07,0,.16-.04.18-.02.1.13.1.13-.18.44ZM66.04,43.68s.02.02.03.03c-.03.04-.06.07-.09.11-.01-.01-.03-.03-.04-.04.04-.03.07-.06.11-.09ZM65.84,46.49s.06.03.09.05c-.01.01-.03.04-.04.04-.03,0-.06-.03-.09-.04.01-.01.03-.03.05-.05ZM65.33,47.5c-.09.09-.15.16-.17.15-.06-.02-.12-.08-.16-.13,0-.01.06-.12.1-.12.06,0,.12.05.23.1ZM65.2,48.99c-.09-.12-.29-.16-.15-.41.09.12.29.16.15.41ZM65.18,44.87q-.17.32-.44.4c0-.25.12-.37.44-.4ZM65.23,50.16c-.04.15-.07.26-.11.43q.47-.22.26-.76c.15-.1.3-.2.51-.34.01.23.02.43.04.63-.38-.01-.18.38-.38.5-.19.11-.37.25-.6.41-.1-.16-.19-.29-.29-.44.15-.1.24-.39.57-.42ZM64.31,46.49v.22s-.04,0-.07,0c-.02-.07-.03-.15-.05-.22.04,0,.08,0,.11,0ZM64.27,48.78c-.06-.14-.1-.23-.15-.31.21-.06.25.04.15.31ZM64.34,49.52c.07-.11.17-.21.26-.31.15.34.12.58-.19.7-.15.06-.3.16-.41.28-.1.1-.14.25-.23.41-.1-.12-.18-.2-.28-.31.16-.1.28-.17.39-.25.22-.16.34-.31.47-.52ZM63.91,48.94s-.11.04-.22.08v-.39c.27.19.28.19.22.31ZM63.59,45.23s.1.1.14.14q-.18,0-.14-.14ZM63.57,46.23s.05,0,.07,0c.02.12.03.24.05.35-.04,0-.08,0-.12,0v-.35ZM63.3,49.12c.27-.03.35.12.4.37-.14.01-.26.02-.4.03v-.4ZM62.49,46.89c.23.18.38.29.59.46-.27.13-.46.23-.8.4.12-.24.18-.33.21-.44.02-.1,0-.2,0-.43ZM63.11,50.97v.26h-.07v-.26h.07ZM62.38,50.35c.09-.09.2-.2.31-.31.03.03.07.05.1.08-.11.2-.23.39-.41.71v-.48ZM62.33,49.45c-.05-.11-.1-.17-.1-.23,0-.03.11-.1.12-.1.06.04.11.1.13.16,0,.02-.07.08-.15.17ZM62.28,46.47c-.12.13-.19.19-.26.27-.13-.24-.02-.28.26-.27ZM60.91,53.13c.42-.22.39.33.68.34-.23.24-.46.09-.68.17v-.51ZM60.79,52.24s0-.04,0-.04c.07-.02.14-.03.21-.05,0,.05,0,.09,0,.14-.07-.01-.14-.03-.21-.05ZM61.46,53.08s0-.09,0-.14c.07.01.14.03.21.05,0,0,0,.04,0,.04-.07.02-.14.03-.21.05ZM61.44,51.44s.07-.06.11-.09c0,0,.02.02.03.03-.03.04-.06.07-.09.11-.01-.01-.03-.03-.04-.04ZM61.59,51.4q-.02-.26.43-.83c.16.19-.03.33-.04.49-.03.31-.38.08-.39.34ZM61.92,48.19c0,.16.18.37-.22.41,0-.21-.12-.42.22-.41ZM61.71,49.59c-.05.16-.07.24-.09.32-.02-.06-.05-.12-.06-.19,0-.02.05-.05.15-.14ZM60.65,49.45c.17-.11.33-.22.51-.34,0,0,0,0,0,0,.03-.04.06-.07.09-.11.01.01.03.03.04.04-.04.03-.07.06-.11.09,0,0,0,0-.01-.01v.32c-.16.11-.33.21-.51.33v-.32ZM60.81,50.68c.21-.09.33-.42.49-.64.01-.2.16-.11.26-.13-.02.1.07.25-.13.26-.05.46-.34.73-.79,1.01.05-.23-.16-.37.17-.51ZM56.22,52.17c-.1.12-.2.24-.3.35-.06-.05-.12-.11-.18-.16.13-.19.29-.26.48-.19ZM48.8,58.24s.03.06.04.09c0,.01-.03.03-.04.04-.01-.03-.03-.06-.04-.09,0-.01.03-.03.04-.04ZM48.14,60.09s.03.06.05.09c-.02.02-.03.03-.05.05-.01-.03-.03-.06-.04-.09,0-.01.03-.03.04-.04ZM43.5,56.54s.06.03.09.05c-.01.01-.03.04-.04.04-.03,0-.06-.03-.09-.04.01-.01.03-.03.05-.05ZM42.92,56.15h.26v.07h-.26v-.07ZM42.5,55.48s0,.04,0,.07c-.07.02-.15.03-.22.05,0-.04,0-.08,0-.11h.22ZM42.14,54.92s.07.06.11.09c-.01.01-.03.03-.04.04-.03-.04-.06-.07-.09-.11,0,0,.02-.02.03-.03ZM42.17,57.6c-.08.15-.13.25-.22.42-.11-.17-.19-.29-.27-.42h.5ZM41.93,55.72s.03.06.04.09c0,.01-.03.03-.04.04-.02-.03-.03-.06-.05-.09.02-.02.03-.03.05-.05ZM41.5,57.32c.11.07.2.13.38.25-.33.01-.49,0-.38-.25ZM41.15,58.7c-.06-.03-.15-.07-.32-.15q.36-.02.32.15ZM41.05,56.92c-.34-.03-.43-.32-.62-.5.31,0,.53.14.62.5ZM40.56,58.03c.06.1.12.17.1.2-.03.06-.1.09-.16.14-.03-.04-.1-.1-.09-.13.01-.06.07-.11.15-.21ZM39.5,56.87c.39.14.47.54.86.65-.12.13-.19.21-.27.3-.18-.2-.35-.4-.61-.69,0-.03,0-.13.02-.27ZM37.79,55.08s.04,0,.06,0c.02.07.03.15.05.22-.04,0-.08,0-.11,0v-.22ZM35.51,57.42c.02-.27.02-.39.03-.57.16.09.26.15.4.24-.13.1-.23.17-.44.33ZM36.25,57.81c-.11-.06-.23-.12-.49-.27q.46-.08.7.1c-.07.05-.13.11-.2.16ZM36.38,56.06c.06.14.1.23.15.31-.21.06-.25-.04-.15-.31ZM37.06,58.71c-.25-.18-.44-.3-.5-.54.48-.07.53-.02.5.54ZM36.73,56.56s.03-.03.04-.04c.01.03.03.06.04.09,0,.01-.03.03-.04.04-.01-.03-.03-.06-.04-.09ZM37.41,57.42c-.02-.06-.03-.14-.07-.21-.05-.07-.13-.12-.18-.19-.04-.06-.04-.14-.06-.21.22.22.42.42.61.61h-.3ZM37.92,57.95v-.39c.28.02.38.16.37.39h-.37ZM38.4,63.24s-.04,0-.07,0c-.02-.07-.03-.15-.05-.22.04,0,.08,0,.11,0v.22ZM38.33,58.23c-.02-.09-.03-.17-.05-.26.04,0,.08,0,.11,0,0,.08.01.17.02.25-.03,0-.06,0-.09.01ZM38.75,63.69c-.06-.1-.11-.18-.18-.28.17-.03.33-.07.18.28ZM39.22,62.53s.06-.03.09-.05c.02.02.03.03.05.05-.03.01-.06.03-.09.04-.01,0-.03-.03-.04-.04ZM39.32,62.82c.24-.21.3.03.36.2-.11-.06-.23-.13-.36-.2ZM39.44,58.26c-.21-.22-.42-.45-.65-.65-.32-.27-.66-.52-1.01-.8v-.21s-.06-.07-.1-.08c-.27-.08-.49-.23-.68-.44-.19-.21-.39-.41-.61-.61-.18-.16-.26-.4-.5-.52-.18-.09-.13-.28-.02-.48.13.11.25.2.35.3.28.26.55.51.89.7.22.12.43.34.63.54.25.27.54.5.8.76.25.25.46.55.73.77.26.21.45.45.63.72-.19.15-.33.13-.47-.01ZM41.15,64.17s.02,0,.03,0c-.3-.1-1.19-.73-1.3-.94-.01-.02.03-.07.05-.1.74.27,1.13.59,1.26,1.04.44.06.68.34,1.02.71-.49-.18-.8-.37-1.07-.72ZM44.61,67.51c-.09-.03-.18-.03-.21-.07-.23-.42-.73-.55-.97-.96-.79-.22-1.09-1.02-1.68-1.5.1.04.22.06.29.13.1.11.2.16.34.13,0-.04-.01-.09,0-.13.02-.04.06-.08.09-.11.01.04.03.07.04.11,0,.04,0,.09,0,.13.28.19.39.57.67.72.53.28.92.73,1.41,1.09v.46ZM43.85,61.08s.03-.04.04-.04c.03,0,.06.03.09.04-.01.01-.03.03-.05.05-.03-.02-.06-.03-.09-.05ZM44.24,62s.03-.04.04-.04c.03,0,.06.03.09.04-.01.01-.03.03-.05.05-.03-.02-.06-.03-.09-.05ZM45.53,67.75h-.07v-.26h.07v.26ZM45.46,63.22s0-.04,0-.04c.07-.02.14-.03.21-.05,0,.05,0,.09,0,.14-.07-.01-.14-.03-.21-.05ZM46.82,64.05s-.03-.06-.05-.09c.02-.02.03-.03.05-.05.01.03.03.06.04.09,0,.01-.03.03-.04.04ZM47.22,64.32s-.04-.03-.04-.04c0-.03.03-.06.04-.09.01.01.03.03.05.05-.02.03-.03.06-.05.09ZM48.02,70.09c-.08.08-.31.01-.59.01.15-.13.21-.2.28-.23.09-.04.17-.21.3-.02.02.02.18-.05.31-.09.04.08.11.19.16.29-.16.22-.28-.13-.46.04ZM47.55,64.65s.06-.03.09-.05c.02.02.03.03.05.05-.03.01-.06.03-.09.04-.01,0-.03-.03-.04-.04ZM47.99,64.52c.06.03.15.07.32.15q-.36.02-.32-.15ZM48.65,65.12c.25.15.64.04.79.44q-.4.06-.79-.44ZM49.7,64.23c.04-.2.1-.37.41-.26-.17.11-.29.19-.41.26ZM50.35,68.79v-.22s.04,0,.06,0c.02.07.03.15.05.22-.04,0-.08,0-.11,0ZM50.65,64.05s-.03-.03-.05-.05c.02-.03.03-.06.05-.09.01.01.04.03.04.04,0,.03-.03.06-.04.09ZM52.11,68.28s-.03-.03-.05-.05c.02-.03.03-.06.05-.09.01.01.04.03.04.04,0,.03-.03.06-.04.09ZM52.04,63.39s-.12-.06-.12-.1c0-.06.05-.12.1-.23.09.09.16.15.15.17-.02.06-.08.12-.13.16ZM53.75,66.63c-.02.07-.11.12-.2.21-.11-.22-.06-.39.21-.58,0,.17.02.28,0,.37ZM54.17,65.92s0,0-.01-.01c-.02.11.06.28-.15.26-.04,0-.11-.07-.11-.11-.02-.22.15-.13.26-.15,0,0,0,0-.01-.01.03-.04.06-.07.09-.11.01.01.03.03.04.04-.04.03-.07.06-.11.09ZM55.24,61.25v-.22s.04,0,.06,0c.02.07.03.15.05.22-.04,0-.08,0-.11,0ZM56.05,60.33c-.03-.39-.03-.39.31-.48-.04.36-.08.42-.31.48ZM56.2,56.64c-.11.23-.44.28-.56.55-.11-.05-.22-.11-.38-.19-.08.18-.15.34-.24.54-.07.02-.2.02-.3.08-.11.06-.26.17-.27.28-.03.21-.19.28-.3.41-.23.27-.63.41-.69.83-.5.24-.58.89-1.1,1.1-.31.6-.89.94-1.32,1.47-.1-.06-.18-.12-.3-.19-.14.08-.32.16-.46.27-.15.12-.27.28-.37.38h-.38c-.03-.41.44-.32.54-.64-.05-.07-.12-.17-.2-.27-.04.04-.07.09-.1.1-.32.08-.56.2-.84.44-.1-.11-.2-.23-.3-.35.12-.13.27-.29.47-.51-.19-.04-.3-.07-.45-.1-.02.14-.04.26-.06.39-.2.06-.4.13-.39.42,0,.07-.15.15-.25.25.25.01.5.03.77.04v.35c-.1.02-.22.04-.34.06-.01.04-.04.11-.03.12.22.12-.01.55.37.57.03,0,.04.65.02.81.09.04.18.08.25.12-.05.1-.09.18-.18.36.34-.06.6-.1.86-.15-.11.17-.22.35-.33.52-.04-.04-.09-.08-.13-.12-.05.04-.09.08-.14.12-.08-.08-.16-.16-.24-.24-.12.05-.27.28-.35-.04-.01-.04-.08-.1-.13-.1-.27-.02-.45-.18-.66-.32-.64-.41-1.3-.79-1.96-1.17-.09-.05-.19-.06-.29-.1-.1.08-.21.16-.3.24-.12-.13-.21-.3-.35-.36-.18-.08-.27-.16-.29-.43.2.13.36.24.52.33.09.05.19.06.28.09-.34-.37-.67-.74-1.05-1.15v-.55c-.24-.38-.47-.65-.62-.97-.15-.33-.41-.57-.67-.76-.29-.21-.42-.53-.78-.77h.41c.36.31.72.64,1.11.95.13.1.33.13.54.21-.03-.38.08-.76-.16-1.12.33-.15.54.04.74.21.24.2.43.45.77.54.15.04.27.21.38.34.29.35.68.55,1.08.72.06-.06.11-.1.14-.13.23.14.47.26.69.41.05.03.04.15.05.24,0,0,0,0,0,0,.26-.07.51-.25.66-.46.19-.25.39-.5.58-.73.38,0,.32.31.39.51.24-.04.18-.38.46-.44.15-.03.26-.31.38-.48.13-.18.26-.37.4-.58.12.09.18.14.25.19.15-.16-.07-.46.18-.58.23-.11.07-.36.23-.51.15-.14.25-.33.37-.51.04.04.07.07.14.14.11-.23.37-.32.39-.63,0-.14.16-.28.27-.41.3-.36.73-.62.94-1.07.02-.05.1-.13.14-.12.24.06.35-.12.5-.25.01-.01.09.06.18.11.02-.12.04-.24.06-.37.05,0,.14,0,.16-.03.24-.36.59-.61.87-.93.14-.16.28-.32.43-.48.11-.13.28-.21.24-.43,0-.04.05-.11.1-.13.49-.23.77-.67,1.09-1.07.11-.14.29-.22.39-.36.14-.2.4-.31.42-.61,0-.07.22-.13.38-.21.03.61-.44.83-.81,1.13.32.17.52-.07.76-.19.16.23.02.38-.16.51-.14.11-.32.35-.47.68.14-.04.25-.05.3-.1.33-.37.74-.66,1-1.1.12-.21.3-.51.67-.37.01.04.05.1.03.11-.17.17-.47.32-.5.5-.05.31-.29.42-.44.62-.15.2-.41.3-.41.63,0,.14-.24.29-.39.42-.28.26-.49.57-.71.97.14,0,.27.01.29-.02.39-.67,1.06-1.08,1.54-1.69.12.02.24.03.41.05-.19.35-.47.54-.69.77-.22.23-.46.44-.58.75-.05.13-.17.24-.26.35-.27.33-.68.55-.84.97-.33.08-.31.45-.5.64-.21.21-.44.4-.57.69ZM49.17,63.41v-.52h.31s.05.04.05.08c.03.25-.07.4-.36.44ZM48.99,62.94s-.03.03-.04.04c-.03-.04-.06-.07-.09-.11-.04-.03-.07-.06-.11-.09.01-.01.03-.03.04-.04.03.04.06.07.09.11.04.03.07.06.11.09ZM59.28,55.41q-.2.04-.17-.28c.08.13.13.21.17.28ZM57.7,55.77s-.03.06-.04.09c-.01-.01-.03-.03-.05-.05.02-.03.03-.06.05-.09.01.01.04.03.04.04ZM58.96,58.52c-.02-.15-.04-.27-.05-.39.03-.02.06-.03.09-.05.05.09.09.17.14.26-.02.02-.08.08-.18.18ZM59.28,57.27c-.26.09-.35.22-.38.5-.03.27-.44.11-.57.33-.36.62-.91,1.04-1.49,1.44-.09-.18-.08-.39.1-.45.43-.13.53-.62.91-.79.09-.4.46-.53.8-.77-.03-.39,0-.74.34-1.03.03.15.06.28.09.45.12-.06.2-.11.29-.15.01.02.05.05.05.08.03.16-.02.33-.17.38ZM59.77,56.69c-.14-.23-.25-.43-.39-.67.35-.09.42.18.55.26-.06.15-.1.24-.17.4ZM59.86,50.51c.17-.21.34-.42.52-.65q.13.36-.35.84c-.06-.06-.12-.13-.17-.19ZM60,52.11v-.32c.13-.12.28-.27.49-.46,0,.15.01.24.02.3-.18.17-.34.33-.5.48ZM60.24,53.93c.25-.12.49-.28.87-.12-.28.12-.48.22-.69.31-.06-.07-.12-.13-.18-.19ZM60.48,55.31s-.04,0-.06,0c-.02-.07-.03-.15-.05-.22.04,0,.08,0,.11,0v.22ZM60.59,57.29s-.04,0-.04,0c-.02-.07-.04-.14-.05-.21.05,0,.09,0,.14,0-.01.07-.03.14-.05.21ZM60.7,55.86s-.04-.03-.04-.04c0-.03.03-.06.04-.09.01.01.03.03.05.05-.02.03-.03.06-.05.09ZM60.9,54.37h-.26v-.07h.26v.07ZM60.95,54.79s-.03-.03-.04-.04c.04-.03.07-.06.11-.09,0,0,0,0,0,0,.05-.25.12-.48.3-.7.27.32-.05.49-.08.71h-.2s0,0,.01.01c-.03.04-.06.07-.09.11ZM61.37,55.35c-.08-.09-.15-.16-.22-.24.06-.21.17-.35.44-.31-.07.17-.14.34-.22.55ZM61.56,54.8c.03-.3.1-.37.4-.4-.13.13-.26.26-.4.4ZM61.97,54.4v-.38c.07,0,.16-.04.18,0,.2.26-.13.26-.18.39ZM62.48,53.45c.01-.07.03-.14.05-.21,0,0,.04,0,.04,0,.02.07.04.14.05.21-.05,0-.09,0-.14,0ZM62.3,52.3c-.08-.08-.14-.14-.23-.23.38-.08.41-.46.59-.7.23.26.21.25-.01.57-.09.13-.11.31-.35.36ZM63.5,53.79c.31-.11.36.07.41.26-.12-.08-.24-.16-.41-.26ZM64.05,53.13c-.16-.1-.27-.17-.4-.24.16-.08.29-.14.4-.19v.44ZM64.31,52.67c-.08,0-.16.01-.25.02.07-.14.14-.27.25-.46v.44ZM64.28,51.79c-.13-.07-.24-.12-.39-.19-.36.4-.38,1.12-1.13,1.22.02-.1.01-.22.06-.27.22-.24.46-.47.71-.72,0-.13.01-.28.02-.42.11-.08.29-.06.27-.28,0-.1.11-.21.2-.3.1-.11.21-.2.39-.36.03.2.04.32.07.43.03.12.09.23.14.35-.1.17-.21.34-.32.54ZM64.77,52.3c-.06.07-.19.07-.33.02.17-.23.34-.45.51-.67h.3c-.16.23-.3.46-.47.65ZM65.34,51.49c-.03-.29.08-.65.28-.64.39,0,.36-.5.7-.5.09-.25.31-.28.54-.33-.23.41-1.06,1.2-1.52,1.47ZM66.86,50.02v-.37q.12.22,0,.37ZM68.68,47.48c-.28.27-.52.61-.94.72-.05.01-.06.14-.11.19-.1.1-.22.17-.36.28,0,.01.04.05.09.12-.08.07-.16.15-.28.26-.09-.17-.16-.28-.22-.4.17-.07.35-.14.23-.38.45-.48.94-.87,1.58-1.22v.42ZM68.17,44.29s.06-.03.09-.04c.01,0,.03.03.04.04-.03.01-.06.03-.09.04-.01,0-.03-.03-.04-.04ZM68.68,43.8c-.25.08-.43.02-.53-.31.14-.05.33-.17.39-.12.14.1.17-.09.24-.05.2.11.21.29.14.63-.08-.23-.11-.31-.16-.46-.04.15-.06.22-.08.31ZM68.87,44.44c.11.15.18.25.29.4q-.28-.1-.29-.4ZM69.43,43.83s-.03-.06-.04-.09c0-.01.03-.03.04-.04.01.03.03.06.04.09,0,.01-.03.03-.04.04ZM70.42,43.66c.01-.07.03-.14.05-.21,0,0,.04,0,.04,0,.02.07.04.14.05.21-.05,0-.09,0-.14,0ZM71.18,41.84h-.07v-.26h.07v.26ZM71.1,40.27c-.06.22-.13.46-.2.71.12.04.19.07.29.1v.38c-.1-.13-.18-.22-.34-.41-.02.36-.03.59-.05.84-.09.11-.18.24-.3.39.13.06.22.11.33.16-.16.27-.31.53-.49.83h-.25c-.05.11-.09.2-.14.29-.07-.07-.13-.13-.18-.18.23-.3.45-.6.74-1-.19.02-.3,0-.36.05-.12.09-.22.21-.34.33-.06-.06-.12-.11-.18-.17.07-.14.15-.28.22-.43-.03-.05-.07-.12-.11-.19h-.35c-.05-.15.24-.34-.05-.46.04-.22-.04-.36-.34-.42.13-.14.24-.25.42-.43.03.34.07.57.29.7-.3.21.1.4.01.61.04-.03.09-.06.13-.1.09-.1.18-.2.27-.3-.04-.31-.09-.62-.13-.93-.04-.29-.08-.58-.12-.89h.36c.01.09.03.21.05.33.21.03.38.29.64.11-.06-.19-.06-.45-.19-.56-.14-.12-.34-.15-.35-.38-.25,0-.28-.24-.35-.37-.05-.1.05-.29.1-.51-.18.14-.3.23-.48.37-.09-.31-.17-.56-.26-.85-.03,0-.1-.04-.2-.08v-.46h-.36v-.51s.04-.02.04-.02c.09.17.36.06.39.14.1.29.54.27.49.63h.6c.02.18.04.36.06.56.08-.08.13-.12.22-.2,0,.15.01.25.02.36-.09.04-.18.09-.28.13.12.11.23.21.37.33.02-.12.03-.23.06-.41.12.1.22.18.37.3v-.54c.14.49.6.88.48,1.54-.06-.18-.09-.26-.15-.43-.06.14-.09.24-.19.48,0-.21,0,.34,0,.36.24-.08.48-.17.77-.27-.01.4.1.78-.24,1.09-.36-.09-.4-.56-.8-.65ZM72.51,41.58c-.14.13-.26.25-.41.4-.06-.1-.13-.23-.26-.44.17.06.28.1.38.14,0-.01.05-.05.05-.08-.13-.39-.14-.39.11-.86.1.08.2.15.29.22-.06.23-.11.45-.15.62ZM72,38.76c.02-.09.02-.13.03-.17,0-.02.04-.05.04-.04.2.1.4.2.64.31-.34.21-.49-.08-.71-.1ZM73.09,42.03c-.01-.17-.02-.29-.04-.53.13.13.2.19.27.26-.08.09-.13.15-.23.27ZM73.26,41.16c-.2-.12-.29-.28-.14-.51.11.11.22.22.34.34-.06.06-.13.11-.2.17ZM73.22,40.6c.18-.07.28-.1.33-.12q.03.14-.33.12ZM74.12,38.94c-.14-.3-.21-.45-.29-.61.18-.05.25.08.28.15.04.08,0,.2,0,.46Z"/>
      <path class="st0" d="M17.23,41.52s.04,0,.04,0c.02.07.03.14.05.21-.04,0-.08,0-.11,0,.03.15.09.29.16.43.07-.09.13-.18.2-.26.07-.09.14-.17.27-.32-.04.39.05.69-.12,1,.17.07.33.13.49.2.04.4-.58.5-.34,1,.06.04.15.09.23.15.22.17.51.28.58.57.05.2.19.25.32.32.09.04.21.01.29.06.09.06.13.23.21.25.26.06,0,.39.2.41.25.02.26.23.35.39.07.12.18.2.27.29.07-.07.1-.1.13-.13.25.27.51.54.76.81h.32c.02.11-.06.28.15.27.04,0,.1-.07.11-.11.02-.22-.15-.14-.25-.15-.09-.14-.21-.27-.25-.43-.15-.55-.29-.42-.81-.67-.11-.05-.03-.32-.18-.49.22,0,.46.41.49.5.06-.05.88.57,1.19.82.05-.05-.02-.65.05-.72.01-.01-.71-.73-.71-.77.09.04,1.06.58,1.25.66.19-.81.18-.74.14-.94-.01-.05,0,.2.02.13.06.06-.04-.04,0,0,.05-.04-.03.03,0,0,.23.16.24-.05.53.03.05-.11.09-.2.12-.27.12.06.22.12.35.19v.34c.24-.4.13-.33.46-.52.04-.18.22.12.31,0,.09-.11.23-.16.38-.22,0-.11.11-.37.11-.48.13.05.12-.32.25-.28-.12-.16.4.21.19-.07.21.11.07-.31.17-.3.06,0,.35-.36.4-.39-1.33-1.23-2.28-1.3-1.38-.47-.12.06-.23.12-.32.17-.08-.09-.14-.15-.22-.23.19-.1.48-.02.52-.33-.08-.21-1.22,1.31-1.03,1.26-.07-.13,0,.38-.03.59.11.1.12-.07.18-.08.1-.01.2-.01.3-.02.01-.14.02-.24.04-.34.11-.06.22-.11.32-.16.13.51.68.59.95.98.09.13.3.16.45.23-.41-.49-.74-1-.94-1.6.1-.18.3-.27.38-.51.05-.16.22-.4.49-.34.03,0,.1-.02.1-.05.05-.32.37-.42.5-.66.1-.2.23-.39.36-.56.05-.06.76.55.81.49.04-.05-.58-.77-.54-.82.11-.12.22-.25.32-.37.46-.53.95-1.03,1.44-1.53.16-.16.38-.26.52-.44.18-.22.28-.52.47-.73.19-.22.38-.45.65-.62.23-.15.36-.46.56-.67.67-.68,1.25-1.45,2.05-2.02.16,0,.35.01.54,0,.07,0,.14-.08.2-.13.02-.02.03-.06.03-.07-.09-.07-.17-.14-.33-.27.73-.09,1.06-.53,1.16-1.11.41-.14.43.21.57.4.01.02,0,.06-.01.09-.05.05-.09.1-.14.14-.05-.04-.09-.08-.16-.15-.07.14-.14.26-.2.4-.06.13-.09.27-.14.41-.2.02-.94.18-1.26.2.18.18.49.35.6.42.48.29,1.04.91,1.19,1.05.42.42,1.27,1.25,1.41,1.48.2.32.6.06.68.47.01.07.11.17.18.18.27.04.34.31.53.45.03.02.02.08.02.06-.04.18-.07.3-.1.44.36.03.46-.32.72-.43.12.35-.09.55-.2.78.06.07.12.13.2.22.05-.36.16-.04.26-.05.03-.13.06-.27.09-.39.07,0,.1,0,.11,0,.15.22.28.48.61.28.03-.02.13.08.19.14.02.02.02.06.03.09-.08.03-.16.06-.23.09.07.21.13.41.2.64.13-.2.26-.38.3-.45.11.03.23.06.3.08-.06.2-.11.32-.18.55.19-.17.3-.27.39-.35.21.06.17.32.4.37.15.03.23.36.39.44.24.13.11.27.08.46-.19-.12-.35-.23-.56-.37v.41c.29.1.57.19.84.28.04-.11.15-.19.28-.19-.04.05-.08.1-.11.15.11.16.22.34.35.48.16.17.37.29.51.47.16.2.34.23.56.21.03,0,.06.04.07.05-.1.1-.21.21-.32.32-.03-.02-.1-.06-.17-.1,0,.24-.02.49.31.55.04-.09.08-.18.13-.29.12.15.24.29.34.42-.08.12-.13.21-.16.27.26.24.5.45.74.67.03-.11.06-.18.09-.27.05.07.09.13.14.19,0-.01.02-.02.03-.03.01.01.03.03.04.04-.01.01-.02.02-.03.03.01.02.02.03.04.05.06.09.12.17.18.26.06.1.11.2.16.31.14-.07.25-.13.36-.19.09.26.17.49.24.69.13.01.27,0,.28.03.24.61.9.76,1.21,1.28.12.2.32.17.49.23.01.12.02.22.04.37.22-.04.37.08.53.23.16.15.39.21.56.35.52.43,1.05.78,1.74.78.07,0,.15.06.22.07.14.03.29.02.42.06.1.03.18.24.31.08.15-.18.2.12.36.05.48-.22,1.01-.12,1.51-.25.22-.06.42-.14.61-.25.09-.05.19-.18.25-.16.33.13.45-.27.72-.3.23-.03.45-.21.75-.36-.15-.11-.25-.19-.39-.29.13-.15.25-.28.34-.39.11.06.18.1.21.11.18-.18.32-.34.48-.5,0,0-.04-.05-.08-.1.08-.07.16-.13.24-.21.03-.03.06-.07.09-.11.09.12.18.15.31.04.09-.07.22-.07.34-.1.1-.11-.09-.34.16-.37.03-.03.04-.06.05-.1,0,.04-.03.07-.05.1.15.24.33.13.54.1-.09-.27-.17-.5-.24-.72.05-.06.1-.13.17-.23.11.25-.07.59.2.67.23-.12.42-.22.6-.31-.16-.3-.21-.49-.24-1.13,0-.04.03-.08.04-.12.16-.02.31-.04.47-.05v-.37c.07.04.15.08.3.16-.08-.2-.13-.31-.17-.43.17-.11.33-.23.53-.36v-.31c.08.04.14.07.19.1.05-.12.1-.23.15-.33-.08-.05-.18-.09-.23-.16-.07-.12-.1-.27-.17-.39-.02-.04-.14-.02-.2-.02.05.14.09.25.17.49-.2-.13-.28-.21-.37-.21-.1,0-.2.05-.31.08-.02-.13-.04-.25-.05-.35-.26-.07-.2.11-.23.23-.02.07-.1.12-.16.18-.23-.27.06-.43.05-.64-.02-.25,0-.49,0-.74.16-.2.42-.33.41-.64.26-.09.46-.23.48-.65-.28.19-.5.33-.76.5v-.73c-.19.08-.33.13-.51.2-.05-.51.36-.88.21-1.39h-.82c-.04-.12-.07-.2-.11-.33-.15.13-.27.22-.46.38.07-.37.12-.65.17-.9-.33-.21-.62-.39-.91-.56-.03-.15.09-.41-.23-.31-.02.13-.04.25-.06.4-.22-.15.07-.47-.22-.56-.3-.09,0-.42-.25-.57-.05.09-.09.21-.17.26-.1.07-.24.08-.42.12.14.18.23.29.34.43-.35.09-.52.68-.99.33-.03.08-.05.21-.09.22-.36.08-.59.42-.96.5-.23.05-.43.22-.53.49-.05.12-.18.2-.29.32-.07-.15-.11-.24-.15-.33-.08.09-.16.17-.24.26-.28-.28-.47-.07-.65.15-.05-.05-.09-.09-.15-.14-.03.09-.06.17-.09.26-.43.11-.52-.36-.82-.53h-.49c-.26-.39-.76-.56-.89-1.08-.01-.05-.1-.13-.13-.13-.23.06-.32-.17-.48-.24-.2-.09-.4-.34-.66-.05-.07.08-.27.01-.44.01.04-.2.08-.36.12-.55-.12.09-.19.13-.25.17-.35-.14-.17-.69-.61-.75-.33-.05-.37-.57-.73-.59-.08.14-.16.26-.24.4-.07-.09-.13-.15-.17-.2.08-.08.16-.17.25-.26-.15-.22-.41-.25-.47-.51-.26.24-.37.32-.53.26-.15-.06-.27-.18-.39-.29-.07-.06-.09-.18-.16-.23-.34-.3-.54-.55-.7-.96-.33.07-.56-.07-.73-.42-.1-.2-.33-.31-.38-.57-.01-.07-.16-.1-.25-.16.1-.08.19-.16.26-.22.12.08.2.13.29.2.1-.12.17-.22.26-.33-.12-.11-.2-.2-.28-.27-.22.12-.39.22-.59.32-.16-.27-.51-.36-.47-.76,0-.07-.14-.15-.21-.22-.06-.06-.13-.11-.18-.15.08-.23.46.05.39-.33-.22-.21-.37.09-.56.08-.23-.23-.46-.42-.74-.57-.27-.15-.43-.5-.65-.76-.03-.04-.12-.02-.17-.05-.07-.05-.17-.13-.16-.19.05-.49-.38-.6-.6-.88-.02-.02-.01-.06-.02-.09.05-.06.1-.1.14-.15.15.09.24.08.34-.05-.3-.23-.61-.46-.92-.69q.26-.23.39-.15c.13-.06.23-.1.37-.16-.23-.31-.41-.54-.59-.78-.09-.12-.26-.24-.26-.35,0-.22-.12-.33-.24-.44-.23-.21-.37-.56-.75-.53-.17-.27-.44-.37-.71-.48-.55-.24-1.11-.25-1.66-.04-.37.14-.71.38-1.07.53-.36.15-.57.41-.61.82-.2-.14-.38-.26-.57-.4-.08.46-.67.7-.52,1.29.34.18.33.29-.06.59-.04-.04-.09-.08-.14-.12-.29-.24-.4-.22-.6.08-.09.14-.2.27-.29.42-.05.09-.06.19-.09.29.13.04.27.09.44.15-.21.16-.36.27-.54.39v-.54c-.2,0-.37.02-.42.32-.02.13-.14.24-.22.38-.06-.03-.12-.05-.15-.09-.03-.05-.04-.12-.05-.18-.03,0-.06.01-.09.02v.5c-.19.01-.33.02-.48.03-.1.16-.21.29-.26.45-.04.14-.05.32-.01.46.04.14.15.26.28.48-.19-.07-.35-.16-.37-.14-.16.23-.23-.2-.39,0,0,.41-.64.47-.54.96.14.11.26.19.39.29-.09.09-.15.14-.18.17-.42-.16-.29-.69-.61-.98-.07.14-.12.25-.18.34-.06.1-.14.2-.21.29.07.08.11.13.18.21-.18.02-.52-.53-.66-.51v.52c-.31,0-.61-.05-.65.36-.2.12-.22.35-.27.56-.05.22-.25.31-.41.4-.07.04-.24-.1-.37-.16-.14.27-.42.35-.47.66-.02.09-.19.19-.29.19-.17,0-.17.11-.23.22-.13.24-.14.98-.23,1.23-.1.27-.45.27-.47.6,0,.1-.16.25-.26.27-.35.07-.29.41-.5.63.19.04.32.07.47.1-.07.25-.17.39-.41.35-.03.1-.03.23-.1.29-.16.16-.35.29-.5.41v.83c.16-.08.26-.14.41-.22.2.29.4.58.57.82-.08.13-.13.22-.2.35-.05-.33-.41-.4-.36-.71h-.21c0,.13-.03.28.03.34.26.27-.05.41-.11.6-.02.06-.12.07-.17.13-.37.45.46-2.08.1-1.64-.07-.05-.1-.08-.16-.12-.04.28-.1.53.17.59-.09.46-.14.98-.67,1.12-.05-.27-.09-.54-.14-.84q.3-.37.04-.74c-.28.19-.57.38-.89.59.17.13.3.22.52.38-.26-.04-.4-.07-.57-.1,0,0,0,.07-.03.12-.04.07-.87.73-.96.76-.02,0-.03,0-.05,0-.02-.1-.03-.18-.03-.14-.06.01-.16.03-.26.06.01.02.03.04.04.07.07,0,.14.01.23.02.04.36-.15.55-.42.69-.19-.25-.36-.48-.55-.72-.08.14-.14.24-.21.35.12.06.2.1.27.13-.1.21-.2.41-.3.61-.08-.13-.16-.26-.27-.43-.19.83-.24,1.32-.17,1.71.01-.06.02-.11.04-.17ZM24.73,43.6c-.06.02-.12.05-.18.06-.02,0-.04-.05-.13-.15.16.05.23.07.31.09ZM57.76,45.01h-.06v-.27h.06v.27ZM58.34,42.74c.1-.17.24-.26.4-.03.09-.09.18-.18.27-.27q.05.39-.32.61v.34c-.19.01-.11.17-.13.27-.39-.11-.45-.19-.35-.51.04-.14.07-.29.14-.41ZM57.97,40.83s.06.07.09.11c0,0-.02.02-.03.03-.04-.03-.07-.06-.11-.09.01-.01.03-.03.04-.04ZM58.16,42.42c0,.22.12.44-.17.43-.14-.15-.09-.3.17-.43ZM57.81,40.81c-.08.14-.18.3-.32.54-.13-.38-.06-.64-.09-.93.16.15.27.26.41.4ZM57.57,41.75c-.07.05-.15.11-.23.16-.03.02-.08,0-.24,0,.1-.19.16-.3.23-.43.08.08.13.15.25.27ZM57.24,40.05c.02.27.03.44.05.71-.14-.15-.18-.19-.24-.25.05-.11.1-.23.2-.46ZM57.04,45.43q.12.22,0,.38v-.38ZM56.96,41.09s.03.03.05.05c-.01.03-.03.06-.05.09-.01-.02-.04-.03-.04-.04,0-.03.03-.06.04-.09ZM45.94,40.39s-.03-.03-.04-.04c.03-.02.06-.03.08-.05.02.02.03.03.05.05-.03.01-.06.04-.09.04ZM47.83,45.15c.24,0,.35.12.39.45-.27-.09-.42-.16-.39-.45ZM55.06,37.33s.03.03.05.05c-.03.02-.06.04-.09.04-.01,0-.03-.03-.04-.04.03-.02.06-.03.08-.05ZM53.89,38.09c.18-.05.38-.27.33-.57,0-.05.1-.13.18-.21.08.09.14.16.22.25-.27.35-.32.89-.9,1.04.01-.24-.16-.41.17-.5ZM54.02,40h-.42c0-.07-.04-.16-.02-.19.2-.2.26.04.44.19ZM52.75,38.35c.03.1.05.18.1.35-.03.09-.11.33-.2.6.15-.05.27-.08.4-.12,0,0,0,.01,0,.02.11-.2.21-.37.31-.52.02-.03.13.01.25.03-.15.28-.29.47-.58.53-.07.26-.1.29-.61.81-.07-.2-.13-.37-.21-.59-.07.03-.16.06-.27.1-.04-.08-.1-.19-.17-.31.4-.16.76-.38.97-.9ZM53.45,40.82s-.07,0-.11,0c0-.09-.01-.17-.02-.26.03,0,.06,0,.08-.01.02.09.03.18.05.26ZM51.72,39.47s.03.06.05.09c-.02.02-.03.03-.05.05-.01-.03-.03-.06-.04-.09,0-.01.03-.03.04-.04ZM51.36,41.35c.06.12.13.23.19.35-.03.02-.05.05-.08.07-.04-.05-.1-.08-.13-.14-.04-.06-.05-.14-.08-.21.03-.02.07-.05.1-.07ZM50.7,39.95c.06.13.1.22.14.32-.05.03-.16.1-.27.16-.03-.04-.06-.07-.09-.11.06-.1.12-.2.22-.38ZM49.5,39.14c.16.32.27.6.63.62.19,0,.22.14.2.51-.12-.06-.24-.12-.35-.19-.1-.06-.27-.2-.29-.18-.16.17-.22.02-.33-.07-.08-.07-.19-.12-.34-.2.17-.18.31-.32.47-.49ZM47.96,38.11c.2.12.29.25.22.49.18.1.45.04.52.29.21.07.37.12.57.18-.16.17-.27.28-.38.41-.07-.18-.13-.34-.21-.54-.08.05-.15.09-.19.12-.17-.18-.33-.35-.54-.57v-.37ZM47.24,39.06s.03.06.04.09c0,.01-.03.03-.04.04-.02-.03-.03-.06-.04-.09.02-.02.03-.03.04-.05ZM45.71,36.09s.03.06.05.09c-.02.02-.03.03-.05.05-.01-.03-.03-.06-.04-.09,0-.01.03-.03.04-.04ZM45.58,38.51c.07.16.15.33.25.55.22,0,.48.07.76-.16.14.2.28.41.43.6.14.18.37.31.28.63h.38c.01-.14.03-.31.04-.5.07,0,.13-.02.18,0,.09.02.17.08.27.1.02,0,.06-.06.09-.09.03.02.06.04.09.05.23.14.02.61.44.61.25,0,.44.19.62.37.06.06.22.07.3.02.4-.24.66.09.96.24.14.07.28.15.46.25v.32c-.1-.06-.18-.1-.32-.18-.02.22-.03.38-.04.5.26.13.48.31.73.35.2.04.39.09.58.15.16.05.32.01.21-.27h.48c.17-.42.73-1.19.89-1.22.07-.16.14-.33.23-.53.07,0,.15,0,.26-.02.06-.1.18-.21.19-.34.01-.13-.08-.27-.12-.4.06-.03.1-.07.13-.06.17.06.3.23.51.09.21-.15.16-.43.25-.64.09-.2.02-.49.02-.76.11-.02.23-.04.34-.07.03-.08.05-.16.08-.23.13.18.26.36.39.53.06-.06.11-.1.16-.14.14.24-.06.53.17.76.16.17.24.43.38.68-.09.06-.19.13-.34.24v-.44c-.14,0-.28-.05-.36,0-.15.11-.27.27-.41.41-.1-.07-.16-.12-.23-.18-.17.26-.35.5-.61.68-.19.14-.4.31-.47.6-.02.09-.18.16-.29.2-.32.14-.52.43-.77.65-.15.13.04.45-.3.49-.17.02-.33.24-.49.36-.16.13-.33.26-.5.39-.04-.09-.08-.18-.13-.28-.05.1-.08.2-.14.28-.12.16-.26.19-.44.07-.24-.16-.79-.29-1.04-.26-.03,0-.06.01-.09,0-.51-.16-1.05-.27-1.52-.51-.3-.15-.65-.23-.88-.53-.17-.23-.41-.38-.59-.61-.14-.18-.23-.35-.26-.57-.3-.01-.19-.26-.23-.43-.03-.11-.14-.21-.23-.27-.04-.02-.14.06-.22.1.02-.18-.37-.32-.08-.58.02-.02-.1-.2-.16-.32-.17.21-.31.13-.44-.06.04-.08.08-.17.13-.28-.1-.08-.21-.16-.38-.3.19-.02.29-.04.41-.05ZM43.88,44.04v-.22s.04,0,.06,0c.02.08.03.15.05.23-.04,0-.07,0-.11,0ZM44.22,43.78s-.04,0-.06,0c-.02-.08-.03-.15-.05-.23.04,0,.07,0,.11,0v.22ZM44.28,42.96s-.03-.03-.04-.04c.03-.02.06-.03.08-.05.02.02.03.03.05.05-.03.02-.06.04-.09.04ZM44.53,37.58s.07.07.16.16c-.11.05-.17.1-.23.1-.03,0-.1-.11-.09-.12.04-.06.09-.11.15-.13ZM44.27,41.79c.26.08.22.29.23.58.06-.02.12-.05.18-.06.02,0,.04.05.14.15-.16-.05-.24-.07-.31-.09,0,.01,0,.03,0,.04-.2-.15-.3-.24-.44-.35.09-.11.15-.19.22-.27ZM43.75,42.97c.13.25.19.37.26.48-.03.02-.05.05-.08.07-.06-.06-.14-.12-.17-.19-.03-.06,0-.15,0-.37ZM42.96,35.72h.26v.07h-.26v-.07ZM42.61,34.84s-.02-.02,0,0h0s.04.04.07.07c-.07.23-.22.24-.48.23,0,0,0,0,.01.01-.03.04-.06.07-.09.11-.01-.01-.03-.03-.04-.04.03-.03.06-.05.09-.08-.05,0-.1,0-.15,0,.27-.14.43-.21.6-.3ZM40.04,38.12q.26.26,0,.6v-.6ZM39.85,36.92s.03.03.04.04c-.03.02-.06.03-.08.05-.02-.02-.03-.03-.05-.05.03-.01.06-.04.09-.04ZM39.89,37.74c-.01.07-.03.14-.04.21,0,0-.04,0-.04,0-.02-.07-.03-.14-.05-.21.05,0,.09,0,.13,0ZM27.41,33.78s-.03-.06-.04-.09c0-.01.03-.03.04-.04.01.03.03.06.04.09,0,.01-.03.03-.04.04ZM29.16,35.52c-.02-.43.24-.49.36-.74.07.39-.19.45-.36.74ZM30.49,34.05c-.2.28-.47.52-.72.77-.05.05-.15.05-.24.07.23-.71.94-1,1.24-1.64.04-.09.24-.1.43-.18-.01.13,0,.23-.04.27-.21.25-.48.43-.67.7ZM35.51,33.63c-.11-.06-.23-.12-.37-.2.06-.11.13-.21.2-.33.21.17.28.32.17.53ZM36.78,34.85s-.05-.03-.08-.05c.01-.01.03-.04.04-.04.03,0,.06.03.09.04-.01.02-.03.03-.05.05ZM37.02,35.14s-.03-.06-.04-.09c0-.01.03-.03.04-.04.02.03.03.06.05.09-.02.02-.03.03-.05.05ZM37.98,37.71c-.09-.1-.17-.2-.26-.3.06-.04.11-.09.18-.13.07.16.13.28.18.4-.04.01-.09.05-.1.04ZM39.4,36.5s.1.07.11.11c.02.22-.15.14-.25.15.02-.11-.06-.28.15-.27ZM39.21,36.77c.27.3.35.64.28,1.03-.13.07-.24.1-.24-.12,0-.15,0-.27-.2-.24v-.37c-.06.01-.17.03-.3.06-.02-.03-.07-.07-.12-.13,0-.03.01-.06.03-.09.15-.24.38-.11.54-.14ZM38.77,36.49c-.06.08-.12.16-.15.2-.12-.13-.25-.26-.38-.41-.13.14-.16.17-.21.22-.05-.22-.09-.44-.14-.65.23.05.59.3.88.63ZM37.95,30.24s.06-.07.13-.16c.01.18.02.3.03.41-.03.02-.05.05-.08.07-.02-.1-.04-.2-.07-.33ZM37.55,26.38s.03.03.04.04c-.03.02-.06.04-.09.04-.01,0-.03-.03-.04-.04.03-.01.06-.04.09-.04ZM37.28,25.3c.03.21.05.32.08.46-.21-.05-.3.32-.61.06.19-.19.33-.32.53-.52ZM35.93,24.49h.26v.07h-.26v-.07ZM36.09,25.23h-.43q.11-.29.43,0ZM35.57,24.34s.04,0,.06,0c.02.08.03.15.05.23-.04,0-.07,0-.11,0v-.22ZM35.55,25.43c-.01.07-.03.14-.04.21,0,0-.04,0-.04,0-.02-.07-.03-.14-.05-.21.04,0,.09,0,.13,0ZM35.13,24.19c.05.05.12.08.15.14.01.02-.04.09-.1.2-.07-.1-.13-.15-.14-.21,0-.03.06-.09.09-.13ZM34.04,24.46h.06v.27h-.06v-.27ZM34.04,25.67h.06v.27h-.06v-.27ZM33.39,24.51c.07-.02.13-.04.2-.05,0,.05,0,.09,0,.14-.07-.02-.14-.03-.2-.05,0,0,0-.04,0-.04ZM32.81,25.6c-.05-.03-.14-.07-.31-.15q.35-.02.31.15ZM31.8,25.83s.03.03.04.04c-.03.02-.06.03-.08.05-.02-.02-.03-.03-.05-.05.03-.02.06-.04.09-.04ZM31.18,26.95c.06.22-.03.25-.3.15.13-.06.22-.11.3-.15ZM29.98,27.96c.03.12.06.25.08.38q-.27.01-.08-.38ZM29.17,28.83c.06.07.13.14.18.2-.15.06-.24.03-.18-.2ZM28.32,30.53c.06.12.11.24.18.37-.04.04-.09.1-.19.21-.06-.09-.11-.17-.19-.3.05-.07.12-.17.2-.28ZM27.64,30.5q.03-.16.61-.38c-.03.12-.05.28-.06.28-.19-.01-.34.3-.55.1ZM25.92,31.61c.06-.07.15-.11.33-.24-.08.31-.09.32-.43.48.04-.11.05-.19.1-.24ZM27.88,31.13c.13-.16.34-.24.48-.39.17-.18-1.93,1.66-2,1.64.06-.2.35.19.41-.03.1-.03.92.46,1.6-.31v-.46c.13-.11.27-.23.4-.36.18-.18.39-.34.5-.55.14-.27.28-.46.58-.54.17-.04.31-.2.46-.31-.05-.06-.1-.11-.13-.15-.07-.34.35-.24.38-.5.03-.25.36-.2.43-.48.05-.21.28-.36.42-.54.06.05.14.14.2.2.12-.11.22-.21.35-.33v-.31s0,0-.01.01c-.04-.03-.07-.06-.1-.09.01-.01.03-.03.04-.04.03.04.06.07.09.11,0,0,0,0-.01.01.05.03.11.05.19.09,0,0,.03,0,.05-.01.21-.16.16-.38.11-.57-.12.02-.23.05-.37.07.05-.37.35-.43.44-.69.06.06.09.1.16.17.04-.09.07-.17.1-.26h.34v.26c.26,0,.53.02.51-.39-.01-.25.27-.09.3-.26,0,0,.04,0,.04,0,.13.24.31-.04.39.03.12.1.25.04.35.09.07.04.09.17.15.3.09-.06.17-.12.26-.17.35.08.6.41.99.42.07,0,.17.18.2.29.12.49.11.49.53.5.06,0,.12,0,.25,0,.05.2.1.4.17.66.1,0,.26.01.4.02.03-.05.05-.07.05-.08,0-.02-.03-.03-.04-.05-.02-.03-.04-.06-.06-.09.21-.13.36-.04.52.19-.17.08-.32.15-.51.23v.57c.19.2.4.42.64.68-.38.08-.69.07-.85-.35-.48-.06-.28-.61-.56-.84-.09.05-.2.11-.35.19-.05-.12-.11-.24-.13-.29h-.71c.02.31.04.6.06.9-.21.06-.28.29-.32.64.11.06.26.14.45.25,0,0,.13-.04.31-.09-.01.36.09.65.38.94-.17.02-.28.06-.3.03-.27-.41-.73-.54-1.13-.82-.08.19-.17.37-.25.55-.03.07-.09.18-.07.23.25.4-.13.55-.26.8-.09.17-.41-.09-.4.28,0,.23-.42.11-.39.42-.24,0-.22.27-.35.37-.12.09-.23.19-.42.35h-.49v.27s0,0,.01-.01c.03.03.07.06.1.09-.01.01-.03.03-.04.04-.03-.04-.06-.07-.09-.11,0,0,0,0,.01-.01-.39.01-.69.28-.84.59-.13.27-.34.33-.51.49-.11-.18-.09-.34.07-.46.2-.16.3-.43.58-.49.08-.02.13-.16.19-.24.13-.17.24-.42.4-.48.21-.08.22-.28.34-.4.16-.15.28-.4.46-.46.24-.08.29-.27.4-.44.1-.16.41-.15.31-.46.14-.12.27-.25.43-.34.22-.14.42-.29.47-.6-.05-.06-.11-.12-.18-.2-.15.09-.29.18-.44.27.11.27-.02.32-.22.42-.2.1-.34.33-.5.51-.15.16-.3.32-.45.48-.15.16-.3.32-.45.49-.07-.3-.14-.59-.19-.84.18-.16.42-.27.47-.43.08-.32.35-.33.51-.5l.69-.63c-.01-.06-.03-.12-.05-.2-.28.07-.44-.23-.57-.02-.16.23-.48.42-.66.6-.17.18-.22.19-.42.34-.19.14-.9.74-1.11.93h-.38c-.24.91-.3.37-.67,1.15-.13.27.07-.14-.07.15-.41.07-.42.2-.71.42-.26.21-.07.12-.28.39-.16.21.37-.71.28-.39-.06.23-.27.42-.42.62-.02.02-.08.01-.17.03-.02-.22-.05-.45-.08-.79-.17.22-.29.37-.41.53-.03-.1-.06-.18-.09-.26-.13.12-.26.24-.45.42.04-.45.13-2.41.26-2.57ZM31.33,32.97c-.01-.28.14-.35.44-.46-.1.34-.16.5-.44.46ZM24.32,41.11s.04,0,.06,0c.02.08.03.15.05.23-.04,0-.07,0-.11,0v-.22ZM23.92,33.08c.2.09.42.78.19,1.12-.09-.07-.18-.14-.31-.24.18-.16.04-.81.12-.88ZM23.83,36.38s.05.03.08.05c-.01.01-.03.04-.04.04-.03,0-.06-.03-.09-.04.01-.01.03-.03.05-.05ZM23.55,34.35s.04,0,.07,0c.02.12.03.24.05.36-.04,0-.08,0-.11,0v-.36ZM22.66,39.72v-.22s.04,0,.06,0c.02.08.03.15.05.23-.04,0-.07,0-.11,0ZM22.66,39.31v-.36s.04,0,.06,0c.02.12.03.24.05.35-.04,0-.08,0-.11.01ZM22.4,35.78c.14-.37.45-.53.7-.76q-.28.76-.7.76ZM21.64,37.44s0-.08,0-.12h.21s0,.04,0,.07c-.07.02-.14.03-.21.05ZM22.06,38.93s.03.03.05.05c-.01.03-.03.06-.05.09-.01-.02-.04-.03-.04-.04,0-.03.03-.06.04-.09ZM22.38,37.69c.02.16.03.28.05.4-.03.02-.06.03-.09.05-.04-.09-.09-.18-.13-.26.02-.02.08-.08.17-.18ZM18.02,40.28s.03.06.04.09c0,.01-.03.03-.04.04-.02-.03-.03-.06-.05-.09.02-.02.03-.03.05-.05Z"/>
      <path class="st0" d="M31.68,49.95c0-.18.12-.31.33-.31.06,0,.16-.02.17-.05.1-.39.51-.52.69-.87-.03-.11-.07-.24-.11-.37.65-.04.85-.1,1.16-.52.14-.19.31-.3.47-.45.05-.04.04-.14.08-.28-.18.07-.28.1-.39.14v-.37c.11,0,.21-.02.29,0,.1.03.18.09.28.13.52.19.35-.46.67-.56.15-.05.09-.3-.13-.47.35-.11.65-.21.96-.31-.02-.7.45-1.06.97-1.4-.04-.13-.08-.26-.12-.39.33-.25.52-.7,1.01-.74-.15-.31-.15-.34-.03-.5.32-.42.65-.83.98-1.24.27-.33.54-.65.81-.95-.06-.12-.1-.2-.14-.28.11-.02.17-.03.25-.05-.01-.18-.02-.34-.03-.56-.14.08-.23.13-.34.2-.02-.13-.04-.25-.06-.38h-.35c-.02.44-.36.4-.63.38-.12.23-.76.99-.91,1.05-.09.04-.2,0-.32,0,.69-.76,1.09-1.69,1.88-2.34-.17-.27-.32-.51-.42-.68.41-.44.57-.91.65-1.41-.35-.03-.39.26-.55.42-.16.17-.39.26-.52.5-.14.24-.36.46-.6.6-.23.13-.33.35-.5.52-.18.18-.35.38-.53.57-.1-.1-.18-.15-.22-.22-.03-.05,0-.13,0-.19-.07-.04-.14-.08-.15-.09-.19.21-.34.46-.57.59-.26.15-.33.45-.6.56.02.14-.04.24-.13.34-.19.2-.46.34-.53.63-.01.05-.12.07-.28.15.06-.3.11-.5.16-.74-.47.08-.43.52-.78.74.25.05.38.08.53.11-.02.08-.04.19-.06.19-.15,0-.3-.03-.47-.05-.11.12-.24.21-.47.23-.25.02-.13.37-.29.51-.03.02-.1,0-.12.02-.07.1-.13.21-.19.32-.04.07-.05.16-.11.2-.32.22-.67.4-.69.85,0,.03-.05.08-.09.08-.18.01-.23.13-.32.27-.08.13-.24.2-.36.31-.07.07-.11.17-.16.26-.06.11-.1.23-.17.32-.11.14-.33.25-.34.38-.03.28-.32.15-.41.35-.07.18-.26.32-.4.48.09.01.19.03.29-.15.18-.31.54-.52.84-.77.04-.03.13,0,.19,0-.02.14.07.33-.1.42-.39.2-.63.59-.98.83-.22.15-.31.34-.41.58-.48-.09-.62.43-.98.61-.32.16-.48.6-.87.74-.15-.13-.16-.3-.04-.39.35-.24.52-.7.97-.81.04-.01.11-.01.12-.03.07-.39.47-.46.7-.69.11-.1.16-.2.14-.34h-.23c-.12.29-.46.4-.61.65-.17.28-.43.4-.74.61.05-.52.48-.69.66-1.03.19-.36.49-.66.77-1.02-.11,0-.24-.03-.27,0-.13.21-.43.26-.51.47-.09.23-.22.39-.4.55-.19.17-.34.38-.5.58-.14.18-.28.37-.42.56-.01.02.07.09.11.15-.57.43-.8,1.17-1.44,1.55-.07.44-.38.68-.74.87-.12.06-.01.35-.3.26-.09-.19-.03-.34.14-.49.15-.13.3-.26.42-.42.12-.16.2-.35.29-.53.35.03.07-.33.26-.43.09-.05.12-.21.19-.31.43-.61.87-1.22,1.31-1.84.06-.08.13-.18.13-.27,0-.32.13-.54.42-.68.12-.06.2-.18.01-.33-.35.23-.71.42-.86.9-.07.22-.05.42-.09.62,0,.04-.05.06-.09.12-.11-.05-.21-.11-.3-.15-.18.15-.4.26-.48.43-.11.23-.26.37-.49.58-.07-.14-.11-.24-.16-.34,0,0,.04-.04.07-.08-.24-.01-.34.02-.39.17-.04.1-.05.2-.07.3-.29-.07-.14.29-.32.32.08.26-.24.15-.28.34-.13.52-.64.8-.86,1.3-.14.32-.51.55-.63.93-.02.07-.12.11-.19.16-.08.06-.2.09-.26.17-.36.53-.57,1.17-1.21,1.47-.04.29-.31.4-.47.6-.15.2-.29.43-.47.59-.18.16-.21.47-.5.51-.36.74-1.18,1.07-1.54,1.81-.5.16-.58.68-.89,1-.21.22-.27.57-.64.66-.11.03-.19.17-.26.28-.13.19-.19.44-.36.57-.21.16-.19.39-.25.57-.09.27-.39.22-.46.46-.14.48-.61.64-.86.96-.21,0-.32-.27-.51-.04-.05.06-.21.05-.31.03-.12-.02-.23-.12-.34-.12s-.23.09-.34.12c-.04.01-.1-.03-.15-.05.05-.06.09-.11.15-.18-.63-.08-1.2.06-1.76.25-.06.02-.1.11-.17.19.59,0,1.1-.33,1.66-.15-.06.27-.2.37-.42.34-.28-.03-.54.04-.78.2-.17.11-.44.05-.54.28-.11.25-.38.14-.55.27-.31.22-.67.39-1.02.57-.07.03-.16,0-.26,0,.18-.39.38-.67.75-.84.28-.13.53-.33.78-.51.04-.03,0-.16,0-.3-.21.15-.36.33-.48.31-.26-.04-.27.27-.34.26-.34-.03-.44.25-.64.4-.45.33-.66.88-1.16,1.17-.06.03-.08.14-.12.21-.06.11-.1.22-.17.33-.1.16-.24.3-.32.46-.12.26-.24.53-.29.8-.06.29-.43.46-.27.81-.27.23-.02.57-.15.79-.16.28-.13.49-.02.78.1.25.11.54-.16.77-.11.09-.15.28-.21.41.07.09.12.16.18.24-.11.12-.2.22-.27.31.14.29.27.54.38.77-.07.1-.12.16-.16.22.24.51.66.9.7,1.43.18.09.34.16.4.19.06.22.06.39.15.47.14.14.34.15.56.02.14.17.28.35.44.55h.32c.29.23.54.47.83.65.24.15.58.04.81.26.03-.09.06-.17.08-.22.3.09.59.18.87.26.01.14.02.24.03.36.32-.25.37.27.64.17v.45c.22.04.4.35.63.05.02-.02.09-.02.13,0,.33.16.61.05.9-.12.12-.07.35-.14.44-.08.22.15.34,0,.52-.06.37-.13.64-.48,1.07-.46.05,0,.1-.1.13-.12-.06-.12-.09-.2-.12-.25.18-.22.34-.42.52-.64h.16c.51-.23.51-.85.98-1.06.04-.02.07-.11.07-.17,0-.25.17-.41.3-.6.21-.3.37-.64.57-.95.11-.18.08-.32-.04-.42.12-.3.23-.59.33-.88-.03-.02-.06-.03-.09-.05-.12.14-.23.29-.41.5-.04-.43.11-.67.34-.89.14.07.25.12.43.21-.02-.3.36-.51.02-.78-.02-.02-.02-.1,0-.13.22-.28.15-.67.31-.93.14-.23.19-.45.25-.69.06-.24.15-.47.23-.7.27-.06.2-.33.31-.49.2-.29.55-.48.69-.83.39-.03.32-.33.33-.58,0-.02.05-.05.07-.07.05.04.09.07.09.07.38-.35.49-.9,1.01-1.08.02-.11.03-.22.06-.31.03-.06.1-.1.15-.16.11.11.19.19.25.26.34-.17.15-.5.29-.71.11-.11.21-.23.32-.34.07.04.14.08.21.12.06-.06.12-.12.18-.18-.05-.09-.1-.18-.14-.26.16-.1.29-.19.38-.24-.03-.15-.09-.27-.06-.33.13-.21.3-.4.46-.6.18-.23.46-.44.53-.7.06-.21.31-.14.31-.26-.1-.32-.19-.58-.28-.87.33.1.24.56.66.53.04-.22.03-.43-.07-.62.13-.2.29-.23.48-.11-.05.06-.08.1-.14.18h.49c.14-.14.3-.29.47-.46-.26-.37.29-.51.26-.86-.01-.1.16-.27.28-.33.43-.2.56-.67.94-.93-.07-.1-.11-.17-.19-.29.36-.13.73-.29.94-.66-.05-.1-.11-.21-.16-.33.21-.12.47-.18.42-.48h.27v-.51c.36-.43.9-.52,1.09-1.03.05-.13.26-.2.39-.31.16-.13.37-.22.37-.49ZM37.03,40.92c.05.28-.06.43-.25.52-.05-.28.06-.43.25-.52ZM36.64,41.58s.03.06.04.09c0,.01-.03.03-.04.04-.02-.03-.03-.06-.05-.09.02-.02.03-.03.05-.05ZM36.18,41.84s0,0-.01-.01c.03-.04.06-.07.09-.11.01.01.03.03.04.04-.04.03-.07.06-.11.09,0,0,0,0-.01-.01.02.2-.06.34-.26.39-.02-.2.06-.34.26-.4ZM35.9,42.26v.37q-.12-.22,0-.37ZM34.7,46.39c.06.15.03.25-.2.19.07-.07.14-.13.2-.19ZM33,47.92s.01.01.02.02c-.03.04-.06.07-.09.11-.01-.01-.03-.03-.04-.04.03-.03.06-.05.1-.08-.04,0-.08,0-.13,0,.18-.12.28-.18.38-.25.09.21,0,.25-.23.25ZM33.78,44.51v.22s-.04,0-.07,0c-.02-.07-.03-.15-.05-.22.04,0,.08,0,.11,0ZM33.9,47.3c-.16.18-.26.29-.36.4-.04-.02-.08-.04-.12-.06v-.34h.48ZM33.1,42.21c.23.08.23.2.1.28-.11.08-.25.1-.4.16.12-.17.22-.32.31-.45ZM33.51,44.79c-.12.18-.27.35-.37.54-.1.21-.41.2-.46.46,0,.01-.14,0-.29,0,.32-.48.67-.78,1.11-1ZM32.68,42.68c.03.19.05.3.08.45h-.42s-.02-.09-.03-.14c.1-.09.21-.17.37-.31ZM9.02,64.32c-.09-.12-.29-.16-.15-.41.09.12.29.16.15.41ZM13.11,60.09c.18-.05.33.28.57.01.1-.11.43-.07.55.19-.05.05-.11.14-.18.17-.04.02-.12-.04-.18-.07l-.82.02s-.09-.09-.13-.14c.07-.07.13-.13.19-.19ZM14.11,61.73c-.27.11-.52.43-.8,0,.13-.04.27-.07.4-.13.11-.05.2-.14.35-.26.02.17.03.27.05.4ZM12.79,61.3h.37v.22h-.37v-.22ZM11.88,60.77s.05,0,.07,0c.02.12.03.23.05.35-.04,0-.08,0-.12,0v-.35ZM9.37,63.18s.03-.04.06-.05c.18-.09.41-.29.54-.24.22.08.38-.01.56-.03.19-.02.37-.12.54-.18-.04-.26-.15-.25-.27-.15-.13.1-.22.13-.28-.06.49-.35.93-.52,1.42-.53.03.13.05.27.08.4.29.02.35-.36.65-.28.18.05.39-.03.63-.06-.03.27-.21.39-.47.47-.15.05-.31.11-.45.19-.41.24-.82.5-1.32.47-.28-.02-.44.23-.68.26-.25.04-.51.03-.77.06-.07,0-.14.06-.25.12v-.38ZM9.28,71.46s-.03-.03-.05-.05c.02-.03.03-.06.05-.09.01.01.04.03.04.04,0,.03-.03.06-.04.09ZM10.45,71.44c-.15-.13-.31-.28-.11-.53.03.09.05.16.08.26.11.01.23.03.42.06-.17.09-.28.15-.39.22ZM12.19,72.38s-.04-.03-.04-.04c0-.03.03-.06.04-.09.01.01.03.03.05.05-.02.03-.03.06-.05.09ZM13.04,66.78c-.13-.16-.21-.26-.36-.44.26-.02.43-.03.72-.06-.16.21-.24.33-.37.49ZM14.07,65.5s-.1-.11-.1-.12c.04-.06.1-.11.16-.13.02,0,.08.07.17.15-.11.05-.17.1-.23.1ZM15.56,63.78c-.06-.03-.09-.1-.14-.16.04-.03.1-.1.13-.09.06.01.11.07.2.15-.1.06-.17.12-.2.1ZM17.15,70.47q.14-.28.39-.4c-.05.42-.06.42-.39.4ZM18.23,60.53c-.06.02-.14.09-.14.14,0,.52-.61.65-.68,1.11-.02.11,0,.22,0,.33-.35.49-.79.79-1.31.97-.24-.27-.52,0-.67.14-.5.5-1.15.55-1.76.71-.02,0-.04-.02-.07-.03v-.39c.08.07.12.11.14.12.24-.24.48-.48.76-.76-.12,0-.29-.04-.32,0-.25.36-.73.3-1.02.59-.08.08-.29.02-.43.07-.15.06-.25.18-.12.36-.22.1-.27-.02-.22-.27-.77.15-1.47.38-2.2.44-.25.47-.3.48-.83.27-.02.13-.04.25-.06.38-.05-.04-.09-.06-.1-.08-.05-.22.02-.42.13-.6.09-.16.19-.39.43-.14.22-.08.45-.16.67-.23.54-.18,1.1-.3,1.64-.5.27-.1.54-.2.78-.34.21-.12.58-.07.6-.44.41.07.53-.51.94-.44.07-.17.24-.24.35-.36.29-.33.27-.34.7-.2.17.06.35.12.53.16.08.01.17-.04.25-.19-.14-.05-.3-.08-.42-.16-.14-.1-.25-.24-.42-.41.15-.06.27-.15.4-.16.15-.02.13-.12.18-.21.1-.18.27-.27.53-.14-.08.17-.16.35-.25.54.07.05.09.3.3.09.05-.05.26.07.41.11.02-.06.03-.11.06-.17.02-.04.04-.07.09-.13.03.16.06.3.09.45.3-.06.47-.28.56-.47.11-.22.12-.48.43-.53.04-.29.29-.43.47-.59.33-.29.57-.66.89-.96.31-.29.51-.7.77-1.04.11-.15.24-.28.38-.39.05-.04.16,0,.26,0-.02.18.14.4-.18.4-.18.41-.56.65-.84.97-.04.05-.11.09-.14.14-.12.22-.13.49-.45.63-.2.09-.3.4-.49.55-.25.19-.31.55-.64.66ZM19.52,62.79s-.05.07-.08.09c-.06.03-.12.03-.18.05.01-.06,0-.14.05-.17.03-.03.11-.01.17-.01.02,0,.03.03.05.04ZM18.53,63.8c.21-.24.44-.45.73-.74,0,.62-.26.89-.77,1.01.01-.1,0-.21.04-.27ZM18.88,67.07v-.35s.04,0,.07,0c.02.12.03.23.05.35-.04,0-.08,0-.12.01ZM19.92,64.18c-.35.15-.36.52-.52.8-.11.19-.13.43-.19.66-.05-.05-.1-.08-.17-.14,0,.26-.25.27-.46.47.04-.21.04-.36.09-.47.25-.55.43-1.13.7-1.68.19-.38.27-.56.57-.8.04-.04.06-.1.09-.16-.25-.05-.1-.22-.12-.38.09.04.17.08.25.11.02-.1-.07-.25.13-.26-.02.1.07.25-.13.26-.04.09-.09.18-.13.26.21-.04.43-.08.74-.13-.48.45-.85.86-.87,1.46ZM20.33,62.33c.02-.38.45-.46.58-.78,0-.02.14.02.23.03-.24.38-.58.68-.81.75ZM23.42,51.49s.03.06.04.09c0,.01-.03.03-.04.04-.01-.03-.03-.06-.04-.09,0-.01.03-.03.04-.04ZM23.29,52.14c-.19.17-.42.3-.64.44-.03-.04-.07-.08-.1-.11.15-.33.42-.54.81-.8-.03.23,0,.41-.07.48ZM23.39,59.96c0-.08-.01-.17-.02-.25.03,0,.06,0,.09-.01.02.09.03.17.05.26-.04,0-.08,0-.11,0ZM23.69,57.05s-.04-.03-.04-.04c0-.03.03-.06.04-.09.01.01.03.03.05.05-.02.03-.03.06-.05.09ZM24.44,57.53s-.01-.11-.01-.17c0-.02.03-.03.04-.05.03.03.07.05.09.08.03.06.03.12.05.18-.06-.01-.14,0-.17-.05ZM26.95,51.21v-.22s.04,0,.07,0c.02.07.03.15.05.22-.04,0-.08,0-.11,0ZM27.6,54.08c-.06-.21.04-.25.31-.15-.14.06-.23.1-.31.15ZM28.58,49.74c-.04-.16-.05-.23-.07-.3.25,0,.27-.52.66-.27-.18.17-.36.34-.6.57ZM30.92,44.35c.21-.24.39-.52.58-.77.04.03.08.07.14.12.03-.09.06-.17.11-.32.07.12.12.2.2.33-.24.38-.66.66-.98,1.04-.24-.21-.22-.2-.05-.4ZM29.43,52.3s-.07-.06-.11-.09c.01-.01.03-.03.04-.04.03.04.06.07.09.11,0,0-.02.02-.03.03ZM30.38,48.12c-.15.15-.3.23-.55.22v.31c-.2.13-.39.25-.63.4-.04-.43.3-.54.47-.75.18-.22.45-.38.59-.62.16-.26.41-.38.63-.54.21-.16.43-.32.66-.49v-.23c.17-.11.33-.21.53-.33-.02.32-.18.51-.36.68-.45.45-.91.9-1.35,1.36Z"/>
      <path class="st0" d="M85,16.07c.04-.07.09-.19.08-.29-.03-.27-.1-.54-.12-.81-.02-.35-.03-.71,0-1.06.02-.23-.08-.42-.18-.59-.15-.25-.36-.47-.55-.7-.07-.08-.19-.16-.19-.25,0-.37-.28-.53-.53-.67-.17-.1-.22-.2-.29-.37-.13-.37-.44-.71-.78-.8-.35-.09-.36-.32-.51-.52.06-.05.09-.08.12-.11-.11-.11-.22-.22-.36-.36-.16.05-.33.1-.52.16-.18-.27-.39-.46-.75-.56-.46-.13-.91-.36-1.38-.47-.23-.06-.36-.2-.46-.26-.35.05-.61.1-.84.13-.1.14-.17.25-.25.36-.09-.06-.16-.11-.24-.16-.18.17-.33.36-.62.31-.2-.04-.32.29-.58.18-.05-.02-.3.01-.37.2-.04.11-.14.2-.24.27-.72.47-1.17,1.2-1.73,1.82-.1.11-.09.31-.14.47-.09.25-.16.5-.28.74-.23.45-.46.93-.32,1.58.34-.7,1-1.03,1.19-1.72.1.04.16.06.24.1-.28.45-.55.89-.77,1.25.03.21.05.37.07.53h-.37c-.05.2-.12.42-.15.64-.04.23-.38.32-.27.62-.21.17-.12.38-.12.58.13-.05.24-.09.38-.15v.83c.41-.11.45.27.5.46.09.32.31.31.52.36q.21.5-.15.79c-.15-.22-.45-.32-.49-.64-.33-.05-.39-.31-.47-.58-.04.34-.05.66-.04.98,0,.22.23.71.36.91.23.36.61.65.57,1.15.14-.01.28,0,.4.06-.04-.09-.07-.19-.11-.29.08-.05.18-.12.34-.24.01.23.03.39.04.59-.05,0-.1,0-.14.01,0,0,0,0,0,0v.37c.28.06.65-.09.65.39-.12.02-.25.04-.38.06v.32c.22.1.42.19.69.32-.07-.26-.12-.45-.18-.65.05,0,.6-.02.63-.02.08.26.15.53.24.81.19-.06.28-.15.34-.34.04-.14.37-.11.38-.41-.1-.09-.23-.19-.39-.33-.07.18-.15.35-.2.47-.12-.11-.22-.23-.34-.33-.11-.09-.31-.26-.33-.24-.28.26-.24-.09-.36-.15.15-.15.28-.28.45-.45.17.21.33.4.5.62.14-.13.24-.22.35-.31.13.24.46.24.51.49.18-.13.38-.14.59-.04.05.03.15.08.16.07.18-.18.4-.1.61-.13.21-.04.41-.27.62,0,.02-.01.03-.03.09-.07.03-.06.08-.16.16-.33h-.56v-.37c.18-.02.35-.03.51-.04-.08-.15-.15-.27-.23-.41-.16.11-.3.21-.44.3-.08-.12-.17-.23-.26-.36.22-.15.44-.3.71-.48.05.11.08.2.13.3h.29c.07-.19.13-.36.21-.55q.31.34,0,.49c0,.15-.02.29-.02.43-.14.06-.35.04-.19.32.12-.05.25-.1.36-.14.17.12.33.24.49.36.01.11.02.21.04.34.54-.16,1.03-.3,1.26-.88.1.08.17.13.21.16.16-.34.32-.68.48-1.03.09-.08.21-.15.26-.25.17-.35.42-.68.7-.87.34-.23.48-.41.71-.67.68-.52.89-.99,1.02-1.25ZM74.09,15.8h-.07v-.26h.07v.26ZM80.91,10.14c.1.05.2.1.33.16v.34c-.37-.1-.36-.11-.33-.49ZM79.34,9.46s.03.06.05.09c-.02.02-.03.03-.05.05-.01-.03-.03-.06-.04-.09,0-.01.03-.03.04-.04ZM78.79,9.74s.04,0,.04,0c.02.07.03.14.05.21-.05,0-.09,0-.14,0,.01-.07.03-.14.05-.21ZM78.59,10.14v.22s-.04,0-.06,0c-.02-.07-.03-.15-.05-.22.04,0,.08,0,.11,0ZM77.19,11.23c.25-.14.54-.36.83-.07.08-.13.15-.25.26-.42.36.3.88.04,1.21.46.03-.1.06-.18.1-.28.05.04.08.08.13.1.05.02.12.02.2.03v-.29s-.02.04-.04.06c-.05-.28-.08-.4-.1-.53-.19-.05-.44-.01-.51-.33.1-.07.23-.12.32-.22.08-.08.12-.2.17-.3.31.25.86.94.96,1.17-.02.02-.04.05-.05.04-.16-.09-.31-.19-.51-.3-.06.1-.11.19-.18.31.64.01.71.09.51.43.22.3.49.56.62.88.08.19.28.08.33.25.03.11.14.21.18.32.04.11.03.24.05.36-.41-.07-.77-.14-1.15-.2-.04.08-.12.2-.2.35-.08-.05-.14-.1-.2-.13-.05-.03-.11-.04-.18-.05.06-.06.1-.11.17-.18-.11-.16-.22-.33-.35-.52-.14-.04-.32-.09-.5-.13-.07-.01-.15,0-.22.02-.08.02-.16.08-.23.07-.16-.02-.33-.06-.47-.13-.16-.09-.21.12-.38.08-.33-.08-.51-.09-.77-.26-.05-.03-.15,0-.23.02-.15-.29.07-.46.26-.57ZM79.21,12.57c.13-.07.21-.12.31-.16.06.24-.04.26-.31.16ZM77.03,15.37v-.07h.26v.07h-.26ZM77.03,17.88s-.08,0-.11,0v-.22s.04,0,.06,0c.02.07.03.15.05.22ZM77.34,18.07s.04,0,.04,0c.02.07.03.14.05.21-.05,0-.09,0-.14,0,.01-.07.03-.14.05-.21ZM77.34,13.53s-.03-.03-.04-.04c.03-.02.06-.03.09-.05.02.02.03.03.05.05-.03.01-.06.03-.09.04ZM77.39,14.48v.26h-.07v-.26h.07ZM76.68,15.67c-.11-.18-.23-.36-.36-.58.11-.07.2-.12.3-.18.27.18.11.47.07.76ZM76.73,11.14v.44q-.28-.12,0-.44ZM74.94,11.93c-.11-.26.22-.28.24-.48-.05-.1-.1-.2-.19-.37.18-.01.31-.02.5-.03-.09.1-.13.15-.23.25.23-.02.45-.1.58-.03.29.17.31-.2.53-.21,0,0-.01-.01-.02-.02.03-.04.06-.07.09-.11.01.01.03.03.04.04-.03.03-.07.06-.1.09.01,0,.03,0,.04,0-.11.19-.17.39-.31.51-.23.2-.9.37-1.18.36ZM76.2,15.36c-.22-.11-.34-.14-.35-.19-.03-.12,0-.25,0-.38.04-.02.08-.04.11-.07.06.16.13.32.25.63ZM75.27,15.64s-.04,0-.04,0c-.02-.07-.03-.14-.05-.21.05,0,.09,0,.14,0-.01.07-.03.14-.05.21ZM75.89,18.33c-.05-.09-.09-.17-.14-.26.02-.02.08-.08.18-.18.02.15.04.27.05.39-.03.02-.06.03-.09.05ZM75.88,15.95c-.07-.11-.13-.23-.2-.34.03-.02.06-.05.08-.07.05.04.1.08.13.14.04.06.06.13.08.2-.03.02-.07.05-.1.07ZM76.04,20.69s-.04-.03-.04-.04c0-.03.03-.06.04-.09.01.01.03.03.05.05-.02.03-.03.06-.05.09ZM76.3,18.58c-.06-.12-.12-.24-.18-.36q.25,0,.18.36ZM76.28,18.02s-.03-.03-.04-.04c.03-.02.06-.03.09-.05.02.02.03.03.05.05-.03.01-.06.03-.09.04ZM76.58,17.5c.06-.03.12-.03.18-.05-.01.06,0,.14-.05.17-.03.03-.11.01-.17.01-.02,0-.03-.03-.05-.04.03-.03.05-.07.08-.09ZM76.84,18.96c-.11-.16-.21-.32-.32-.48.05-.05.1-.1.1-.1.14.1.28.21.46.33-.12.12-.18.18-.24.24ZM77.03,19.18c.17-.17.29-.43.54-.34-.13.13-.29.29-.44.44.03.03-.03-.03-.1-.1ZM77.51,20c-.07-.06-.15-.12-.34-.27.26-.13.41-.2.62-.31.02.19.03.31.04.41-.13.07-.23.12-.32.16ZM77.71,17.7s.03-.03.04-.04c.01.03.03.06.04.09,0,.01-.03.03-.04.04-.01-.03-.03-.06-.04-.09ZM77.79,15.6c-.24-.3.14-.38.08-.58.19.24,0,.37-.08.58ZM77.84,15.54h.31c.06.11.11.22.18.35-.14.06-.29.13-.49.22v-.56ZM78.5,20.18c-.04.25-.13.39-.39.38v-.38h.39ZM77.92,19.05c.13-.1.22-.17.38-.29.03.2.04.32.07.55-.2-.12-.32-.18-.45-.26ZM78.42,16.75c-.07-.15-.12-.27-.2-.45q.26.12.2.45ZM78.82,17.38c-.06-.06-.12-.12-.21-.2.09-.08.15-.14.2-.18.08.07.14.12.21.18-.07.07-.13.13-.2.2ZM79.26,14.23c-.19-.16-.35-.28-.51-.42-.01,0,0-.04,0-.1.18.05.36.1.51.14v.37ZM79.52,17.9s-.04,0-.06,0c-.02-.07-.03-.15-.05-.22.04,0,.08,0,.11,0v.22ZM80.31,20.29c-.25-.12-.29-.29-.21-.51h.21v.51ZM79.93,15.9c.01-.07.03-.14.05-.21,0,0,.04,0,.04,0,.02.07.03.14.05.21-.05,0-.09,0-.14,0ZM79.93,14.08c-.11,0-.22-.15-.34-.01-.06-.11-.11-.23-.19-.31-.08-.08-.2-.14-.31-.19-.07-.04-.15-.07-.23-.09-.15.1-.24.15-.33.22-.09-.21,0-.25.24-.25,0,0,0,0,0,0v-.34c.21.14.34.22.45.3.13-.04.27-.08.4-.12.05.12.09.2.14.3.04-.04.07-.07.11-.11.19.09.38.18.62.3v.47c-.16-.13-.34-.13-.54-.14ZM80.68,14.65c-.11-.17-.19-.29-.26-.41.2.04.37.1.26.41ZM80.84,16.85h-.22v-.37h.22v.37ZM80.96,15.04s-.08-.06-.11-.1c.06-.11.12-.23.2-.37.08.09.13.16.21.25-.09.07-.19.14-.29.22ZM81.32,19c-.18-.42.16-.51.31-.74q.22.38-.31.74ZM82.18,19.11c-.11-.02-.28.07-.26-.15,0-.04.07-.11.11-.11.22-.02.13.15.15.26ZM83.7,16.66c.15-.05.25-.08.32-.1.05.17-.05.21-.32.1Z"/>
      <path class="st0" d="M74.51,20.56s0,0,0,0c0,0,0,0-.01,0,0,0,0,0,0,0Z"/>
      <path class="st0" d="M68.17,25.95c-.09.11-.12.27-.29.29-.18.02-.13.23-.33.3-.55.2-.81.63-.69,1.27.1,0,.21.01.27.02.15.19.29.36.42.53.13-.12.21-.25.34-.27,0,0,0,0,0,0,.03-.04.06-.07.09-.11.01.01.03.03.04.04-.03.02-.05.04-.08.07.03,0,.05,0,.08.01.06.09.12.17.18.27.18-.13.38-.22.5-.38.27-.32.62-.52.98-.68.55-.25,1.01-.59,1.4-1.05-.06-.18-.19-.38-.14-.48.09-.17.17-.29.06-.46-.22.17-.43.33-.65.5,0,0-.03,0-.05,0-.05-.06-.11-.12-.13-.14.06-.23.11-.43.16-.63.3.04.18-.45.49-.39.06.04.12.07.19.11.07-.07.13-.13.2-.21-.05-.11-.11-.22-.17-.35.14-.13.28-.26.44-.41.08.14.14.24.2.35.11-.05.19-.1.3-.15.05.43-.3.35-.49.43-.06.15-.11.3-.18.48.12,0,.2.01.24-.02.15-.12.28-.31.45-.35.16-.04.36.07.53.11.04.01.07.03.12.06,0,.1-.02.22,0,.32.02.07.11.12.18.19.13-.23.02-.56.41-.57.06.05.14.12.16.14-.07.46-.55.6-.55,1.04,0,.05-.09.14-.13.13-.42-.05-.49.24-.51.71-.13-.2-.22-.28-.22-.34.01-.1.09-.2.13-.3-.74.3-1.1,1.02-1.76,1.39-.16.09-.25.32-.38.5.14.09.27.16.45.27-.06.13-.13.28-.22.49-.13-.2-.22-.34-.33-.51-.26.23-.41.53-.74.68.14.16.23.27.3.36-.04.1-.08.19-.12.27.18.08.33.15.47.22.19-.26.51-.38.5-.76,0-.09.11-.18.24-.19,0,0,0,0,0,0,.03-.04.06-.07.09-.11.01.01.03.03.04.04-.03.02-.05.05-.08.07.03,0,.06,0,.08,0,.01.12-.06.29.17.26.22-.03.25.09.23.27,0,0,0,0-.01-.01-.04.03-.07.06-.11.09.01.01.03.03.04.04.03-.04.06-.07.09-.11,0,0,0,0,0,0,.09.07.19.14.28.2-.01.25-.38.3-.23.61.34-.39.74-.69,1.08-1.05.36-.38.7-.78,1.07-1.15.35-.35.6-.84,1.02-1.23-.13-.01-.19-.02-.26-.03-.02,0-.05,0-.06,0-.28.29-.62.52-.89.84-.11-.08-.17-.12-.22-.16-.37.34-.74.68-1.14,1.04-.22-.08-.42.07-.62.31v-.6h.31c.08-.22.15-.41.21-.61.48-.11.52-.65.88-.88.14-.09.27-.19.41-.29-.07-.33.3-.41.41-.66.11-.24.37-.42.49-.65.12-.23.48-.33.41-.67-.11-.06-.22-.11-.34-.17-.12.11-.26.24-.39.37-.15-.22-.25-.43-.07-.68.04-.05-.01-.16-.03-.29-.13.07-.22.12-.3.16-.11-.06-.23-.13-.5-.28.37-.03.45-.22.51-.39.07-.21.1-.43.32-.56-.09-.08-.15-.14-.2-.19-.09.13-.18.26-.26.38-.08-.06-.12-.09-.17-.13-.06.39-.38.57-.57.85-.12.18-.31.1-.44-.16-.12.08-.23.24-.34.23-.28-.02-.44.18-.51.35-.07.17-.19.28-.3.4-.3.35-.51.78-.97.98-.05.02-.05.15-.1.22-.06.08-.15.15-.29.29-.06-.15-.11-.25-.16-.36.18-.26.59-.44.73-.85.43-.12.45-.61.83-.82-.11-.03-.17-.06-.19-.05-.28.18-.76.71-.91.97-.05.09-.14.16-.23.22-.49.3-.84.74-1.21,1.16ZM72.05,28.25s.04,0,.04,0c.02.07.03.14.05.21-.05,0-.09,0-.14,0,.01-.07.03-.14.05-.21ZM71.03,27.42s-.06-.03-.09-.05c.01-.01.03-.04.04-.04.03,0,.06.03.09.04-.01.01-.03.03-.05.05ZM71.28,27.04s-.03-.06-.04-.09c0-.01.03-.03.04-.04.02.03.03.06.05.09-.02.02-.03.03-.05.05ZM70.03,25.99s.09.05.2.1c-.09.07-.14.13-.2.15-.03,0-.09-.06-.13-.09.04-.05.08-.12.14-.16Z"/>
      <path class="st0" d="M68.11,23.95c-.32.42-.76.66-.95,1.11-.47.21-.68.64-.92,1.05h-.26c-.06.11-.11.22-.14.26.17.17.33.33.55.54.21-.19.47-.4.71-.63.1-.1.15-.26.25-.35.42-.42.72-.93,1.08-1.4.11-.14.24-.25.37-.39v-.35c-.19.12-.33.21-.45.28-.08-.05-.13-.08-.24-.14Z"/>
      <path class="st0" d="M66.98,24.84s.06-.06.09-.09c.01-.01.03-.04.03-.05-.07-.27.17-.38.3-.54.15-.18.25-.47.43-.52.2-.06.2-.2.25-.3.08-.15.35-.05.35-.31,0-.1.16-.2.27-.34-.2.03-.31-.07-.44.13-.18.28-.43.53-.68.77-.52.5-1.03,1.02-1.54,1.54-.14.14-.24.35-.4.45-.21.13-.17.33-.35.58.88-.22,1.07-1.02,1.69-1.31Z"/>
      <path class="st0" d="M71.59,22.1c.03.26.01.51-.12.74,0,.02.04.07.07.12.05-.02.13-.02.16-.06.05-.06.06-.15.08-.22.15,0,.33.05.4-.01.12-.12.19-.08.32.02v-.44c.17-.18.31-.33.45-.47-.09-.17-.16-.3-.21-.41-.21.09-.28.35-.56.39-.2.03-.38.21-.58.33Z"/>
      <path class="st0" d="M31.62,41.82c.36-.39.79-.74.99-1.35-.15.08-.26.1-.31.17-.13.18-.18.43-.46.45-.04.29-.3.41-.47.59-.41.43-.83.85-1.26,1.26-.15.15-.21.29-.08.48.54-.54,1.09-1.05,1.59-1.61Z"/>
      <path class="st0" d="M66.33,38.84c0,.05-.02.11-.02.17,0,.06.03.12.05.18.12.26.22.53.38.76.12.17.08.29.02.46-.1.28-.14.59-.2.88.36.06.35-.23.47-.37.05.04.09.08.21.19-.05-.2-.14-.38-.1-.42.18-.18.02-.27-.04-.41-.08-.16-.11-.35-.14-.54-.02-.17,0-.34,0-.55-.38.13-.22-.52-.64-.35Z"/>
      <path class="st0" d="M64.39,35.23c-.08.09-.15.19-.25.31.18.13.32.23.51.37-.14.09-.24.15-.39.25.11.11.19.2.26.28.1-.1.18-.18.26-.26.16.09.23.33.47.25-.11-.26-.19-.55-.53-.57,0-.3.06-.58-.33-.63Z"/>
      <path class="st0" d="M25.6,44.7s0,.12,0,.19h.14c.2-.27.39-.51.55-.77.07-.11.07-.25.11-.38-.24.15-.47-.05-.68,0,.06.08.1.12.17.22h-.43c.03.05.05.11.09.15.2.18.27.36.05.58Z"/>
      <path class="st0" d="M75.6,40.92c-.02.12,0,.3-.07.35-.31.23-.21.53-.22.83.13-.05.25-.07.3-.13.06-.07.05-.19.09-.28.04-.07.11-.13.15-.2.05-.09.09-.18.11-.28.01-.1-.02-.2-.03-.29h-.33Z"/>
      <path class="st0" d="M57.26,62.59c-.26-.05-.14.23-.27.26-.05-.04-.09-.08-.21-.17.03.2.04.33.07.53.33-.23.57-.51.94-.48.06-.12.12-.24.17-.35-.06-.06-.11-.11-.15-.15-.23.06-.28.42-.55.37Z"/>
      <path class="st0" d="M72.34,20.57c-.41.19-.56.34-.87.92.43-.12.87-.59.87-.92Z"/>
      <path class="st0" d="M34.96,39.35h-.38c0,.14.02.26.02.33.19-.04.35-.08.48-.11.1-.23.2-.47.34-.78-.2.09-.33.16-.44.21-.01.13-.02.23-.03.35Z"/>
      <path class="st0" d="M71.49,21.48c-.14.02-.25.17-.37.02-.08.2-.16.36-.41.42-.1.03-.29.16-.08.39.28-.27.77-.32.86-.83Z"/>
      <path class="st0" d="M77.02,21.4c.06.21.13.41.19.62h.32c.01-.62,0-.64-.51-.62Z"/>
      <path class="st0" d="M34.32,52.16c-.08.01-.16.03-.24.05.03.05.06.1.1.14.14.12.3.23.44.34.15.13.3.26.46.4.02-.07.04-.1.03-.1-.23-.28-.47-.56-.69-.82-.06,0-.08,0-.1,0Z"/>
      <path class="st0" d="M66.88,52.36c.52.05.71-.12.86-.74-.48.04-.41.62-.86.74Z"/>
      <path class="st0" d="M40.01,64.86c.07.14.13.26.18.38h.3c.05.22.13.44.58.38-.49-.18-.42-.87-1.06-.75Z"/>
      <path class="st0" d="M61.53,58.63c-.38-.03-.36.3-.44.63-.15-.18-.24-.28-.36-.42-.14.32-.51.43-.5.81.19.07.38.14.6.22.13-.2.21-.48.36-.53.41-.13.36-.42.35-.71.68-.01.69-.03.57-.58-.2.18-.54.15-.59.57Z"/>
      <path class="st0" d="M63.14,34.12c-.02.22.04.39.26.45,0-.08.01-.16.02-.22.14.03.25.05.41.08-.13-.21-.23-.37-.33-.52-.14.08-.25.15-.36.21Z"/>
      <path class="st0" d="M73.45,23.36s.04.07.06.11h.29c.09-.24.19-.5.31-.85-.15.08-.27.1-.31.17-.06.1-.06.24-.1.35-.04.11-.29,0-.25.21Z"/>
      <path class="st0" d="M30.15,41.91c-.12.13-.2.22-.27.3-.09-.03-.19-.07-.31-.11v.37c.4.17.47-.16.6-.38.01-.02,0-.06-.03-.17Z"/>
      <path class="st0" d="M30.89,41.26c-.32-.31-.21.22-.43.21-.18,0-.11.21-.06.35.29-.08.44-.28.5-.56Z"/>
      <path class="st0" d="M73.32,21.09c.17-.11.35-.22.52-.32.13-.08.16-.2.14-.34-.36.09-.57.3-.66.66Z"/>
      <path class="st0" d="M45.57,30.53c-.06-.35-.39-.33-.61-.51-.03.11-.08.19-.06.22.08.13.53.31.67.29Z"/>
      <path class="st0" d="M70.04,46.43c.46.02.51-.03.44-.46-.22.08-.38.23-.44.46Z"/>
      <path class="st0" d="M63.88,55.98c-.22.3-.37.5-.56.76q.45-.16.56-.76Z"/>
      <path class="st0" d="M30.76,55.9c.12.53.12.53.54.71-.05-.32-.32-.42-.54-.71Z"/>
      <path class="st0" d="M67.37,30.47c-.01-.08,0-.2-.05-.23-.13-.11-.29-.18-.48-.29v.39c.19-.02.37,0,.53.13Z"/>
      <path class="st0" d="M83.44,19.1s-.05.16-.08.24c.03.01.06.02.08.04.15-.2.29-.4.47-.64-.4-.12-.25.33-.47.36Z"/>
      <path class="st0" d="M40.37,54.19q-.01-.48-.37-.58s0,0,.01-.01c-.03-.04-.06-.07-.09-.11-.01.01-.03.03-.04.04.04.03.07.06.11.09,0,0,0,0,.01-.01-.04.29.2.36.37.58Z"/>
      <path class="st0" d="M36.83,38.01c-.24.09-.49.19-.4.53.23-.03.34-.18.4-.53Z"/>
      <path class="st0" d="M27.84,55.45c.29.03.36-.12.44-.45-.3.11-.46.19-.44.45Z"/>
      <path class="st0" d="M28.02,42.77c-.06.15-.13.31-.2.46.03.02.06.05.09.07.1-.11.23-.2.3-.32.08-.15,0-.23-.19-.21Z"/>
      <path class="st0" d="M59.72,31.78c.34.07.21-.26.44-.36h-.46c0,.14.02.26.02.36Z"/>
      <path class="st0" d="M22.27,36.93v-.36c-.06.16-.44,0-.36.36h.36Z"/>
      <path class="st0" d="M70.75,23.25c.35-.09.5-.18.4-.5-.12.08-.21.12-.28.19-.05.05-.06.13-.13.31Z"/>
      <path class="st0" d="M35.77,38.43c-.12,0-.24-.01-.35,0-.03,0-.03.13-.05.22.2,0,.41.12.4-.23Z"/>
      <path class="st0" d="M36.85,38.01c.06,0,.14-.01.22-.02v-.38c-.09,0-.14.01-.22.02v.38Z"/>
      <path class="st0" d="M26.39,45.1c.05.02.11.06.12.05.09-.11.18-.22.36-.45-.36.08-.51.16-.48.4Z"/>
      <path class="st0" d="M27.47,42.49h.22v-.37h-.22v.37Z"/>
      <path class="st0" d="M25.59,46.21c.17-.08.29-.14.4-.2v-.2c-.25-.01-.38.11-.4.4Z"/>
      <path class="st0" d="M77.13,40.61v-.63c-.1.02-.17.03-.28.05.09.18.16.33.28.58Z"/>
      <path class="st0" d="M26.23,45.8v-.38c-.09,0-.14.01-.22.02v.38c.06,0,.14-.01.22-.02Z"/>
      <path class="st0" d="M73.61,21.77v.56c.11-.14.19-.23.29-.36-.12-.08-.2-.14-.29-.2Z"/>
      <path class="st0" d="M31.44,56.79c.1.15.02.48.38.35-.05-.22-.13-.37-.38-.35Z"/>
      <path class="st0" d="M63.95,55.98h.22v-.37h-.22v.37Z"/>
      <path class="st0" d="M52.94,67.97c.07.02.13.04.2.06.07-.13.13-.25.22-.4-.31-.02-.37.14-.41.34Z"/>
      <path class="st0" d="M25.65,41.54c-.12.09-.22.16-.36.26q.42.03.36-.26Z"/>
      <path class="st0" d="M66.16,38.18s-.07-.02-.1-.03c0,.1,0,.2-.02.29-.02.07-.08.12-.17.25.16-.03.24-.04.29-.05v-.46Z"/>
      <path class="st0" d="M74.4,26.1v.48c.13-.17.2-.28.31-.42-.13-.02-.21-.04-.31-.05Z"/>
      <path class="st0" d="M56.66,64.18c-.13.01-.27.02-.41.04.06.19.1.34.14.49.15-.12.25-.27.26-.45.18-.11.29-.19.42-.27-.1-.09-.16-.15-.22-.2-.06.12-.11.23-.19.39Z"/>
      <path class="st0" d="M62.54,57.66q.3-.03.28-.28c-.08.08-.19.19-.28.28Z"/>
      <path class="st0" d="M55.99,29.36c-.07-.12-.13-.23-.2-.34-.07.07-.13.13-.19.19.12.08.19.32.39.15Z"/>
      <path class="st0" d="M22.66,35.91c-.14.23-.21.36-.31.52.15-.01.23-.02.31-.02v-.5Z"/>
      <path class="st0" d="M56.22,29.55c.1.22.16.38.24.56q.05-.34-.24-.56Z"/>
      <path class="st0" d="M55.13,28.45c-.12.09-.22.16-.36.26q.42.03.36-.26Z"/>
      <path class="st0" d="M58.45,30.97c.14.01.23.02.33.03-.02-.17-.03-.28-.05-.51-.13.21-.19.32-.29.48Z"/>
      <path class="st0" d="M65.63,38.15s-.11.07-.11.11c-.02.22.15.13.26.15-.02-.11.07-.28-.15-.26Z"/>
      <path class="st0" d="M65.01,54.67c-.22-.02-.13.15-.15.26,0,0,0,0-.01-.01-.04.03-.07.06-.11.09.01.01.03.03.04.04.03-.04.06-.07.09-.11,0,0,0,0-.01-.01.11-.02.28.06.26-.15,0-.04-.07-.11-.11-.11Z"/>
      <path class="st0" d="M83.17,18.99c.06-.14.29-.17.13-.44-.06.14-.29.17-.13.44Z"/>
      <path class="st0" d="M82.57,19.53s.1.1.13.09c.06-.01.11-.07.21-.15-.1-.06-.17-.12-.2-.1-.06.03-.09.1-.14.16Z"/>
      <path class="st0" d="M75.67,39.19c.06,0,.12-.05.23-.1-.09-.09-.15-.16-.17-.15-.06.02-.12.08-.16.13,0,.01.06.12.1.12Z"/>
      <path class="st0" d="M61.95,32.67c-.12-.1-.16-.29-.4-.15.12.1.16.29.4.15Z"/>
      <path class="st0" d="M72.48,25.43c-.05-.09-.09-.17-.14-.26-.03.02-.06.03-.09.05.02.12.03.24.05.39.1-.1.16-.16.18-.18Z"/>
      <path class="st0" d="M44.62,39.93s-.07.05-.22.17h.67c-.22-.08-.32-.12-.45-.17Z"/>
      <path class="st0" d="M70.07,44.6c-.06.15-.3.17-.12.44.06-.15.3-.17.12-.44Z"/>
      <path class="st0" d="M56.28,65.19s.05.02.1.03v-.54c-.21.14-.08.35-.1.51Z"/>
      <path class="st0" d="M26.87,44.65c.07-.13.14-.24.2-.36-.17.05-.41.12-.2.36Z"/>
      <path class="st0" d="M33.1,55.91c-.04-.07-.12-.12-.18-.19-.03.02-.05.05-.08.07.06.11.13.23.27.47,0-.22.02-.3,0-.36Z"/>
      <path class="st0" d="M60.35,32.07c-.03-.06-.1-.09-.16-.14-.03.04-.1.1-.09.13.01.06.07.11.15.2.06-.1.12-.17.1-.2Z"/>
      <path class="st0" d="M59.45,60.75c-.22-.02-.13.15-.15.26-.06,0-.15-.03-.19,0-.21.18-.32.45-.58.58-.02.01,0,.14.02.23.5-.29.66-.47.76-.82.11-.02.28.07.26-.15,0-.04-.07-.11-.11-.11Z"/>
      <path class="st0" d="M65.52,36.69c-.09-.09-.18-.18-.26-.26-.04.22.05.3.26.26Z"/>
      <path class="st0" d="M42.73,37.99c-.04-.09-.08-.18-.15-.31-.1.28-.07.37.15.31Z"/>
      <path class="st0" d="M61.34,41.73c.04.09.08.18.15.31.1-.28.07-.37-.15-.31Z"/>
      <path class="st0" d="M58.04,44.89c.08-.08.14-.15.26-.27-.28,0-.39.03-.26.27Z"/>
      <path class="st0" d="M57.5,63.51s.04,0,.07,0v-.35s-.08,0-.12.01c.02.12.03.23.05.35Z"/>
      <path class="st0" d="M30.24,55.58s0,0,0,0c0,0,0,0,0,0,.07,0,.15,0,.26,0-.18-.12-.28-.18-.38-.25-.07.17-.02.23.11.25Z"/>
      <path class="st0" d="M67.37,30.47c.09.09.18.18.26.26.04-.22-.05-.3-.26-.26Z"/>
      <path class="st0" d="M45.74,30.89c.06.06.12.13.19.2.06-.23-.04-.26-.19-.2Z"/>
      <path class="st0" d="M9.97,72.47c-.18-.08-.27-.12-.32-.15q-.04.17.32.15Z"/>
      <path class="st0" d="M64.37,55.7s.04,0,.04,0c.02-.07.03-.14.05-.21-.05,0-.09,0-.14,0,.02.07.03.14.05.21Z"/>
      <path class="st0" d="M59.52,30.98c.02-.07.03-.14.05-.21-.05,0-.09,0-.14,0,.02.07.03.14.05.21,0,0,.04,0,.04,0Z"/>
      <path class="st0" d="M62.98,35.34v-.22s-.08,0-.11,0c.02.07.03.15.05.22.02,0,.04,0,.07,0Z"/>
      <path class="st0" d="M69.7,46.18c.02-.07.03-.14.05-.21-.05,0-.09,0-.14,0,.02.07.03.14.05.21,0,0,.04,0,.04,0Z"/>
      <path class="st0" d="M24.89,44.99c.02-.07.03-.14.05-.21-.05,0-.09,0-.14,0,.02.07.03.14.05.21,0,0,.04,0,.04,0Z"/>
      <path class="st0" d="M62.85,34.1c.1-.09.15-.12.15-.14,0-.06-.04-.12-.06-.19-.02.08-.05.16-.09.32Z"/>
      <path class="st0" d="M64.86,37.46s-.05-.06-.08-.1c-.01.01-.03.03-.04.04.04.03.07.06.11.09,0,0,0-.01.01-.01,0,.22.04.32.25.23-.07-.11-.13-.2-.25-.38,0,.05,0,.09,0,.13Z"/>
      <path class="st0" d="M58.7,32.07s-.03.03-.04.04c.03.03.06.05.1.08-.04,0-.08,0-.13,0,.18.12.28.18.38.25.09-.21,0-.25-.23-.25,0,0,.01-.01.01-.01-.03-.04-.06-.07-.09-.11Z"/>
      <path class="st0" d="M63.72,35.25s-.03.03-.04.04c.04.03.07.06.11.09,0,0,0,0,0,0,.02.08.03.17.05.25.03,0,.06,0,.09-.01,0-.08-.01-.17-.02-.25-.03,0-.07,0-.1,0,0,0,0,0,.01-.01-.03-.04-.06-.07-.09-.11Z"/>
      <path class="st0" d="M33.14,51.28s.07.06.11.09c.03.04.06.07.09.11.01-.01.03-.03.04-.04-.04-.03-.07-.06-.11-.09-.03-.04-.06-.07-.09-.11-.01.01-.03.03-.04.04Z"/>
      <path class="st0" d="M63.39,34.58s.06.07.09.11c.01-.01.03-.03.04-.04-.04-.03-.07-.06-.11-.09,0,0-.02.02-.03.03Z"/>
      <path class="st0" d="M63.13,33.7s-.03-.03-.04-.04c-.03.04-.06.07-.09.11,0,0,.02.02.03.03.04-.03.07-.06.11-.09Z"/>
      <path class="st0" d="M62.73,34.45s.06.07.09.11c.01-.01.03-.03.04-.04-.04-.03-.07-.06-.11-.09,0,0-.02.02-.03.03Z"/>
      <path class="st0" d="M61.43,33.17s.07.06.11.09c0,0,.02-.02.03-.03-.03-.04-.06-.07-.09-.11-.01.01-.03.03-.04.04Z"/>
      <path class="st0" d="M9.19,72s.06.07.09.11c.01-.01.03-.03.04-.04-.04-.03-.07-.06-.11-.09,0,0-.02.02-.03.03Z"/>
      <path class="st0" d="M9.04,71.99c-.11-.1-.24-.21-.36-.31.02.21.15.32.36.31Z"/>
      <path class="st0" d="M30.22,55.6s.06.07.09.11c.01-.01.03-.03.04-.04-.03-.03-.07-.06-.1-.09,0,0,0,0-.01,0,0,0-.01.01-.02.02Z"/>
      <path class="st0" d="M67.59,30.86s.03-.03.04-.04c-.04-.03-.07-.06-.11-.09,0,0-.02.02-.03.03.03.04.06.07.09.11Z"/>
      <path class="st0" d="M62.54,34.32s-.03.03-.04.04c.04.03.07.06.11.09,0,0,.02-.02.03-.03-.03-.04-.06-.07-.09-.11Z"/>
      <path class="st0" d="M25.35,44.96s.03.03.04.04c.03-.04.06-.07.09-.11l-.03-.03s-.07.06-.11.09Z"/>
      <path class="st0" d="M61.51,33.37s.03-.03.04-.04c-.04-.03-.07-.06-.11-.09,0,0-.02.02-.03.03.03.04.06.07.09.11Z"/>
      <path class="st0" d="M73.18,21.07s-.07.06-.11.09c.01.01.03.03.04.04.03-.04.06-.07.09-.11,0,0-.02-.02-.03-.03Z"/>
      <path class="st0" d="M62.61,45.66c-.06,0-.09.02-.11.04.04,0,.07-.02.11-.03,0,0,0-.01,0-.02Z"/>
      <polygon class="st0" points="41.5 55.19 41.5 55.2 41.51 55.2 41.5 55.19"/>
      <path class="st0" d="M37.92,62.99s.02.03.03.05c.01-.02.02-.03.03-.05-.02,0-.04,0-.05,0Z"/>
      <path class="st0" d="M59.47,30.27s.03-.06.05-.09c-.01,0-.03-.02-.05-.03v.12Z"/>
      <path class="st0" d="M34.07,54.25c0,.06,0,.11,0,.16.03,0,.07,0,.11,0-.03-.05-.06-.1-.1-.16Z"/>
      <path class="st0" d="M41.71,66.56c.1,0,.19,0,.25,0-.06-.01-.12-.03-.17-.05-.03.02-.05.03-.08.05Z"/>
      <path class="st0" d="M58.24,30.07s0,0,0,0h.07s-.05,0-.08,0Z"/>
      <path class="st0" d="M47.91,59.55s-.05,0-.07,0h.07s0,0,0,0Z"/>
      <path class="st0" d="M31.94,25.05s0,0,0,0c-.03-.01-.07-.02-.1-.03v.03s.07,0,.1,0Z"/>
      <polygon class="st0" points="24.98 40.69 24.99 40.68 24.98 40.69 24.98 40.69"/>
      <path class="st0" d="M18.34,38.97s.01,0,.02,0c0-.01,0-.03,0-.04,0,.01,0,.03,0,.04Z"/>
      <path class="st0" d="M46.48,41.7s.02.02.03.03l.07-.06s-.02-.03-.03-.04c-.02.03-.04.05-.07.08Z"/>
      <path class="st0" d="M29.44,45.54s-.09,0-.13,0h.12s0,0,0,0Z"/>
      <path class="st0" d="M74.51,20.55h0s.05-.05.08-.08c-.02.03-.05.06-.08.08Z"/>
      <path class="st0" d="M74.41,20.56s.05,0,.09,0c-.04-.03-.08-.05-.12-.07.01.03.02.05.03.08Z"/>
      <path class="st0" d="M70.56,28.77s.02-.02.03-.02c-.02,0-.03,0-.05,0,0,0,.01.01.02.02Z"/>
      <path class="st0" d="M67.92,28.11s.02-.02.03-.02c-.02,0-.03,0-.05,0,0,0,.01.01.02.02Z"/>
    </g>
    <g>
      <polygon class="st0" points="136.13 26.26 136.13 22.89 155.43 22.89 155.43 26.26 147.57 26.26 147.57 57.46 143.99 57.46 143.99 26.26 136.13 26.26"/>
      <path class="st0" d="M175.98,22.85c5.24.05,9.63,1.8,13.17,5.24,3.59,3.49,5.4,7.79,5.4,12.9s-1.79,9.36-5.38,12.88c-3.59,3.52-7.97,5.29-13.13,5.29h-.06v-3.37c2.71-.01,5.22-.66,7.52-1.95,2.33-1.3,4.15-3.08,5.45-5.34,1.3-2.25,1.96-4.76,1.96-7.52s-.65-5.22-1.96-7.44c-1.3-2.21-3.14-3.99-5.51-5.32-2.34-1.32-4.83-1.99-7.47-2v-3.37ZM175.75,22.85c.08,0,.15,0,.23,0v3.37s-.05,0-.07,0c-2.6,0-5.08.67-7.42,2-2.33,1.33-4.16,3.12-5.48,5.38-1.31,2.26-1.97,4.77-1.97,7.55,0,4.1,1.45,7.57,4.36,10.39,2.91,2.83,6.41,4.25,10.5,4.25.02,0,.05,0,.07,0v3.37c-5.2-.01-9.59-1.77-13.17-5.26-3.59-3.51-5.4-7.75-5.4-12.73,0-3.32.82-6.4,2.46-9.24,1.64-2.83,3.87-5.06,6.71-6.66,2.82-1.6,5.89-2.41,9.18-2.41Z"/>
      <path class="st0" d="M105.4,22.95h3.54v20.88c0,2.47.05,4.02.15,4.63.17,1.36.58,2.5,1.22,3.42.64.92,1.62,1.68,2.95,2.3,1.33.62,2.66.93,4.01.93,1.16,0,2.28-.24,3.36-.73,1.06-.48,1.96-1.16,2.69-2.02.72-.86,1.24-1.9,1.58-3.12.24-.88.36-2.68.36-5.41v-20.88h3.54v20.86c0,3.09-.31,5.59-.92,7.49-.61,1.9-1.85,3.56-3.69,4.97-1.85,1.41-4.09,2.12-6.71,2.12-2.85,0-5.29-.67-7.32-2-2.04-1.33-3.4-3.09-4.09-5.29-.43-1.35-.65-3.77-.65-7.29v-20.86Z"/>
    </g>
    <path class="st0" d="M223.18,36.73h-8.46v3.27h7.53c1.07,0,1.8.19,2.19.58.39.39.59,1.12.59,2.19v1.32c0,1.08-.19,1.82-.58,2.2-.39.39-1.12.58-2.2.58h-6.98c-1.08,0-1.82-.19-2.21-.58-.39-.39-.59-1.12-.59-2.2v-.32l1.85-.42v1.89h8.9v-3.52h-7.51c-1.09,0-1.82-.19-2.21-.58-.38-.39-.58-1.12-.58-2.19v-1.02c0-1.07.19-1.8.58-2.19.39-.39,1.12-.58,2.21-.58h6.37c1.07,0,1.8.19,2.21.57.41.38.61,1.04.61,2v.25l-1.72.48v-1.7h0ZM232.91,45.23h9.9v-8.5h-9.9v8.5h0ZM230.91,37.9c0-1.06.19-1.79.58-2.18.39-.39,1.13-.59,2.23-.59h8.27c1.08,0,1.82.19,2.2.58.39.39.58,1.12.58,2.19v6.18c0,1.08-.19,1.82-.58,2.2-.39.39-1.12.58-2.2.58h-8.27c-1.09,0-1.84-.2-2.23-.59-.39-.39-.58-1.12-.58-2.19v-6.18h0ZM250.85,46.86v-11.72h1.99v10.09h9.06v1.64h-11.06ZM266.82,35.14v10.09h8.71v-10.09h1.97v8.94c0,1.08-.19,1.82-.58,2.2-.39.39-1.12.58-2.2.58h-7.1c-1.08,0-1.82-.2-2.21-.59-.39-.39-.59-1.13-.59-2.19v-8.94h1.99ZM288.37,36.73v10.13h-1.99v-10.13h-5.47v-1.59h12.96v1.59h-5.49ZM297.23,46.86v-11.72h1.99v11.72h-1.99ZM307.27,45.23h9.9v-8.5h-9.9v8.5h0ZM305.27,37.9c0-1.06.19-1.79.58-2.18.39-.39,1.13-.59,2.23-.59h8.27c1.08,0,1.81.19,2.2.58s.58,1.12.58,2.19v6.18c0,1.08-.19,1.82-.58,2.2-.39.39-1.12.58-2.2.58h-8.27c-1.09,0-1.83-.2-2.23-.59-.39-.39-.58-1.12-.58-2.19v-6.18h0ZM325.21,46.86v-11.72h1.26l8.95,7.84c.2.18.42.39.65.64.23.25.46.53.71.83-.06-.37-.1-.77-.14-1.18-.03-.41-.05-.98-.05-1.7v-6.43h1.83v11.72h-1.12l-9.19-8.15s-.11-.09-.2-.18c-.46-.4-.79-.78-1.01-1.14.05.35.08.73.1,1.14.02.4.03.88.03,1.42v6.91h-1.83ZM354.82,36.73h-8.46v3.27h7.53c1.07,0,1.8.19,2.19.58.39.39.59,1.12.59,2.19v1.32c0,1.08-.19,1.82-.58,2.2-.39.39-1.12.58-2.2.58h-6.98c-1.08,0-1.82-.19-2.21-.58-.39-.39-.59-1.12-.59-2.2v-.32l1.86-.42v1.89h8.9v-3.52h-7.51c-1.09,0-1.82-.19-2.21-.58-.38-.39-.58-1.12-.58-2.19v-1.02c0-1.07.19-1.8.58-2.19.39-.39,1.12-.58,2.21-.58h6.37c1.07,0,1.8.19,2.21.57.41.38.61,1.04.61,2v.25l-1.72.48v-1.7Z"/>
  </g>
</svg>