<svg width="253" height="32" viewBox="0 0 253 32" fill="none" xmlns="http://www.w3.org/2000/svg">
<path d="M117.804 12.0967H109.285V14.9891H116.871C117.944 14.9891 118.679 15.1602 119.076 15.4981C119.473 15.8403 119.671 16.4857 119.671 17.4334V18.5983C119.671 19.5555 119.476 20.2051 119.088 20.5431C118.699 20.8842 117.96 21.0552 116.871 21.0552H109.841C108.752 21.0552 108.008 20.8852 107.611 20.5399C107.218 20.1957 107.02 19.5492 107.02 18.5983V18.3139L108.887 17.9424V19.609H117.85V16.4962H110.286C109.194 16.4962 108.454 16.3251 108.065 15.9809C107.681 15.6398 107.486 14.9933 107.486 14.0425V13.142C107.486 12.1943 107.681 11.5489 108.065 11.2067C108.454 10.8625 109.194 10.6914 110.286 10.6914H116.697C117.771 10.6914 118.509 10.8583 118.918 11.1973C119.327 11.5321 119.529 12.1208 119.529 12.9646V13.1819L117.802 13.6038V12.0967H117.804ZM127.603 19.609H137.569V12.0967H127.603V19.609ZM125.596 13.1346C125.596 12.1974 125.79 11.5541 126.182 11.2099C126.576 10.8646 127.323 10.6914 128.424 10.6914H136.748C137.837 10.6914 138.577 10.8625 138.966 11.2036C139.359 11.5488 139.553 12.1911 139.553 13.1357V18.5994C139.553 19.5565 139.358 20.2062 138.966 20.5441C138.577 20.8852 137.837 21.0563 136.748 21.0563H128.424C127.323 21.0563 126.576 20.8821 126.182 20.5336C125.79 20.1883 125.596 19.5429 125.596 18.5983V13.1346ZM145.669 21.0552V10.6914H147.676V19.609H156.803V21.0552H145.669ZM161.751 10.6914V19.609H170.526V10.6914H172.51V18.5983C172.51 19.5555 172.315 20.2051 171.922 20.5431C171.529 20.8842 170.79 21.0552 169.704 21.0552H162.559C161.47 21.0552 160.726 20.881 160.334 20.5368C159.941 20.1883 159.742 19.5418 159.742 18.5983V10.6914H161.751ZM183.457 12.0967V21.0552H181.45V12.0967H175.942V10.6914H188.989V12.0967H183.457ZM192.373 21.0552V10.6914H194.38V21.0552H192.373ZM202.48 19.609H212.447V12.0967H202.48V19.609ZM200.473 13.1346C200.473 12.1974 200.667 11.5541 201.06 11.2099C201.452 10.8646 202.2 10.6914 203.301 10.6914H211.626C212.715 10.6914 213.454 10.8625 213.842 11.2036C214.235 11.5488 214.43 12.1911 214.43 13.1357V18.5994C214.43 19.5565 214.235 20.2062 213.842 20.5441C213.454 20.8852 212.715 21.0563 211.626 21.0563H203.301C202.2 21.0563 201.453 20.8821 201.06 20.5336C200.667 20.1883 200.473 19.5429 200.473 18.5983V13.1346ZM220.546 21.0552V10.6914H221.81L230.82 17.6244C231.027 17.7818 231.244 17.9686 231.477 18.1932C231.707 18.4136 231.945 18.6582 232.19 18.9268C232.128 18.5952 232.085 18.2468 232.053 17.8826C232.022 17.5216 232.007 17.0188 232.007 16.3797V10.6925H233.85V21.0563H232.723L223.472 13.8483C223.429 13.8147 223.358 13.7643 223.27 13.6909C222.811 13.3393 222.473 13.0003 222.254 12.6834C222.3 12.994 222.332 13.3299 222.355 13.6877C222.379 14.0425 222.39 14.4644 222.39 14.9461V21.0552H220.546ZM250.371 12.0967H241.852V14.9891H249.438C250.511 14.9891 251.246 15.1602 251.643 15.4981C252.04 15.8403 252.238 16.4857 252.238 17.4334V18.5983C252.238 19.5555 252.044 20.2051 251.655 20.5431C251.265 20.8842 250.527 21.0552 249.438 21.0552H242.408C241.319 21.0552 240.575 20.8852 240.178 20.5399C239.785 20.1957 239.587 19.5492 239.587 18.5983V18.3139L241.454 17.9424V19.609H250.417V16.4962H242.854C241.76 16.4962 241.021 16.3251 240.633 15.9809C240.248 15.6398 240.053 14.9933 240.053 14.0425V13.142C240.053 12.1943 240.248 11.5489 240.633 11.2067C241.022 10.8625 241.761 10.6914 242.854 10.6914H249.264C250.338 10.6914 251.076 10.8583 251.485 11.1973C251.894 11.5321 252.096 12.1208 252.096 12.9646V13.1819L250.369 13.6038V12.0967H250.371Z" fill="#959595"/>
<path d="M29.8545 2.99067V0.0390625H49.1094V2.99067H41.27V30.3131H37.6939V2.99067H29.8545Z" fill="#F0EBE1"/>
<path d="M68.4361 0.00107762C73.6597 0.0447452 78.0421 1.57635 81.5752 4.58941C85.16 7.64614 86.9566 11.4129 86.9566 15.8826C86.9566 20.3523 85.1679 24.0765 81.5912 27.1618C78.0065 30.2466 73.6456 31.7927 68.4926 31.7927C68.4736 31.7927 68.4545 31.7927 68.4355 31.7927V28.8416C71.1428 28.8314 73.6419 28.2621 75.9402 27.1343C78.2674 25.9957 80.0807 24.4355 81.3787 22.4608C82.6768 20.486 83.3307 18.2935 83.3307 15.8761C83.3307 13.4588 82.6774 11.3013 81.3787 9.36212C80.0807 7.42242 78.2429 5.86925 75.8831 4.70316C73.5449 3.54732 71.0624 2.96401 68.4355 2.95376V0.00269487L68.4361 0.00107762ZM68.2071 0C68.2839 0 68.3606 -5.92321e-07 68.4361 0.00107762L68.4355 2.95215C68.411 2.95215 68.387 2.95215 68.3618 2.95215C65.7651 2.95215 63.2991 3.53546 60.964 4.70208C58.6368 5.86817 56.8155 7.43589 55.5009 9.41064C54.1942 11.3924 53.5409 13.5919 53.5409 16.0233C53.5409 19.6143 54.9863 22.6505 57.8852 25.124C60.7841 27.6049 64.2791 28.8416 68.3618 28.8416C68.3864 28.8416 68.411 28.8416 68.4355 28.8416V31.7927C63.2506 31.7814 58.8683 30.2428 55.2964 27.1828C51.7117 24.1121 49.915 20.3944 49.915 16.0303C49.915 13.1213 50.7317 10.4295 52.365 7.94211C53.9984 5.46169 56.2273 3.51443 59.0531 2.10898C61.8703 0.703533 64.9245 0 68.2071 0Z" fill="#F0EBE1"/>
<path d="M0 0.0898438H3.52763V18.3753C3.52763 20.5398 3.57674 21.8962 3.67437 22.4304C3.84569 23.6251 4.25403 24.623 4.89139 25.4241C5.52815 26.2252 6.50814 26.8996 7.83138 27.4409C9.15401 27.9821 10.4852 28.256 11.8324 28.256C12.9923 28.256 14.1105 28.0452 15.1808 27.6166C16.2424 27.195 17.1407 26.6047 17.8592 25.8456C18.5776 25.0936 19.1001 24.1798 19.4348 23.1118C19.6718 22.3388 19.794 20.7646 19.794 18.3753V0.0898438H23.3216V18.3612C23.3216 21.067 23.0115 23.2525 22.3993 24.9178C21.7865 26.5831 20.5535 28.0377 18.7164 29.2679C16.8706 30.5046 14.6416 31.123 12.0203 31.123C9.17858 31.123 6.74516 30.5396 4.72008 29.373C2.68701 28.2064 1.33123 26.6672 0.645357 24.7421C0.212464 23.5615 0.000614633 21.4395 0.000614633 18.3612V0.0898438H0Z" fill="#F0EBE1"/>
</svg>
