<svg width="167" height="167" viewBox="0 0 167 167" fill="none" xmlns="http://www.w3.org/2000/svg">
<path d="M151 83.5C151 46.2208 120.779 16 83.5 16C46.2208 16 16 46.2208 16 83.5C16 120.779 46.2208 151 83.5 151C120.779 151 151 120.779 151 83.5ZM107.594 83.5L77.7686 114.543L66.2314 103.457L85.4053 83.5L66.2314 63.543L77.7686 52.457L107.594 83.5ZM167 83.5C167 129.616 129.616 167 83.5 167C37.3842 167 0 129.616 0 83.5C0 37.3842 37.3842 0 83.5 0C129.616 0 167 37.3842 167 83.5Z" fill="white"/>
</svg>
