<svg width="3452" height="534" viewBox="0 0 3452 534" fill="none" xmlns="http://www.w3.org/2000/svg">
<path d="M68.3391 134H41.5391L0.139063 1.99999H29.5391L56.1391 96.8L82.9391 1.99999H112.539L136.739 96.8L167.339 1.99999H196.739L150.339 134H123.739L97.3391 36.2L68.3391 134ZM230.966 136C202.566 136 176.366 115.6 176.366 83.6C176.366 48.6 202.566 30.6 230.966 30.6C258.966 30.6 281.166 48.4 284.166 78.8C284.566 82 284.566 86 284.166 89.4H202.966C204.966 103.8 217.766 113 230.966 113C241.566 113.2 251.566 108.6 256.566 100L277.566 110.6C268.366 126.4 250.966 136 230.966 136ZM204.966 74L257.766 73.8C255.166 61 243.166 53 230.966 53.2C219.166 53.2 207.566 61 204.966 74ZM382.306 134H333.506L333.706 1.99999H383.106C419.506 1.99999 454.706 22.2 454.706 66.6C454.706 108.4 422.306 134 382.306 134ZM361.706 26.2V109.6H383.106C410.106 109.6 426.306 90.8 426.506 68.2C426.706 43.8 410.906 26.2 384.106 26.2H361.706ZM516.728 136C486.128 136 460.128 115 459.928 83.8C459.728 51.2 484.928 30.6 516.728 30.6C549.128 30.6 574.128 51.2 573.928 83.8C573.728 114.6 549.928 136 516.728 136ZM516.528 113C532.928 113 545.728 100.8 545.728 83.6C545.728 66.4 533.328 53.6 516.728 53.6C500.528 53.6 487.928 65.8 487.928 83.6C487.928 100.2 500.528 113 516.528 113ZM608.323 134H579.123V32.6H607.323V56.6C612.523 39.8 629.723 30.8 646.523 30.6C673.923 30.4 694.923 50.2 694.923 83.8V134H666.923V83.6C666.923 64.4 653.923 53.4 637.723 53.6C621.723 53.8 608.323 64.8 608.323 83.6V134ZM734.677 35.8L715.477 47.6C700.477 30.6 699.477 23.6 700.477 1.99999H726.277C725.277 20 726.877 24 734.677 35.8ZM813.38 107.4L817.78 131.4C790.98 142.4 755.18 131.2 755.18 94.6V55.6H739.78V31.4C757.38 31.2 755.18 21.2 755.18 1.99999H783.18L783.38 31.4H810.58V55.6H783.18V91C783.18 107.8 797.58 113.6 813.38 107.4ZM916.033 136C892.633 136 867.433 123.6 867.233 89.4H892.833C894.033 103.6 902.233 113 916.033 113C930.833 113 938.033 101 938.033 87.8V1.99999H963.633V87.2C963.633 123.4 939.433 136 916.033 136ZM1014.05 136C987.45 136.2 968.85 117.6 968.85 85.4V32.6H997.05V85.4C997.05 102.4 1006.65 113.2 1022.65 113C1039.05 112.6 1048.85 100.2 1048.85 82.4V32.6H1078.05V134H1049.85V109C1045.85 127.4 1029.05 135.8 1014.05 136ZM1127.56 136C1103.56 135.4 1083.36 121.8 1083.16 99H1108.76C1109.76 110.2 1117.96 115.2 1127.96 115.6C1136.16 115.8 1143.56 111.8 1143.76 104.8C1143.96 97.4 1138.96 94 1126.76 92C1100.96 88.8 1083.76 82.8 1083.36 62C1082.96 43 1100.36 30.6 1124.76 30.6C1149.96 30.6 1169.36 43 1170.16 67.2H1144.56C1143.96 57.8 1136.56 51.4 1125.76 51.2C1116.56 51 1110.56 56 1110.56 63C1110.76 69.8 1115.76 73.8 1128.96 76.2C1157.56 81.2 1170.76 85.6 1170.56 106.6C1170.56 126.4 1152.16 136.6 1127.56 136ZM1246.66 107.4L1251.06 131.4C1224.26 142.4 1188.46 131.2 1188.46 94.6V55.6H1173.06V31.4C1190.66 31.2 1188.46 21.2 1188.46 1.99999H1216.46L1216.66 31.4H1243.86V55.6H1216.46V91C1216.46 107.8 1230.86 113.6 1246.66 107.4ZM1353.11 136C1326.91 135.4 1303.71 119.8 1302.31 92.4H1327.91C1329.11 108.2 1343.71 114 1353.71 114.2C1365.11 114.4 1376.71 109.6 1377.11 97.4C1377.31 85 1367.11 80.8 1350.11 78.2C1321.11 74.6 1300.51 62.6 1300.51 38C1300.71 14.2 1322.91 -3.33786e-06 1348.51 -3.33786e-06C1374.71 -3.33786e-06 1399.11 15.6 1400.11 42.6H1374.31C1373.11 27.6 1361.11 21.8 1348.51 21.8C1337.31 21.8 1327.51 28.2 1327.51 38.4C1327.31 47.8 1335.31 53.6 1353.11 56.4C1386.31 61.2 1404.91 73.2 1403.91 99.8C1403.11 125.6 1378.31 136.6 1353.11 136ZM1465.96 136C1435.36 136 1409.36 115 1409.16 83.8C1408.96 51.2 1434.16 30.6 1465.96 30.6C1498.36 30.6 1523.36 51.2 1523.16 83.8C1522.96 114.6 1499.16 136 1465.96 136ZM1465.76 113C1482.16 113 1494.96 100.8 1494.96 83.6C1494.96 66.4 1482.56 53.6 1465.96 53.6C1449.76 53.6 1437.16 65.8 1437.16 83.6C1437.16 100.2 1449.76 113 1465.76 113ZM1556.56 134H1528.36V1.99999H1556.56V134ZM1631.61 134H1604.81L1561.81 32.6H1590.01L1618.21 104.2L1646.21 32.6H1674.41L1631.61 134ZM1718.61 136C1690.21 136 1664.01 115.6 1664.01 83.6C1664.01 48.6 1690.21 30.6 1718.61 30.6C1746.61 30.6 1768.81 48.4 1771.81 78.8C1772.21 82 1772.21 86 1771.81 89.4H1690.61C1692.61 103.8 1705.41 113 1718.61 113C1729.21 113.2 1739.21 108.6 1744.21 100L1765.21 110.6C1756.01 126.4 1738.61 136 1718.61 136ZM1692.61 74L1745.41 73.8C1742.81 61 1730.81 53 1718.61 53.2C1706.81 53.2 1695.21 61 1692.61 74ZM1888.75 134H1860.75L1860.95 26.4L1821.15 26.2V1.99999H1928.75V26.2L1888.95 26.4L1888.75 134ZM1960.82 136C1930.22 136 1904.22 115 1904.02 83.8C1903.82 51.2 1929.02 30.6 1960.82 30.6C1993.22 30.6 2018.22 51.2 2018.02 83.8C2017.82 114.6 1994.02 136 1960.82 136ZM1960.62 113C1977.02 113 1989.82 100.8 1989.82 83.6C1989.82 66.4 1977.42 53.6 1960.82 53.6C1944.62 53.6 1932.02 65.8 1932.02 83.6C1932.02 100.2 1944.62 113 1960.62 113ZM2073.22 136C2044.42 136.2 2023.22 113 2023.22 83.8C2023.22 50.2 2044.22 30.4 2071.82 30.6C2088.62 30.8 2105.82 39.8 2111.02 56.6V1.99999H2139.02V134H2111.02V109.6C2106.22 125.4 2089.82 135.8 2073.22 136ZM2080.62 112.6C2096.22 112.4 2109.82 100.8 2109.82 83.6C2109.82 64.8 2096.42 53.8 2080.62 53.6C2064.42 53.4 2051.22 64.4 2051.22 83.6C2051.22 101 2064.62 113 2080.62 112.6ZM2194.17 136C2165.37 136.2 2144.17 113 2144.17 83.8C2144.17 50.2 2165.17 30.4 2192.77 30.6C2209.57 30.8 2226.77 39.8 2231.97 56.6V32.6H2259.97V134H2231.97V109.6C2227.17 125.4 2210.77 135.8 2194.17 136ZM2201.57 112.6C2217.17 112.4 2230.77 100.8 2230.77 83.6C2230.77 65 2217.37 53.8 2201.57 53.6C2185.37 53.4 2172.17 64.4 2172.17 83.6C2172.17 101 2185.57 113 2201.57 112.6ZM2265.12 154L2280.72 137.8C2285.52 143.6 2297.32 145 2301.92 135.4L2307.12 124.4L2267.92 32.6H2295.92L2321.12 102.8L2349.72 32.6H2377.72L2324.72 141.4C2310.92 170 2282.92 170.2 2265.12 154ZM2417.55 35.8L2398.35 47.6C2383.35 30.6 2382.35 23.6 2383.35 1.99999H2409.15C2408.15 20 2409.75 24 2417.55 35.8ZM2467.05 136C2443.05 135.4 2422.85 121.8 2422.65 99H2448.25C2449.25 110.2 2457.45 115.2 2467.45 115.6C2475.65 115.8 2483.05 111.8 2483.25 104.8C2483.45 97.4 2478.45 94 2466.25 92C2440.45 88.8 2423.25 82.8 2422.85 62C2422.45 43 2439.85 30.6 2464.25 30.6C2489.45 30.6 2508.85 43 2509.65 67.2H2484.05C2483.45 57.8 2476.05 51.4 2465.25 51.2C2456.05 51 2450.05 56 2450.05 63C2450.25 69.8 2455.25 73.8 2468.45 76.2C2497.05 81.2 2510.25 85.6 2510.05 106.6C2510.05 126.4 2491.65 136.6 2467.05 136ZM2587.48 134H2559.48V1.99999H2612.88C2654.08 1.99999 2664.28 26.2 2664.28 44.2C2664.28 64.6 2651.08 85.2 2612.88 85.2H2587.48V134ZM2587.48 26.2V61H2612.88C2627.88 61 2636.08 56.6 2636.08 44.2C2636.08 33.2 2629.48 26.2 2612.68 26.2H2587.48ZM2698.9 134H2669.5V32.6H2697.7V58.4C2703.3 36.6 2729.7 26.6 2750.5 36.2L2735.7 59.2C2722.3 50.8 2698.9 62 2698.9 83.6V134ZM2794.91 136C2764.31 136 2738.31 115 2738.11 83.8C2737.91 51.2 2763.11 30.6 2794.91 30.6C2827.31 30.6 2852.31 51.2 2852.11 83.8C2851.91 114.6 2828.11 136 2794.91 136ZM2794.71 113C2811.11 113 2823.91 100.8 2823.91 83.6C2823.91 66.4 2811.51 53.6 2794.91 53.6C2778.71 53.6 2766.11 65.8 2766.11 83.6C2766.11 100.2 2778.71 113 2794.71 113ZM2923.1 136C2906.5 135.8 2890.3 125.4 2885.3 109.6V134H2857.3V1.99999H2885.5V56.6C2890.7 39.8 2907.9 30.8 2924.7 30.6C2952.1 30.4 2973.1 50.2 2973.1 83.8C2973.1 113 2952.1 136.2 2923.1 136ZM2915.9 112.6C2931.7 113 2945.1 101 2945.1 83.6C2945.1 64.4 2932.1 53.4 2915.9 53.6C2899.9 53.8 2886.5 64.8 2886.5 83.6C2886.5 100.8 2900.1 112.4 2915.9 112.6ZM3006.46 134H2978.26V1.99999H3006.46V134ZM3066.31 136C3037.91 136 3011.71 115.6 3011.71 83.6C3011.71 48.6 3037.91 30.6 3066.31 30.6C3094.31 30.6 3116.51 48.4 3119.51 78.8C3119.91 82 3119.91 86 3119.51 89.4H3038.31C3040.31 103.8 3053.11 113 3066.31 113C3076.91 113.2 3086.91 108.6 3091.91 100L3112.91 110.6C3103.71 126.4 3086.31 136 3066.31 136ZM3040.31 74L3093.11 73.8C3090.51 61 3078.51 53 3066.31 53.2C3054.51 53.2 3042.91 61 3040.31 74ZM3154.05 134H3124.85V32.6H3152.85V56.6C3156.45 40.6 3172.45 30.8 3187.45 30.6C3205.65 30.4 3219.25 39.8 3225.45 57C3231.85 40.4 3248.05 30.4 3264.45 30.6C3290.25 31 3308.65 49 3308.65 81.2V134H3280.45V81.2C3280.45 64.4 3271.05 53.4 3255.65 53.6C3240.25 53.8 3231.45 64.6 3231.45 81.4V134H3203.45V81.2C3203.45 64.2 3193.85 53.2 3178.65 53.6C3164.05 54 3154.25 66 3154.25 81L3154.05 134ZM3358.17 136C3334.17 135.4 3313.97 121.8 3313.77 99H3339.37C3340.37 110.2 3348.57 115.2 3358.57 115.6C3366.77 115.8 3374.17 111.8 3374.37 104.8C3374.57 97.4 3369.57 94 3357.37 92C3331.57 88.8 3314.37 82.8 3313.97 62C3313.57 43 3330.97 30.6 3355.37 30.6C3380.57 30.6 3399.97 43 3400.77 67.2H3375.17C3374.57 57.8 3367.17 51.4 3356.37 51.2C3347.17 51 3341.17 56 3341.17 63C3341.37 69.8 3346.37 73.8 3359.57 76.2C3388.17 81.2 3401.37 85.6 3401.17 106.6C3401.17 126.4 3382.77 136.6 3358.17 136ZM526.225 276.4H458.225V251H526.225V276.4ZM643.722 317H616.922L575.522 185H604.922L631.522 279.8L658.322 185H687.922L712.122 279.8L742.722 185H772.122L725.722 317H699.122L672.722 219.2L643.722 317ZM806.348 319C777.948 319 751.748 298.6 751.748 266.6C751.748 231.6 777.948 213.6 806.348 213.6C834.348 213.6 856.548 231.4 859.548 261.8C859.948 265 859.948 269 859.548 272.4H778.348C780.348 286.8 793.148 296 806.348 296C816.948 296.2 826.948 291.6 831.948 283L852.948 293.6C843.748 309.4 826.348 319 806.348 319ZM780.348 257L833.148 256.8C830.548 244 818.548 236 806.348 236.2C794.548 236.2 782.948 244 780.348 257ZM936.889 317H908.889V185H962.289C1003.49 185 1013.69 209.2 1013.69 227.2C1013.69 247.6 1000.49 268.2 962.289 268.2H936.889V317ZM936.889 209.2V244H962.289C977.289 244 985.489 239.6 985.489 227.2C985.489 216.2 978.889 209.2 962.089 209.2H936.889ZM1048.3 317H1018.9V215.6H1047.1V241.4C1052.7 219.6 1079.1 209.6 1099.9 219.2L1085.1 242.2C1071.7 233.8 1048.3 245 1048.3 266.6V317ZM1142.11 319C1113.71 319 1087.51 298.6 1087.51 266.6C1087.51 231.6 1113.71 213.6 1142.11 213.6C1170.11 213.6 1192.31 231.4 1195.31 261.8C1195.71 265 1195.71 269 1195.31 272.4H1114.11C1116.11 286.8 1128.91 296 1142.11 296C1152.71 296.2 1162.71 291.6 1167.71 283L1188.71 293.6C1179.51 309.4 1162.11 319 1142.11 319ZM1116.11 257L1168.91 256.8C1166.31 244 1154.31 236 1142.11 236.2C1130.31 236.2 1118.71 244 1116.11 257ZM1228.85 351H1200.65V216.8H1228.65V240.6C1233.45 225 1249.65 214.4 1266.05 214.4C1294.85 214 1315.85 237.2 1315.85 266.2C1315.85 299.6 1294.85 319.2 1267.65 319C1251.05 318.8 1233.85 309.8 1228.85 293.2V351ZM1258.85 296C1274.85 296.2 1287.65 285.4 1287.65 266.2C1287.65 249 1274.45 237.4 1258.85 237.6C1243.25 237.8 1229.85 249.4 1229.85 266.2C1229.85 285 1243.05 295.6 1258.85 296ZM1371.02 319C1342.22 319.2 1321.02 296 1321.02 266.8C1321.02 233.2 1342.02 213.4 1369.62 213.6C1386.42 213.8 1403.62 222.8 1408.82 239.6V215.6H1436.82V317H1408.82V292.6C1404.02 308.4 1387.62 318.8 1371.02 319ZM1378.42 295.6C1394.02 295.4 1407.62 283.8 1407.62 266.6C1407.62 248 1394.22 236.8 1378.42 236.6C1362.22 236.4 1349.02 247.4 1349.02 266.6C1349.02 284 1362.42 296 1378.42 295.6ZM1471.38 317H1441.98V215.6H1470.18V241.4C1475.78 219.6 1502.18 209.6 1522.98 219.2L1508.18 242.2C1494.78 233.8 1471.38 245 1471.38 266.6V317ZM1565.18 319C1536.78 319 1510.58 298.6 1510.58 266.6C1510.58 231.6 1536.78 213.6 1565.18 213.6C1593.18 213.6 1615.38 231.4 1618.38 261.8C1618.78 265 1618.78 269 1618.38 272.4H1537.18C1539.18 286.8 1551.98 296 1565.18 296C1575.78 296.2 1585.78 291.6 1590.78 283L1611.78 293.6C1602.58 309.4 1585.18 319 1565.18 319ZM1539.18 257L1591.98 256.8C1589.38 244 1577.38 236 1565.18 236.2C1553.38 236.2 1541.78 244 1539.18 257ZM1748.33 317H1721.53L1721.73 263.4L1667.73 185H1697.13L1735.13 241.6L1772.93 185H1802.33L1748.33 263.6V317ZM1826.53 319C1795.93 319 1769.93 298 1769.73 266.8C1769.53 234.2 1794.73 213.6 1826.53 213.6C1858.93 213.6 1883.93 234.2 1883.73 266.8C1883.53 297.6 1859.73 319 1826.53 319ZM1826.33 296C1842.73 296 1855.53 283.8 1855.53 266.6C1855.53 249.4 1843.13 236.6 1826.53 236.6C1810.33 236.6 1797.73 248.8 1797.73 266.6C1797.73 283.2 1810.33 296 1826.33 296ZM1934.13 319C1907.53 319.2 1888.93 300.6 1888.93 268.4V215.6H1917.13V268.4C1917.13 285.4 1926.73 296.2 1942.73 296C1959.13 295.6 1968.93 283.2 1968.93 265.4V215.6H1998.13V317H1969.93V292C1965.93 310.4 1949.13 318.8 1934.13 319ZM2075.44 317H2047.24V185H2140.84V213H2075.44V238.6H2129.24V262.8H2075.44V317ZM2191.2 319C2160.6 319 2134.6 298 2134.4 266.8C2134.2 234.2 2159.4 213.6 2191.2 213.6C2223.6 213.6 2248.6 234.2 2248.4 266.8C2248.2 297.6 2224.4 319 2191.2 319ZM2191 296C2207.4 296 2220.2 283.8 2220.2 266.6C2220.2 249.4 2207.8 236.6 2191.2 236.6C2175 236.6 2162.4 248.8 2162.4 266.6C2162.4 283.2 2175 296 2191 296ZM2283 317H2253.6V215.6H2281.8V241.4C2287.4 219.6 2313.8 209.6 2334.6 219.2L2319.8 242.2C2306.4 233.8 2283 245 2283 266.6V317ZM2451.39 317H2423.39L2423.59 209.4L2383.79 209.2V185H2491.39V209.2L2451.59 209.4L2451.39 317ZM2523.45 319C2492.85 319 2466.85 298 2466.65 266.8C2466.45 234.2 2491.65 213.6 2523.45 213.6C2555.85 213.6 2580.85 234.2 2580.65 266.8C2580.45 297.6 2556.65 319 2523.45 319ZM2523.25 296C2539.65 296 2552.45 283.8 2552.45 266.6C2552.45 249.4 2540.05 236.6 2523.45 236.6C2507.25 236.6 2494.65 248.8 2494.65 266.6C2494.65 283.2 2507.25 296 2523.25 296ZM2615.05 317H2585.85V215.6H2613.85V239.6C2617.45 223.6 2633.45 213.8 2648.45 213.6C2666.65 213.4 2680.25 222.8 2686.45 240C2692.85 223.4 2709.05 213.4 2725.45 213.6C2751.25 214 2769.65 232 2769.65 264.2V317H2741.45V264.2C2741.45 247.4 2732.05 236.4 2716.65 236.6C2701.25 236.8 2692.45 247.6 2692.45 264.4V317H2664.45V264.2C2664.45 247.2 2654.85 236.2 2639.65 236.6C2625.05 237 2615.25 249 2615.25 264L2615.05 317ZM2831.57 319C2800.97 319 2774.97 298 2774.77 266.8C2774.57 234.2 2799.77 213.6 2831.57 213.6C2863.97 213.6 2888.97 234.2 2888.77 266.8C2888.57 297.6 2864.77 319 2831.57 319ZM2831.37 296C2847.77 296 2860.57 283.8 2860.57 266.6C2860.57 249.4 2848.17 236.6 2831.57 236.6C2815.37 236.6 2802.77 248.8 2802.77 266.6C2802.77 283.2 2815.37 296 2831.37 296ZM2923.37 317H2893.97V215.6H2922.17V241.4C2927.77 219.6 2954.17 209.6 2974.97 219.2L2960.17 242.2C2946.77 233.8 2923.37 245 2923.37 266.6V317ZM3009.55 317H2980.15V215.6H3008.35V241.4C3013.95 219.6 3040.35 209.6 3061.15 219.2L3046.35 242.2C3032.95 233.8 3009.55 245 3009.55 266.6V317ZM3105.56 319C3074.96 319 3048.96 298 3048.76 266.8C3048.56 234.2 3073.76 213.6 3105.56 213.6C3137.96 213.6 3162.96 234.2 3162.76 266.8C3162.56 297.6 3138.76 319 3105.56 319ZM3105.36 296C3121.76 296 3134.56 283.8 3134.56 266.6C3134.56 249.4 3122.16 236.6 3105.56 236.6C3089.36 236.6 3076.76 248.8 3076.76 266.6C3076.76 283.2 3089.36 296 3105.36 296ZM3213.45 317H3186.65L3155.85 215.6H3184.05L3204.05 282.8L3223.65 215.6H3248.25L3268.45 282.8L3290.65 215.6H3318.85L3286.45 317H3258.65L3236.05 254.4L3213.45 317ZM3358.67 218.8L3339.47 230.6C3324.47 213.6 3323.47 206.6 3324.47 185H3350.27C3349.27 203 3350.87 207 3358.67 218.8ZM3408.17 319C3384.17 318.4 3363.97 304.8 3363.77 282H3389.37C3390.37 293.2 3398.57 298.2 3408.57 298.6C3416.77 298.8 3424.17 294.8 3424.37 287.8C3424.57 280.4 3419.57 277 3407.37 275C3381.57 271.8 3364.37 265.8 3363.97 245C3363.57 226 3380.97 213.6 3405.37 213.6C3430.57 213.6 3449.97 226 3450.77 250.2H3425.17C3424.57 240.8 3417.17 234.4 3406.37 234.2C3397.17 234 3391.17 239 3391.17 246C3391.37 252.8 3396.37 256.8 3409.57 259.2C3438.17 264.2 3451.37 268.6 3451.17 289.6C3451.17 309.4 3432.77 319.6 3408.17 319ZM2258.55 502C2220.95 502 2188.55 474.8 2188.95 434.4C2189.35 392.8 2221.35 366 2258.75 366C2296.75 366 2327.35 393.6 2327.15 434.4C2326.75 474 2296.75 502 2258.55 502ZM2258.55 477.6C2281.55 477.6 2298.75 459.6 2298.95 434.4C2298.75 408 2281.35 390.4 2258.55 390.4C2235.75 390.4 2217.15 408 2217.15 434.4C2217.35 459.4 2235.55 477.6 2258.55 477.6ZM2360.57 534H2332.37V399.8H2360.37V423.6C2365.17 408 2381.37 397.4 2397.77 397.4C2426.57 397 2447.57 420.2 2447.57 449.2C2447.57 482.6 2426.57 502.2 2399.37 502C2382.77 501.8 2365.57 492.8 2360.57 476.2V534ZM2390.57 479C2406.57 479.2 2419.37 468.4 2419.37 449.2C2419.37 432 2406.17 420.4 2390.57 420.6C2374.97 420.8 2361.57 432.4 2361.57 449.2C2361.57 468 2374.77 478.6 2390.57 479ZM2480.93 534H2452.73V399.8H2480.73V423.6C2485.53 408 2501.73 397.4 2518.13 397.4C2546.93 397 2567.93 420.2 2567.93 449.2C2567.93 482.6 2546.93 502.2 2519.73 502C2503.13 501.8 2485.93 492.8 2480.93 476.2V534ZM2510.93 479C2526.93 479.2 2539.73 468.4 2539.73 449.2C2539.73 432 2526.53 420.4 2510.93 420.6C2495.33 420.8 2481.93 432.4 2481.93 449.2C2481.93 468 2495.13 478.6 2510.93 479ZM2629.9 502C2599.3 502 2573.3 481 2573.1 449.8C2572.9 417.2 2598.1 396.6 2629.9 396.6C2662.3 396.6 2687.3 417.2 2687.1 449.8C2686.9 480.6 2663.1 502 2629.9 502ZM2629.7 479C2646.1 479 2658.9 466.8 2658.9 449.6C2658.9 432.4 2646.5 419.6 2629.9 419.6C2613.7 419.6 2601.1 431.8 2601.1 449.6C2601.1 466.2 2613.7 479 2629.7 479ZM2721.7 500H2692.3V398.6H2720.5V424.4C2726.1 402.6 2752.5 392.6 2773.3 402.2L2758.5 425.2C2745.1 416.8 2721.7 428 2721.7 449.6V500ZM2852.08 473.4L2856.48 497.4C2829.68 508.4 2793.88 497.2 2793.88 460.6V421.6H2778.48V397.4C2796.08 397.2 2793.88 387.2 2793.88 368H2821.88L2822.08 397.4H2849.28V421.6H2821.88V457C2821.88 473.8 2836.28 479.6 2852.08 473.4ZM2900.3 502C2873.7 502.2 2855.1 483.6 2855.1 451.4V398.6H2883.3V451.4C2883.3 468.4 2892.9 479.2 2908.9 479C2925.3 478.6 2935.1 466.2 2935.1 448.4V398.6H2964.3V500H2936.1V475C2932.1 493.4 2915.3 501.8 2900.3 502ZM2998.61 500H2969.41V398.6H2997.61V422.6C3002.81 405.8 3020.01 396.8 3036.81 396.6C3064.21 396.4 3085.21 416.2 3085.21 449.8V500H3057.21V449.6C3057.21 430.4 3044.21 419.4 3028.01 419.6C3012.01 419.8 2998.61 430.8 2998.61 449.6V500ZM3105.57 389.2C3097.77 389.2 3090.37 384.8 3090.37 377.8C3090.37 371 3097.77 366.6 3105.57 366.6C3113.17 366.6 3120.57 371 3120.57 377.8C3120.57 384.8 3113.17 389.2 3105.57 389.2ZM3119.37 500H3091.37V398.6H3119.37V500ZM3199.37 473.4L3203.77 497.4C3176.97 508.4 3141.17 497.2 3141.17 460.6V421.6H3125.77V397.4C3143.37 397.2 3141.17 387.2 3141.17 368H3169.17L3169.37 397.4H3196.57V421.6H3169.17V457C3169.17 473.8 3183.57 479.6 3199.37 473.4ZM3224.43 389.2C3216.63 389.2 3209.23 384.8 3209.23 377.8C3209.23 371 3216.63 366.6 3224.43 366.6C3232.03 366.6 3239.43 371 3239.43 377.8C3239.43 384.8 3232.03 389.2 3224.43 389.2ZM3238.23 500H3210.22V398.6H3238.23V500ZM3299.23 502C3270.83 502 3244.63 481.6 3244.63 449.6C3244.63 414.6 3270.83 396.6 3299.23 396.6C3327.23 396.6 3349.43 414.4 3352.43 444.8C3352.83 448 3352.83 452 3352.43 455.4H3271.23C3273.23 469.8 3286.03 479 3299.23 479C3309.83 479.2 3319.83 474.6 3324.83 466L3345.83 476.6C3336.63 492.4 3319.23 502 3299.23 502ZM3273.23 440L3326.03 439.8C3323.43 427 3311.43 419 3299.23 419.2C3287.43 419.2 3275.83 427 3273.23 440ZM3402.17 502C3378.17 501.4 3357.97 487.8 3357.77 465H3383.37C3384.37 476.2 3392.57 481.2 3402.57 481.6C3410.77 481.8 3418.17 477.8 3418.37 470.8C3418.57 463.4 3413.57 460 3401.37 458C3375.57 454.8 3358.37 448.8 3357.97 428C3357.57 409 3374.97 396.6 3399.37 396.6C3424.57 396.6 3443.97 409 3444.77 433.2H3419.17C3418.57 423.8 3411.17 417.4 3400.37 417.2C3391.17 417 3385.17 422 3385.17 429C3385.37 435.8 3390.37 439.8 3403.57 442.2C3432.17 447.2 3445.37 451.6 3445.17 472.6C3445.17 492.4 3426.77 502.6 3402.17 502Z" fill="url(#paint0_linear_579_250)"/>
<defs>
<linearGradient id="paint0_linear_579_250" x1="-5" y1="260.5" x2="3451" y2="260.5" gradientUnits="userSpaceOnUse">
<stop offset="0.792678" stop-color="#262626"/>
<stop offset="0.892393" stop-color="#02816B"/>
<stop offset="1" stop-color="#8DC55D"/>
</linearGradient>
</defs>
</svg>
