<svg width="3970" height="617" viewBox="0 0 3970 617" fill="none" xmlns="http://www.w3.org/2000/svg">
<path d="M78.9398 155H48.1198L0.509824 3.19999H34.3198L64.9098 112.22L95.7298 3.19999H129.77L157.6 112.22L192.79 3.19999H226.6L173.24 155H142.65L112.29 42.53L78.9398 155ZM265.96 157.3C233.3 157.3 203.17 133.84 203.17 97.04C203.17 56.79 233.3 36.09 265.96 36.09C298.16 36.09 323.69 56.56 327.14 91.52C327.6 95.2 327.6 99.8 327.14 103.71H233.76C236.06 120.27 250.78 130.85 265.96 130.85C278.15 131.08 289.65 125.79 295.4 115.9L319.55 128.09C308.97 146.26 288.96 157.3 265.96 157.3ZM236.06 86L296.78 85.77C293.79 71.05 279.99 61.85 265.96 62.08C252.39 62.08 239.05 71.05 236.06 86ZM440.002 155H383.882L384.112 3.19999H440.922C482.782 3.19999 523.262 26.43 523.262 77.49C523.262 125.56 486.002 155 440.002 155ZM416.312 31.03V126.94H440.922C471.972 126.94 490.602 105.32 490.832 79.33C491.062 51.27 472.892 31.03 442.072 31.03H416.312ZM594.587 157.3C559.397 157.3 529.497 133.15 529.267 97.27C529.037 59.78 558.017 36.09 594.587 36.09C631.847 36.09 660.597 59.78 660.367 97.27C660.137 132.69 632.767 157.3 594.587 157.3ZM594.357 130.85C613.217 130.85 627.937 116.82 627.937 97.04C627.937 77.26 613.677 62.54 594.587 62.54C575.957 62.54 561.467 76.57 561.467 97.04C561.467 116.13 575.957 130.85 594.357 130.85ZM699.922 155H666.342V38.39H698.772V65.99C704.752 46.67 724.532 36.32 743.852 36.09C775.362 35.86 799.512 58.63 799.512 97.27V155H767.312V97.04C767.312 74.96 752.362 62.31 733.732 62.54C715.332 62.77 699.922 75.42 699.922 97.04V155ZM845.228 42.07L823.148 55.64C805.898 36.09 804.748 28.04 805.898 3.19999H835.568C834.418 23.9 836.258 28.5 845.228 42.07ZM935.737 124.41L940.797 152.01C909.977 164.66 868.807 151.78 868.807 109.69V64.84H851.097V37.01C871.337 36.78 868.807 25.28 868.807 3.19999H901.007L901.237 37.01H932.517V64.84H901.007V105.55C901.007 124.87 917.567 131.54 935.737 124.41ZM1053.79 157.3C1026.88 157.3 997.898 143.04 997.668 103.71H1027.11C1028.49 120.04 1037.92 130.85 1053.79 130.85C1070.81 130.85 1079.09 117.05 1079.09 101.87V3.19999H1108.53V101.18C1108.53 142.81 1080.7 157.3 1053.79 157.3ZM1166.51 157.3C1135.92 157.53 1114.53 136.14 1114.53 99.11V38.39H1146.96V99.11C1146.96 118.66 1158 131.08 1176.4 130.85C1195.26 130.39 1206.53 116.13 1206.53 95.66V38.39H1240.11V155H1207.68V126.25C1203.08 147.41 1183.76 157.07 1166.51 157.3ZM1297.05 157.3C1269.45 156.61 1246.22 140.97 1245.99 114.75H1275.43C1276.58 127.63 1286.01 133.38 1297.51 133.84C1306.94 134.07 1315.45 129.47 1315.68 121.42C1315.91 112.91 1310.16 109 1296.13 106.7C1266.46 103.02 1246.68 96.12 1246.22 72.2C1245.76 50.35 1265.77 36.09 1293.83 36.09C1322.81 36.09 1345.12 50.35 1346.04 78.18H1316.6C1315.91 67.37 1307.4 60.01 1294.98 59.78C1284.4 59.55 1277.5 65.3 1277.5 73.35C1277.73 81.17 1283.48 85.77 1298.66 88.53C1331.55 94.28 1346.73 99.34 1346.5 123.49C1346.5 146.26 1325.34 157.99 1297.05 157.3ZM1434.01 124.41L1439.07 152.01C1408.25 164.66 1367.08 151.78 1367.08 109.69V64.84H1349.37V37.01C1369.61 36.78 1367.08 25.28 1367.08 3.19999H1399.28L1399.51 37.01H1430.79V64.84H1399.28V105.55C1399.28 124.87 1415.84 131.54 1434.01 124.41ZM1556.43 157.3C1526.3 156.61 1499.62 138.67 1498.01 107.16H1527.45C1528.83 125.33 1545.62 132 1557.12 132.23C1570.23 132.46 1583.57 126.94 1584.03 112.91C1584.26 98.65 1572.53 93.82 1552.98 90.83C1519.63 86.69 1495.94 72.89 1495.94 44.6C1496.17 17.23 1521.7 0.899996 1551.14 0.899996C1581.27 0.899996 1609.33 18.84 1610.48 49.89H1580.81C1579.43 32.64 1565.63 25.97 1551.14 25.97C1538.26 25.97 1526.99 33.33 1526.99 45.06C1526.76 55.87 1535.96 62.54 1556.43 65.76C1594.61 71.28 1616 85.08 1614.85 115.67C1613.93 145.34 1585.41 157.99 1556.43 157.3ZM1686.21 157.3C1651.02 157.3 1621.12 133.15 1620.89 97.27C1620.66 59.78 1649.64 36.09 1686.21 36.09C1723.47 36.09 1752.22 59.78 1751.99 97.27C1751.76 132.69 1724.39 157.3 1686.21 157.3ZM1685.98 130.85C1704.84 130.85 1719.56 116.82 1719.56 97.04C1719.56 77.26 1705.3 62.54 1686.21 62.54C1667.58 62.54 1653.09 76.57 1653.09 97.04C1653.09 116.13 1667.58 130.85 1685.98 130.85ZM1790.39 155H1757.96V3.19999H1790.39V155ZM1876.7 155H1845.88L1796.43 38.39H1828.86L1861.29 120.73L1893.49 38.39H1925.92L1876.7 155ZM1976.76 157.3C1944.1 157.3 1913.97 133.84 1913.97 97.04C1913.97 56.79 1944.1 36.09 1976.76 36.09C2008.96 36.09 2034.49 56.56 2037.94 91.52C2038.4 95.2 2038.4 99.8 2037.94 103.71H1944.56C1946.86 120.27 1961.58 130.85 1976.76 130.85C1988.95 131.08 2000.45 125.79 2006.2 115.9L2030.35 128.09C2019.77 146.26 1999.76 157.3 1976.76 157.3ZM1946.86 86L2007.58 85.77C2004.59 71.05 1990.79 61.85 1976.76 62.08C1963.19 62.08 1949.85 71.05 1946.86 86ZM2172.42 155H2140.22L2140.45 31.26L2094.68 31.03V3.19999H2218.42V31.03L2172.65 31.26L2172.42 155ZM2255.3 157.3C2220.11 157.3 2190.21 133.15 2189.98 97.27C2189.75 59.78 2218.73 36.09 2255.3 36.09C2292.56 36.09 2321.31 59.78 2321.08 97.27C2320.85 132.69 2293.48 157.3 2255.3 157.3ZM2255.07 130.85C2273.93 130.85 2288.65 116.82 2288.65 97.04C2288.65 77.26 2274.39 62.54 2255.3 62.54C2236.67 62.54 2222.18 76.57 2222.18 97.04C2222.18 116.13 2236.67 130.85 2255.07 130.85ZM2384.55 157.3C2351.43 157.53 2327.05 130.85 2327.05 97.27C2327.05 58.63 2351.2 35.86 2382.94 36.09C2402.26 36.32 2422.04 46.67 2428.02 65.99V3.19999H2460.22V155H2428.02V126.94C2422.5 145.11 2403.64 157.07 2384.55 157.3ZM2393.06 130.39C2411 130.16 2426.64 116.82 2426.64 97.04C2426.64 75.42 2411.23 62.77 2393.06 62.54C2374.43 62.31 2359.25 74.96 2359.25 97.04C2359.25 117.05 2374.66 130.85 2393.06 130.39ZM2523.65 157.3C2490.53 157.53 2466.15 130.85 2466.15 97.27C2466.15 58.63 2490.3 35.86 2522.04 36.09C2541.36 36.32 2561.14 46.67 2567.12 65.99V38.39H2599.32V155H2567.12V126.94C2561.6 145.11 2542.74 157.07 2523.65 157.3ZM2532.16 130.39C2550.1 130.16 2565.74 116.82 2565.74 97.04C2565.74 75.65 2550.33 62.77 2532.16 62.54C2513.53 62.31 2498.35 74.96 2498.35 97.04C2498.35 117.05 2513.76 130.85 2532.16 130.39ZM2605.24 178L2623.18 159.37C2628.7 166.04 2642.27 167.65 2647.56 156.61L2653.54 143.96L2608.46 38.39H2640.66L2669.64 119.12L2702.53 38.39H2734.73L2673.78 163.51C2657.91 196.4 2625.71 196.63 2605.24 178ZM2780.53 42.07L2758.45 55.64C2741.2 36.09 2740.05 28.04 2741.2 3.19999H2770.87C2769.72 23.9 2771.56 28.5 2780.53 42.07ZM2837.46 157.3C2809.86 156.61 2786.63 140.97 2786.4 114.75H2815.84C2816.99 127.63 2826.42 133.38 2837.92 133.84C2847.35 134.07 2855.86 129.47 2856.09 121.42C2856.32 112.91 2850.57 109 2836.54 106.7C2806.87 103.02 2787.09 96.12 2786.63 72.2C2786.17 50.35 2806.18 36.09 2834.24 36.09C2863.22 36.09 2885.53 50.35 2886.45 78.18H2857.01C2856.32 67.37 2847.81 60.01 2835.39 59.78C2824.81 59.55 2817.91 65.3 2817.91 73.35C2818.14 81.17 2823.89 85.77 2839.07 88.53C2871.96 94.28 2887.14 99.34 2886.91 123.49C2886.91 146.26 2865.75 157.99 2837.46 157.3ZM2975.96 155H2943.76V3.19999H3005.17C3052.55 3.19999 3064.28 31.03 3064.28 51.73C3064.28 75.19 3049.1 98.88 3005.17 98.88H2975.96V155ZM2975.96 31.03V71.05H3005.17C3022.42 71.05 3031.85 65.99 3031.85 51.73C3031.85 39.08 3024.26 31.03 3004.94 31.03H2975.96ZM3104.08 155H3070.27V38.39H3102.7V68.06C3109.14 42.99 3139.5 31.49 3163.42 42.53L3146.4 68.98C3130.99 59.32 3104.08 72.2 3104.08 97.04V155ZM3214.49 157.3C3179.3 157.3 3149.4 133.15 3149.17 97.27C3148.94 59.78 3177.92 36.09 3214.49 36.09C3251.75 36.09 3280.5 59.78 3280.27 97.27C3280.04 132.69 3252.67 157.3 3214.49 157.3ZM3214.26 130.85C3233.12 130.85 3247.84 116.82 3247.84 97.04C3247.84 77.26 3233.58 62.54 3214.49 62.54C3195.86 62.54 3181.37 76.57 3181.37 97.04C3181.37 116.13 3195.86 130.85 3214.26 130.85ZM3361.92 157.3C3342.83 157.07 3324.2 145.11 3318.45 126.94V155H3286.25V3.19999H3318.68V65.99C3324.66 46.67 3344.44 36.32 3363.76 36.09C3395.27 35.86 3419.42 58.63 3419.42 97.27C3419.42 130.85 3395.27 157.53 3361.92 157.3ZM3353.64 130.39C3371.81 130.85 3387.22 117.05 3387.22 97.04C3387.22 74.96 3372.27 62.31 3353.64 62.54C3335.24 62.77 3319.83 75.42 3319.83 97.04C3319.83 116.82 3335.47 130.16 3353.64 130.39ZM3457.77 155H3425.34V3.19999H3457.77V155ZM3526.61 157.3C3493.95 157.3 3463.82 133.84 3463.82 97.04C3463.82 56.79 3493.95 36.09 3526.61 36.09C3558.81 36.09 3584.34 56.56 3587.79 91.52C3588.25 95.2 3588.25 99.8 3587.79 103.71H3494.41C3496.71 120.27 3511.43 130.85 3526.61 130.85C3538.8 131.08 3550.3 125.79 3556.05 115.9L3580.2 128.09C3569.62 146.26 3549.61 157.3 3526.61 157.3ZM3496.71 86L3557.43 85.77C3554.44 71.05 3540.64 61.85 3526.61 62.08C3513.04 62.08 3499.7 71.05 3496.71 86ZM3627.51 155H3593.93V38.39H3626.13V65.99C3630.27 47.59 3648.67 36.32 3665.92 36.09C3686.85 35.86 3702.49 46.67 3709.62 66.45C3716.98 47.36 3735.61 35.86 3754.47 36.09C3784.14 36.55 3805.3 57.25 3805.3 94.28V155H3772.87V94.28C3772.87 74.96 3762.06 62.31 3744.35 62.54C3726.64 62.77 3716.52 75.19 3716.52 94.51V155H3684.32V94.28C3684.32 74.73 3673.28 62.08 3655.8 62.54C3639.01 63 3627.74 76.8 3627.74 94.05L3627.51 155ZM3862.25 157.3C3834.65 156.61 3811.42 140.97 3811.19 114.75H3840.63C3841.78 127.63 3851.21 133.38 3862.71 133.84C3872.14 134.07 3880.65 129.47 3880.88 121.42C3881.11 112.91 3875.36 109 3861.33 106.7C3831.66 103.02 3811.88 96.12 3811.42 72.2C3810.96 50.35 3830.97 36.09 3859.03 36.09C3888.01 36.09 3910.32 50.35 3911.24 78.18H3881.8C3881.11 67.37 3872.6 60.01 3860.18 59.78C3849.6 59.55 3842.7 65.3 3842.7 73.35C3842.93 81.17 3848.68 85.77 3863.86 88.53C3896.75 94.28 3911.93 99.34 3911.7 123.49C3911.7 146.26 3890.54 157.99 3862.25 157.3ZM605.509 319.31H527.309V290.1H605.509V319.31ZM740.63 366H709.81L662.2 214.2H696.01L726.6 323.22L757.42 214.2H791.46L819.29 323.22L854.48 214.2H888.29L834.93 366H804.34L773.98 253.53L740.63 366ZM927.651 368.3C894.991 368.3 864.861 344.84 864.861 308.04C864.861 267.79 894.991 247.09 927.651 247.09C959.851 247.09 985.381 267.56 988.831 302.52C989.291 306.2 989.291 310.8 988.831 314.71H895.451C897.751 331.27 912.471 341.85 927.651 341.85C939.841 342.08 951.341 336.79 957.091 326.9L981.241 339.09C970.661 357.26 950.651 368.3 927.651 368.3ZM897.751 297L958.471 296.77C955.481 282.05 941.681 272.85 927.651 273.08C914.081 273.08 900.741 282.05 897.751 297ZM1077.77 366H1045.57V214.2H1106.98C1154.36 214.2 1166.09 242.03 1166.09 262.73C1166.09 286.19 1150.91 309.88 1106.98 309.88H1077.77V366ZM1077.77 242.03V282.05H1106.98C1124.23 282.05 1133.66 276.99 1133.66 262.73C1133.66 250.08 1126.07 242.03 1106.75 242.03H1077.77ZM1205.9 366H1172.09V249.39H1204.52V279.06C1210.96 253.99 1241.32 242.49 1265.24 253.53L1248.22 279.98C1232.81 270.32 1205.9 283.2 1205.9 308.04V366ZM1313.78 368.3C1281.12 368.3 1250.99 344.84 1250.99 308.04C1250.99 267.79 1281.12 247.09 1313.78 247.09C1345.98 247.09 1371.51 267.56 1374.96 302.52C1375.42 306.2 1375.42 310.8 1374.96 314.71H1281.58C1283.88 331.27 1298.6 341.85 1313.78 341.85C1325.97 342.08 1337.47 336.79 1343.22 326.9L1367.37 339.09C1356.79 357.26 1336.78 368.3 1313.78 368.3ZM1283.88 297L1344.6 296.77C1341.61 282.05 1327.81 272.85 1313.78 273.08C1300.21 273.08 1286.87 282.05 1283.88 297ZM1413.53 405.1H1381.1V250.77H1413.3V278.14C1418.82 260.2 1437.45 248.01 1456.31 248.01C1489.43 247.55 1513.58 274.23 1513.58 307.58C1513.58 345.99 1489.43 368.53 1458.15 368.3C1439.06 368.07 1419.28 357.72 1413.53 338.63V405.1ZM1448.03 341.85C1466.43 342.08 1481.15 329.66 1481.15 307.58C1481.15 287.8 1465.97 274.46 1448.03 274.69C1430.09 274.92 1414.68 288.26 1414.68 307.58C1414.68 329.2 1429.86 341.39 1448.03 341.85ZM1577.03 368.3C1543.91 368.53 1519.53 341.85 1519.53 308.27C1519.53 269.63 1543.68 246.86 1575.42 247.09C1594.74 247.32 1614.52 257.67 1620.5 276.99V249.39H1652.7V366H1620.5V337.94C1614.98 356.11 1596.12 368.07 1577.03 368.3ZM1585.54 341.39C1603.48 341.16 1619.12 327.82 1619.12 308.04C1619.12 286.65 1603.71 273.77 1585.54 273.54C1566.91 273.31 1551.73 285.96 1551.73 308.04C1551.73 328.05 1567.14 341.85 1585.54 341.39ZM1692.43 366H1658.62V249.39H1691.05V279.06C1697.49 253.99 1727.85 242.49 1751.77 253.53L1734.75 279.98C1719.34 270.32 1692.43 283.2 1692.43 308.04V366ZM1800.31 368.3C1767.65 368.3 1737.52 344.84 1737.52 308.04C1737.52 267.79 1767.65 247.09 1800.31 247.09C1832.51 247.09 1858.04 267.56 1861.49 302.52C1861.95 306.2 1861.95 310.8 1861.49 314.71H1768.11C1770.41 331.27 1785.13 341.85 1800.31 341.85C1812.5 342.08 1824 336.79 1829.75 326.9L1853.9 339.09C1843.32 357.26 1823.31 368.3 1800.31 368.3ZM1770.41 297L1831.13 296.77C1828.14 282.05 1814.34 272.85 1800.31 273.08C1786.74 273.08 1773.4 282.05 1770.41 297ZM2010.92 366H1980.1L1980.33 304.36L1918.23 214.2H1952.04L1995.74 279.29L2039.21 214.2H2073.02L2010.92 304.59V366ZM2100.86 368.3C2065.67 368.3 2035.77 344.15 2035.54 308.27C2035.31 270.78 2064.29 247.09 2100.86 247.09C2138.12 247.09 2166.87 270.78 2166.64 308.27C2166.41 343.69 2139.04 368.3 2100.86 368.3ZM2100.63 341.85C2119.49 341.85 2134.21 327.82 2134.21 308.04C2134.21 288.26 2119.95 273.54 2100.86 273.54C2082.23 273.54 2067.74 287.57 2067.74 308.04C2067.74 327.13 2082.23 341.85 2100.63 341.85ZM2224.6 368.3C2194.01 368.53 2172.62 347.14 2172.62 310.11V249.39H2205.05V310.11C2205.05 329.66 2216.09 342.08 2234.49 341.85C2253.35 341.39 2264.62 327.13 2264.62 306.66V249.39H2298.2V366H2265.77V337.25C2261.17 358.41 2241.85 368.07 2224.6 368.3ZM2387.11 366H2354.68V214.2H2462.32V246.4H2387.11V275.84H2448.98V303.67H2387.11V366ZM2520.24 368.3C2485.05 368.3 2455.15 344.15 2454.92 308.27C2454.69 270.78 2483.67 247.09 2520.24 247.09C2557.5 247.09 2586.25 270.78 2586.02 308.27C2585.79 343.69 2558.42 368.3 2520.24 368.3ZM2520.01 341.85C2538.87 341.85 2553.59 327.82 2553.59 308.04C2553.59 288.26 2539.33 273.54 2520.24 273.54C2501.61 273.54 2487.12 287.57 2487.12 308.04C2487.12 327.13 2501.61 341.85 2520.01 341.85ZM2625.8 366H2591.99V249.39H2624.42V279.06C2630.86 253.99 2661.22 242.49 2685.14 253.53L2668.12 279.98C2652.71 270.32 2625.8 283.2 2625.8 308.04V366ZM2819.45 366H2787.25L2787.48 242.26L2741.71 242.03V214.2H2865.45V242.03L2819.68 242.26L2819.45 366ZM2902.32 368.3C2867.13 368.3 2837.23 344.15 2837 308.27C2836.77 270.78 2865.75 247.09 2902.32 247.09C2939.58 247.09 2968.33 270.78 2968.1 308.27C2967.87 343.69 2940.5 368.3 2902.32 368.3ZM2902.09 341.85C2920.95 341.85 2935.67 327.82 2935.67 308.04C2935.67 288.26 2921.41 273.54 2902.32 273.54C2883.69 273.54 2869.2 287.57 2869.2 308.04C2869.2 327.13 2883.69 341.85 2902.09 341.85ZM3007.66 366H2974.08V249.39H3006.28V276.99C3010.42 258.59 3028.82 247.32 3046.07 247.09C3067 246.86 3082.64 257.67 3089.77 277.45C3097.13 258.36 3115.76 246.86 3134.62 247.09C3164.29 247.55 3185.45 268.25 3185.45 305.28V366H3153.02V305.28C3153.02 285.96 3142.21 273.31 3124.5 273.54C3106.79 273.77 3096.67 286.19 3096.67 305.51V366H3064.47V305.28C3064.47 285.73 3053.43 273.08 3035.95 273.54C3019.16 274 3007.89 287.8 3007.89 305.05L3007.66 366ZM3256.66 368.3C3221.47 368.3 3191.57 344.15 3191.34 308.27C3191.11 270.78 3220.09 247.09 3256.66 247.09C3293.92 247.09 3322.67 270.78 3322.44 308.27C3322.21 343.69 3294.84 368.3 3256.66 368.3ZM3256.43 341.85C3275.29 341.85 3290.01 327.82 3290.01 308.04C3290.01 288.26 3275.75 273.54 3256.66 273.54C3238.03 273.54 3223.54 287.57 3223.54 308.04C3223.54 327.13 3238.03 341.85 3256.43 341.85ZM3362.22 366H3328.41V249.39H3360.84V279.06C3367.28 253.99 3397.64 242.49 3421.56 253.53L3404.54 279.98C3389.13 270.32 3362.22 283.2 3362.22 308.04V366ZM3461.34 366H3427.53V249.39H3459.96V279.06C3466.4 253.99 3496.76 242.49 3520.68 253.53L3503.66 279.98C3488.25 270.32 3461.34 283.2 3461.34 308.04V366ZM3571.75 368.3C3536.56 368.3 3506.66 344.15 3506.43 308.27C3506.2 270.78 3535.18 247.09 3571.75 247.09C3609.01 247.09 3637.76 270.78 3637.53 308.27C3637.3 343.69 3609.93 368.3 3571.75 368.3ZM3571.52 341.85C3590.38 341.85 3605.1 327.82 3605.1 308.04C3605.1 288.26 3590.84 273.54 3571.75 273.54C3553.12 273.54 3538.63 287.57 3538.63 308.04C3538.63 327.13 3553.12 341.85 3571.52 341.85ZM3695.82 366H3665L3629.58 249.39H3662.01L3685.01 326.67L3707.55 249.39H3735.84L3759.07 326.67L3784.6 249.39H3817.03L3779.77 366H3747.8L3721.81 294.01L3695.82 366ZM3862.82 253.07L3840.74 266.64C3823.49 247.09 3822.34 239.04 3823.49 214.2H3853.16C3852.01 234.9 3853.85 239.5 3862.82 253.07ZM3919.75 368.3C3892.15 367.61 3868.92 351.97 3868.69 325.75H3898.13C3899.28 338.63 3908.71 344.38 3920.21 344.84C3929.64 345.07 3938.15 340.47 3938.38 332.42C3938.61 323.91 3932.86 320 3918.83 317.7C3889.16 314.02 3869.38 307.12 3868.92 283.2C3868.46 261.35 3888.47 247.09 3916.53 247.09C3945.51 247.09 3967.82 261.35 3968.74 289.18H3939.3C3938.61 278.37 3930.1 271.01 3917.68 270.78C3907.1 270.55 3900.2 276.3 3900.2 284.35C3900.43 292.17 3906.18 296.77 3921.36 299.53C3954.25 305.28 3969.43 310.34 3969.2 334.49C3969.2 357.26 3948.04 368.99 3919.75 368.3ZM2597.68 579.3C2554.44 579.3 2517.18 548.02 2517.64 501.56C2518.1 453.72 2554.9 422.9 2597.91 422.9C2641.61 422.9 2676.8 454.64 2676.57 501.56C2676.11 547.1 2641.61 579.3 2597.68 579.3ZM2597.68 551.24C2624.13 551.24 2643.91 530.54 2644.14 501.56C2643.91 471.2 2623.9 450.96 2597.68 450.96C2571.46 450.96 2550.07 471.2 2550.07 501.56C2550.3 530.31 2571.23 551.24 2597.68 551.24ZM2715 616.1H2682.57V461.77H2714.77V489.14C2720.29 471.2 2738.92 459.01 2757.78 459.01C2790.9 458.55 2815.05 485.23 2815.05 518.58C2815.05 556.99 2790.9 579.53 2759.62 579.3C2740.53 579.07 2720.75 568.72 2715 549.63V616.1ZM2749.5 552.85C2767.9 553.08 2782.62 540.66 2782.62 518.58C2782.62 498.8 2767.44 485.46 2749.5 485.69C2731.56 485.92 2716.15 499.26 2716.15 518.58C2716.15 540.2 2731.33 552.39 2749.5 552.85ZM2853.42 616.1H2820.99V461.77H2853.19V489.14C2858.71 471.2 2877.34 459.01 2896.2 459.01C2929.32 458.55 2953.47 485.23 2953.47 518.58C2953.47 556.99 2929.32 579.53 2898.04 579.3C2878.95 579.07 2859.17 568.72 2853.42 549.63V616.1ZM2887.92 552.85C2906.32 553.08 2921.04 540.66 2921.04 518.58C2921.04 498.8 2905.86 485.46 2887.92 485.69C2869.98 485.92 2854.57 499.26 2854.57 518.58C2854.57 540.2 2869.75 552.39 2887.92 552.85ZM3024.74 579.3C2989.55 579.3 2959.65 555.15 2959.42 519.27C2959.19 481.78 2988.17 458.09 3024.74 458.09C3062 458.09 3090.75 481.78 3090.52 519.27C3090.29 554.69 3062.92 579.3 3024.74 579.3ZM3024.51 552.85C3043.37 552.85 3058.09 538.82 3058.09 519.04C3058.09 499.26 3043.83 484.54 3024.74 484.54C3006.11 484.54 2991.62 498.57 2991.62 519.04C2991.62 538.13 3006.11 552.85 3024.51 552.85ZM3130.3 577H3096.49V460.39H3128.92V490.06C3135.36 464.99 3165.72 453.49 3189.64 464.53L3172.62 490.98C3157.21 481.32 3130.3 494.2 3130.3 519.04V577ZM3280.25 546.41L3285.31 574.01C3254.49 586.66 3213.32 573.78 3213.32 531.69V486.84H3195.61V459.01C3215.85 458.78 3213.32 447.28 3213.32 425.2H3245.52L3245.75 459.01H3277.03V486.84H3245.52V527.55C3245.52 546.87 3262.08 553.54 3280.25 546.41ZM3335.69 579.3C3305.1 579.53 3283.71 558.14 3283.71 521.11V460.39H3316.14V521.11C3316.14 540.66 3327.18 553.08 3345.58 552.85C3364.44 552.39 3375.71 538.13 3375.71 517.66V460.39H3409.29V577H3376.86V548.25C3372.26 569.41 3352.94 579.07 3335.69 579.3ZM3448.75 577H3415.17V460.39H3447.6V487.99C3453.58 468.67 3473.36 458.32 3492.68 458.09C3524.19 457.86 3548.34 480.63 3548.34 519.27V577H3516.14V519.04C3516.14 496.96 3501.19 484.31 3482.56 484.54C3464.16 484.77 3448.75 497.42 3448.75 519.04V577ZM3571.75 449.58C3562.78 449.58 3554.27 444.52 3554.27 436.47C3554.27 428.65 3562.78 423.59 3571.75 423.59C3580.49 423.59 3589 428.65 3589 436.47C3589 444.52 3580.49 449.58 3571.75 449.58ZM3587.62 577H3555.42V460.39H3587.62V577ZM3679.63 546.41L3684.69 574.01C3653.87 586.66 3612.7 573.78 3612.7 531.69V486.84H3594.99V459.01C3615.23 458.78 3612.7 447.28 3612.7 425.2H3644.9L3645.13 459.01H3676.41V486.84H3644.9V527.55C3644.9 546.87 3661.46 553.54 3679.63 546.41ZM3708.44 449.58C3699.47 449.58 3690.96 444.52 3690.96 436.47C3690.96 428.65 3699.47 423.59 3708.44 423.59C3717.18 423.59 3725.69 428.65 3725.69 436.47C3725.69 444.52 3717.18 449.58 3708.44 449.58ZM3724.31 577H3692.11V460.39H3724.31V577ZM3794.47 579.3C3761.81 579.3 3731.68 555.84 3731.68 519.04C3731.68 478.79 3761.81 458.09 3794.47 458.09C3826.67 458.09 3852.2 478.56 3855.65 513.52C3856.11 517.2 3856.11 521.8 3855.65 525.71H3762.27C3764.57 542.27 3779.29 552.85 3794.47 552.85C3806.66 553.08 3818.16 547.79 3823.91 537.9L3848.06 550.09C3837.48 568.26 3817.47 579.3 3794.47 579.3ZM3764.57 508L3825.29 507.77C3822.3 493.05 3808.5 483.85 3794.47 484.08C3780.9 484.08 3767.56 493.05 3764.57 508ZM3912.85 579.3C3885.25 578.61 3862.02 562.97 3861.79 536.75H3891.23C3892.38 549.63 3901.81 555.38 3913.31 555.84C3922.74 556.07 3931.25 551.47 3931.48 543.42C3931.71 534.91 3925.96 531 3911.93 528.7C3882.26 525.02 3862.48 518.12 3862.02 494.2C3861.56 472.35 3881.57 458.09 3909.63 458.09C3938.61 458.09 3960.92 472.35 3961.84 500.18H3932.4C3931.71 489.37 3923.2 482.01 3910.78 481.78C3900.2 481.55 3893.3 487.3 3893.3 495.35C3893.53 503.17 3899.28 507.77 3914.46 510.53C3947.35 516.28 3962.53 521.34 3962.3 545.49C3962.3 568.26 3941.14 579.99 3912.85 579.3Z" fill="url(#paint0_linear_579_250)"/>
<defs>
<linearGradient id="paint0_linear_579_250" x1="-25" y1="320.5" x2="3969" y2="320.5" gradientUnits="userSpaceOnUse">
<stop offset="0.792678" stop-color="#262626"/>
<stop offset="0.892393" stop-color="#02816B"/>
<stop offset="1" stop-color="#8DC55D"/>
</linearGradient>
</defs>
</svg>
