<svg width="3963" height="617" viewBox="0 0 3963 617" fill="none" xmlns="http://www.w3.org/2000/svg">
<path d="M78.9398 155H48.1198L0.509824 3.19999H34.3198L64.9098 112.22L95.7298 3.19999H129.77L157.6 112.22L192.79 3.19999H226.6L173.24 155H142.65L112.29 42.53L78.9398 155ZM265.96 157.3C233.3 157.3 203.17 133.84 203.17 97.04C203.17 56.79 233.3 36.09 265.96 36.09C298.16 36.09 323.69 56.56 327.14 91.52C327.6 95.2 327.6 99.8 327.14 103.71H233.76C236.06 120.27 250.78 130.85 265.96 130.85C278.15 131.08 289.65 125.79 295.4 115.9L319.55 128.09C308.97 146.26 288.96 157.3 265.96 157.3ZM236.06 86L296.78 85.77C293.79 71.05 279.99 61.85 265.96 62.08C252.39 62.08 239.05 71.05 236.06 86ZM440.002 155H383.882L384.112 3.19999H440.922C482.782 3.19999 523.262 26.43 523.262 77.49C523.262 125.56 486.002 155 440.002 155ZM416.312 31.03V126.94H440.922C471.972 126.94 490.602 105.32 490.832 79.33C491.062 51.27 472.892 31.03 442.072 31.03H416.312ZM594.587 157.3C559.397 157.3 529.497 133.15 529.267 97.27C529.037 59.78 558.017 36.09 594.587 36.09C631.847 36.09 660.597 59.78 660.367 97.27C660.137 132.69 632.767 157.3 594.587 157.3ZM594.357 130.85C613.217 130.85 627.937 116.82 627.937 97.04C627.937 77.26 613.677 62.54 594.587 62.54C575.957 62.54 561.467 76.57 561.467 97.04C561.467 116.13 575.957 130.85 594.357 130.85ZM699.922 155H666.342V38.39H698.772V65.99C704.752 46.67 724.532 36.32 743.852 36.09C775.362 35.86 799.512 58.63 799.512 97.27V155H767.312V97.04C767.312 74.96 752.362 62.31 733.732 62.54C715.332 62.77 699.922 75.42 699.922 97.04V155ZM845.228 42.07L823.148 55.64C805.898 36.09 804.748 28.04 805.898 3.19999H835.568C834.418 23.9 836.258 28.5 845.228 42.07ZM935.737 124.41L940.797 152.01C909.977 164.66 868.807 151.78 868.807 109.69V64.84H851.097V37.01C871.337 36.78 868.807 25.28 868.807 3.19999H901.007L901.237 37.01H932.517V64.84H901.007V105.55C901.007 124.87 917.567 131.54 935.737 124.41ZM1053.79 157.3C1026.88 157.3 997.898 143.04 997.668 103.71H1027.11C1028.49 120.04 1037.92 130.85 1053.79 130.85C1070.81 130.85 1079.09 117.05 1079.09 101.87V3.19999H1108.53V101.18C1108.53 142.81 1080.7 157.3 1053.79 157.3ZM1166.51 157.3C1135.92 157.53 1114.53 136.14 1114.53 99.11V38.39H1146.96V99.11C1146.96 118.66 1158 131.08 1176.4 130.85C1195.26 130.39 1206.53 116.13 1206.53 95.66V38.39H1240.11V155H1207.68V126.25C1203.08 147.41 1183.76 157.07 1166.51 157.3ZM1297.05 157.3C1269.45 156.61 1246.22 140.97 1245.99 114.75H1275.43C1276.58 127.63 1286.01 133.38 1297.51 133.84C1306.94 134.07 1315.45 129.47 1315.68 121.42C1315.91 112.91 1310.16 109 1296.13 106.7C1266.46 103.02 1246.68 96.12 1246.22 72.2C1245.76 50.35 1265.77 36.09 1293.83 36.09C1322.81 36.09 1345.12 50.35 1346.04 78.18H1316.6C1315.91 67.37 1307.4 60.01 1294.98 59.78C1284.4 59.55 1277.5 65.3 1277.5 73.35C1277.73 81.17 1283.48 85.77 1298.66 88.53C1331.55 94.28 1346.73 99.34 1346.5 123.49C1346.5 146.26 1325.34 157.99 1297.05 157.3ZM1434.01 124.41L1439.07 152.01C1408.25 164.66 1367.08 151.78 1367.08 109.69V64.84H1349.37V37.01C1369.61 36.78 1367.08 25.28 1367.08 3.19999H1399.28L1399.51 37.01H1430.79V64.84H1399.28V105.55C1399.28 124.87 1415.84 131.54 1434.01 124.41ZM1556.43 157.3C1526.3 156.61 1499.62 138.67 1498.01 107.16H1527.45C1528.83 125.33 1545.62 132 1557.12 132.23C1570.23 132.46 1583.57 126.94 1584.03 112.91C1584.26 98.65 1572.53 93.82 1552.98 90.83C1519.63 86.69 1495.94 72.89 1495.94 44.6C1496.17 17.23 1521.7 0.899996 1551.14 0.899996C1581.27 0.899996 1609.33 18.84 1610.48 49.89H1580.81C1579.43 32.64 1565.63 25.97 1551.14 25.97C1538.26 25.97 1526.99 33.33 1526.99 45.06C1526.76 55.87 1535.96 62.54 1556.43 65.76C1594.61 71.28 1616 85.08 1614.85 115.67C1613.93 145.34 1585.41 157.99 1556.43 157.3ZM1686.21 157.3C1651.02 157.3 1621.12 133.15 1620.89 97.27C1620.66 59.78 1649.64 36.09 1686.21 36.09C1723.47 36.09 1752.22 59.78 1751.99 97.27C1751.76 132.69 1724.39 157.3 1686.21 157.3ZM1685.98 130.85C1704.84 130.85 1719.56 116.82 1719.56 97.04C1719.56 77.26 1705.3 62.54 1686.21 62.54C1667.58 62.54 1653.09 76.57 1653.09 97.04C1653.09 116.13 1667.58 130.85 1685.98 130.85ZM1790.39 155H1757.96V3.19999H1790.39V155ZM1876.7 155H1845.88L1796.43 38.39H1828.86L1861.29 120.73L1893.49 38.39H1925.92L1876.7 155ZM1976.76 157.3C1944.1 157.3 1913.97 133.84 1913.97 97.04C1913.97 56.79 1944.1 36.09 1976.76 36.09C2008.96 36.09 2034.49 56.56 2037.94 91.52C2038.4 95.2 2038.4 99.8 2037.94 103.71H1944.56C1946.86 120.27 1961.58 130.85 1976.76 130.85C1988.95 131.08 2000.45 125.79 2006.2 115.9L2030.35 128.09C2019.77 146.26 1999.76 157.3 1976.76 157.3ZM1946.86 86L2007.58 85.77C2004.59 71.05 1990.79 61.85 1976.76 62.08C1963.19 62.08 1949.85 71.05 1946.86 86ZM2172.42 155H2140.22L2140.45 31.26L2094.68 31.03V3.19999H2218.42V31.03L2172.65 31.26L2172.42 155ZM2255.3 157.3C2220.11 157.3 2190.21 133.15 2189.98 97.27C2189.75 59.78 2218.73 36.09 2255.3 36.09C2292.56 36.09 2321.31 59.78 2321.08 97.27C2320.85 132.69 2293.48 157.3 2255.3 157.3ZM2255.07 130.85C2273.93 130.85 2288.65 116.82 2288.65 97.04C2288.65 77.26 2274.39 62.54 2255.3 62.54C2236.67 62.54 2222.18 76.57 2222.18 97.04C2222.18 116.13 2236.67 130.85 2255.07 130.85ZM2384.55 157.3C2351.43 157.53 2327.05 130.85 2327.05 97.27C2327.05 58.63 2351.2 35.86 2382.94 36.09C2402.26 36.32 2422.04 46.67 2428.02 65.99V3.19999H2460.22V155H2428.02V126.94C2422.5 145.11 2403.64 157.07 2384.55 157.3ZM2393.06 130.39C2411 130.16 2426.64 116.82 2426.64 97.04C2426.64 75.42 2411.23 62.77 2393.06 62.54C2374.43 62.31 2359.25 74.96 2359.25 97.04C2359.25 117.05 2374.66 130.85 2393.06 130.39ZM2523.65 157.3C2490.53 157.53 2466.15 130.85 2466.15 97.27C2466.15 58.63 2490.3 35.86 2522.04 36.09C2541.36 36.32 2561.14 46.67 2567.12 65.99V38.39H2599.32V155H2567.12V126.94C2561.6 145.11 2542.74 157.07 2523.65 157.3ZM2532.16 130.39C2550.1 130.16 2565.74 116.82 2565.74 97.04C2565.74 75.65 2550.33 62.77 2532.16 62.54C2513.53 62.31 2498.35 74.96 2498.35 97.04C2498.35 117.05 2513.76 130.85 2532.16 130.39ZM2605.24 178L2623.18 159.37C2628.7 166.04 2642.27 167.65 2647.56 156.61L2653.54 143.96L2608.46 38.39H2640.66L2669.64 119.12L2702.53 38.39H2734.73L2673.78 163.51C2657.91 196.4 2625.71 196.63 2605.24 178ZM2780.53 42.07L2758.45 55.64C2741.2 36.09 2740.05 28.04 2741.2 3.19999H2770.87C2769.72 23.9 2771.56 28.5 2780.53 42.07ZM2837.46 157.3C2809.86 156.61 2786.63 140.97 2786.4 114.75H2815.84C2816.99 127.63 2826.42 133.38 2837.92 133.84C2847.35 134.07 2855.86 129.47 2856.09 121.42C2856.32 112.91 2850.57 109 2836.54 106.7C2806.87 103.02 2787.09 96.12 2786.63 72.2C2786.17 50.35 2806.18 36.09 2834.24 36.09C2863.22 36.09 2885.53 50.35 2886.45 78.18H2857.01C2856.32 67.37 2847.81 60.01 2835.39 59.78C2824.81 59.55 2817.91 65.3 2817.91 73.35C2818.14 81.17 2823.89 85.77 2839.07 88.53C2871.96 94.28 2887.14 99.34 2886.91 123.49C2886.91 146.26 2865.75 157.99 2837.46 157.3ZM2975.96 155H2943.76V3.19999H3005.17C3052.55 3.19999 3064.28 31.03 3064.28 51.73C3064.28 75.19 3049.1 98.88 3005.17 98.88H2975.96V155ZM2975.96 31.03V71.05H3005.17C3022.42 71.05 3031.85 65.99 3031.85 51.73C3031.85 39.08 3024.26 31.03 3004.94 31.03H2975.96ZM3104.08 155H3070.27V38.39H3102.7V68.06C3109.14 42.99 3139.5 31.49 3163.42 42.53L3146.4 68.98C3130.99 59.32 3104.08 72.2 3104.08 97.04V155ZM3214.49 157.3C3179.3 157.3 3149.4 133.15 3149.17 97.27C3148.94 59.78 3177.92 36.09 3214.49 36.09C3251.75 36.09 3280.5 59.78 3280.27 97.27C3280.04 132.69 3252.67 157.3 3214.49 157.3ZM3214.26 130.85C3233.12 130.85 3247.84 116.82 3247.84 97.04C3247.84 77.26 3233.58 62.54 3214.49 62.54C3195.86 62.54 3181.37 76.57 3181.37 97.04C3181.37 116.13 3195.86 130.85 3214.26 130.85ZM3361.92 157.3C3342.83 157.07 3324.2 145.11 3318.45 126.94V155H3286.25V3.19999H3318.68V65.99C3324.66 46.67 3344.44 36.32 3363.76 36.09C3395.27 35.86 3419.42 58.63 3419.42 97.27C3419.42 130.85 3395.27 157.53 3361.92 157.3ZM3353.64 130.39C3371.81 130.85 3387.22 117.05 3387.22 97.04C3387.22 74.96 3372.27 62.31 3353.64 62.54C3335.24 62.77 3319.83 75.42 3319.83 97.04C3319.83 116.82 3335.47 130.16 3353.64 130.39ZM3457.77 155H3425.34V3.19999H3457.77V155ZM3526.61 157.3C3493.95 157.3 3463.82 133.84 3463.82 97.04C3463.82 56.79 3493.95 36.09 3526.61 36.09C3558.81 36.09 3584.34 56.56 3587.79 91.52C3588.25 95.2 3588.25 99.8 3587.79 103.71H3494.41C3496.71 120.27 3511.43 130.85 3526.61 130.85C3538.8 131.08 3550.3 125.79 3556.05 115.9L3580.2 128.09C3569.62 146.26 3549.61 157.3 3526.61 157.3ZM3496.71 86L3557.43 85.77C3554.44 71.05 3540.64 61.85 3526.61 62.08C3513.04 62.08 3499.7 71.05 3496.71 86ZM3627.51 155H3593.93V38.39H3626.13V65.99C3630.27 47.59 3648.67 36.32 3665.92 36.09C3686.85 35.86 3702.49 46.67 3709.62 66.45C3716.98 47.36 3735.61 35.86 3754.47 36.09C3784.14 36.55 3805.3 57.25 3805.3 94.28V155H3772.87V94.28C3772.87 74.96 3762.06 62.31 3744.35 62.54C3726.64 62.77 3716.52 75.19 3716.52 94.51V155H3684.32V94.28C3684.32 74.73 3673.28 62.08 3655.8 62.54C3639.01 63 3627.74 76.8 3627.74 94.05L3627.51 155ZM3862.25 157.3C3834.65 156.61 3811.42 140.97 3811.19 114.75H3840.63C3841.78 127.63 3851.21 133.38 3862.71 133.84C3872.14 134.07 3880.65 129.47 3880.88 121.42C3881.11 112.91 3875.36 109 3861.33 106.7C3831.66 103.02 3811.88 96.12 3811.42 72.2C3810.96 50.35 3830.97 36.09 3859.03 36.09C3888.01 36.09 3910.32 50.35 3911.24 78.18H3881.8C3881.11 67.37 3872.6 60.01 3860.18 59.78C3849.6 59.55 3842.7 65.3 3842.7 73.35C3842.93 81.17 3848.68 85.77 3863.86 88.53C3896.75 94.28 3911.93 99.34 3911.7 123.49C3911.7 146.26 3890.54 157.99 3862.25 157.3ZM1882.94 319.31H1804.74V290.1H1882.94V319.31ZM2018.06 366H1987.24L1939.63 214.2H1973.44L2004.03 323.22L2034.85 214.2H2068.89L2096.72 323.22L2131.91 214.2H2165.72L2112.36 366H2081.77L2051.41 253.53L2018.06 366ZM2205.09 368.3C2172.43 368.3 2142.3 344.84 2142.3 308.04C2142.3 267.79 2172.43 247.09 2205.09 247.09C2237.29 247.09 2262.82 267.56 2266.27 302.52C2266.73 306.2 2266.73 310.8 2266.27 314.71H2172.89C2175.19 331.27 2189.91 341.85 2205.09 341.85C2217.28 342.08 2228.78 336.79 2234.53 326.9L2258.68 339.09C2248.1 357.26 2228.09 368.3 2205.09 368.3ZM2175.19 297L2235.91 296.77C2232.92 282.05 2219.12 272.85 2205.09 273.08C2191.52 273.08 2178.18 282.05 2175.19 297ZM2355.21 366H2323.01V214.2H2384.42C2431.8 214.2 2443.53 242.03 2443.53 262.73C2443.53 286.19 2428.35 309.88 2384.42 309.88H2355.21V366ZM2355.21 242.03V282.05H2384.42C2401.67 282.05 2411.1 276.99 2411.1 262.73C2411.1 250.08 2403.51 242.03 2384.19 242.03H2355.21ZM2483.33 366H2449.52V249.39H2481.95V279.06C2488.39 253.99 2518.75 242.49 2542.67 253.53L2525.65 279.98C2510.24 270.32 2483.33 283.2 2483.33 308.04V366ZM2591.22 368.3C2558.56 368.3 2528.43 344.84 2528.43 308.04C2528.43 267.79 2558.56 247.09 2591.22 247.09C2623.42 247.09 2648.95 267.56 2652.4 302.52C2652.86 306.2 2652.86 310.8 2652.4 314.71H2559.02C2561.32 331.27 2576.04 341.85 2591.22 341.85C2603.41 342.08 2614.91 336.79 2620.66 326.9L2644.81 339.09C2634.23 357.26 2614.22 368.3 2591.22 368.3ZM2561.32 297L2622.04 296.77C2619.05 282.05 2605.25 272.85 2591.22 273.08C2577.65 273.08 2564.31 282.05 2561.32 297ZM2690.97 405.1H2658.54V250.77H2690.74V278.14C2696.26 260.2 2714.89 248.01 2733.75 248.01C2766.87 247.55 2791.02 274.23 2791.02 307.58C2791.02 345.99 2766.87 368.53 2735.59 368.3C2716.5 368.07 2696.72 357.72 2690.97 338.63V405.1ZM2725.47 341.85C2743.87 342.08 2758.59 329.66 2758.59 307.58C2758.59 287.8 2743.41 274.46 2725.47 274.69C2707.53 274.92 2692.12 288.26 2692.12 307.58C2692.12 329.2 2707.3 341.39 2725.47 341.85ZM2854.46 368.3C2821.34 368.53 2796.96 341.85 2796.96 308.27C2796.96 269.63 2821.11 246.86 2852.85 247.09C2872.17 247.32 2891.95 257.67 2897.93 276.99V249.39H2930.13V366H2897.93V337.94C2892.41 356.11 2873.55 368.07 2854.46 368.3ZM2862.97 341.39C2880.91 341.16 2896.55 327.82 2896.55 308.04C2896.55 286.65 2881.14 273.77 2862.97 273.54C2844.34 273.31 2829.16 285.96 2829.16 308.04C2829.16 328.05 2844.57 341.85 2862.97 341.39ZM2969.87 366H2936.06V249.39H2968.49V279.06C2974.93 253.99 3005.29 242.49 3029.21 253.53L3012.19 279.98C2996.78 270.32 2969.87 283.2 2969.87 308.04V366ZM3077.75 368.3C3045.09 368.3 3014.96 344.84 3014.96 308.04C3014.96 267.79 3045.09 247.09 3077.75 247.09C3109.95 247.09 3135.48 267.56 3138.93 302.52C3139.39 306.2 3139.39 310.8 3138.93 314.71H3045.55C3047.85 331.27 3062.57 341.85 3077.75 341.85C3089.94 342.08 3101.44 336.79 3107.19 326.9L3131.34 339.09C3120.76 357.26 3100.75 368.3 3077.75 368.3ZM3047.85 297L3108.57 296.77C3105.58 282.05 3091.78 272.85 3077.75 273.08C3064.18 273.08 3050.84 282.05 3047.85 297ZM3288.36 366H3257.54L3257.77 304.36L3195.67 214.2H3229.48L3273.18 279.29L3316.65 214.2H3350.46L3288.36 304.59V366ZM3378.3 368.3C3343.11 368.3 3313.21 344.15 3312.98 308.27C3312.75 270.78 3341.73 247.09 3378.3 247.09C3415.56 247.09 3444.31 270.78 3444.08 308.27C3443.85 343.69 3416.48 368.3 3378.3 368.3ZM3378.07 341.85C3396.93 341.85 3411.65 327.82 3411.65 308.04C3411.65 288.26 3397.39 273.54 3378.3 273.54C3359.67 273.54 3345.18 287.57 3345.18 308.04C3345.18 327.13 3359.67 341.85 3378.07 341.85ZM3502.03 368.3C3471.44 368.53 3450.05 347.14 3450.05 310.11V249.39H3482.48V310.11C3482.48 329.66 3493.52 342.08 3511.92 341.85C3530.78 341.39 3542.05 327.13 3542.05 306.66V249.39H3575.63V366H3543.2V337.25C3538.6 358.41 3519.28 368.07 3502.03 368.3ZM3664.54 366H3632.11V214.2H3739.75V246.4H3664.54V275.84H3726.41V303.67H3664.54V366ZM3797.67 368.3C3762.48 368.3 3732.58 344.15 3732.35 308.27C3732.12 270.78 3761.1 247.09 3797.67 247.09C3834.93 247.09 3863.68 270.78 3863.45 308.27C3863.22 343.69 3835.85 368.3 3797.67 368.3ZM3797.44 341.85C3816.3 341.85 3831.02 327.82 3831.02 308.04C3831.02 288.26 3816.76 273.54 3797.67 273.54C3779.04 273.54 3764.55 287.57 3764.55 308.04C3764.55 327.13 3779.04 341.85 3797.44 341.85ZM3903.23 366H3869.42V249.39H3901.85V279.06C3908.29 253.99 3938.65 242.49 3962.57 253.53L3945.55 279.98C3930.14 270.32 3903.23 283.2 3903.23 308.04V366ZM1311.05 577H1278.85L1279.08 453.26L1233.31 453.03V425.2H1357.05V453.03L1311.28 453.26L1311.05 577ZM1393.93 579.3C1358.74 579.3 1328.84 555.15 1328.61 519.27C1328.38 481.78 1357.36 458.09 1393.93 458.09C1431.19 458.09 1459.94 481.78 1459.71 519.27C1459.48 554.69 1432.11 579.3 1393.93 579.3ZM1393.7 552.85C1412.56 552.85 1427.28 538.82 1427.28 519.04C1427.28 499.26 1413.02 484.54 1393.93 484.54C1375.3 484.54 1360.81 498.57 1360.81 519.04C1360.81 538.13 1375.3 552.85 1393.7 552.85ZM1499.26 577H1465.68V460.39H1497.88V487.99C1502.02 469.59 1520.42 458.32 1537.67 458.09C1558.6 457.86 1574.24 468.67 1581.37 488.45C1588.73 469.36 1607.36 457.86 1626.22 458.09C1655.89 458.55 1677.05 479.25 1677.05 516.28V577H1644.62V516.28C1644.62 496.96 1633.81 484.31 1616.1 484.54C1598.39 484.77 1588.27 497.19 1588.27 516.51V577H1556.07V516.28C1556.07 496.73 1545.03 484.08 1527.55 484.54C1510.76 485 1499.49 498.8 1499.49 516.05L1499.26 577ZM1748.26 579.3C1713.07 579.3 1683.17 555.15 1682.94 519.27C1682.71 481.78 1711.69 458.09 1748.26 458.09C1785.52 458.09 1814.27 481.78 1814.04 519.27C1813.81 554.69 1786.44 579.3 1748.26 579.3ZM1748.03 552.85C1766.89 552.85 1781.61 538.82 1781.61 519.04C1781.61 499.26 1767.35 484.54 1748.26 484.54C1729.63 484.54 1715.14 498.57 1715.14 519.04C1715.14 538.13 1729.63 552.85 1748.03 552.85ZM1853.83 577H1820.02V460.39H1852.45V490.06C1858.89 464.99 1889.25 453.49 1913.17 464.53L1896.15 490.98C1880.74 481.32 1853.83 494.2 1853.83 519.04V577ZM1952.94 577H1919.13V460.39H1951.56V490.06C1958 464.99 1988.36 453.49 2012.28 464.53L1995.26 490.98C1979.85 481.32 1952.94 494.2 1952.94 519.04V577ZM2063.35 579.3C2028.16 579.3 1998.26 555.15 1998.03 519.27C1997.8 481.78 2026.78 458.09 2063.35 458.09C2100.61 458.09 2129.36 481.78 2129.13 519.27C2128.9 554.69 2101.53 579.3 2063.35 579.3ZM2063.12 552.85C2081.98 552.85 2096.7 538.82 2096.7 519.04C2096.7 499.26 2082.44 484.54 2063.35 484.54C2044.72 484.54 2030.23 498.57 2030.23 519.04C2030.23 538.13 2044.72 552.85 2063.12 552.85ZM2187.42 577H2156.6L2121.18 460.39H2153.61L2176.61 537.67L2199.15 460.39H2227.44L2250.67 537.67L2276.2 460.39H2308.63L2271.37 577H2239.4L2213.41 505.01L2187.42 577ZM2354.42 464.07L2332.34 477.64C2315.09 458.09 2313.94 450.04 2315.09 425.2H2344.76C2343.61 445.9 2345.45 450.5 2354.42 464.07ZM2411.35 579.3C2383.75 578.61 2360.52 562.97 2360.29 536.75H2389.73C2390.88 549.63 2400.31 555.38 2411.81 555.84C2421.24 556.07 2429.75 551.47 2429.98 543.42C2430.21 534.91 2424.46 531 2410.43 528.7C2380.76 525.02 2360.98 518.12 2360.52 494.2C2360.06 472.35 2380.07 458.09 2408.13 458.09C2437.11 458.09 2459.42 472.35 2460.34 500.18H2430.9C2430.21 489.37 2421.7 482.01 2409.28 481.78C2398.7 481.55 2391.8 487.3 2391.8 495.35C2392.03 503.17 2397.78 507.77 2412.96 510.53C2445.85 516.28 2461.03 521.34 2460.8 545.49C2460.8 568.26 2439.64 579.99 2411.35 579.3ZM2597.68 579.3C2554.44 579.3 2517.18 548.02 2517.64 501.56C2518.1 453.72 2554.9 422.9 2597.91 422.9C2641.61 422.9 2676.8 454.64 2676.57 501.56C2676.11 547.1 2641.61 579.3 2597.68 579.3ZM2597.68 551.24C2624.13 551.24 2643.91 530.54 2644.14 501.56C2643.91 471.2 2623.9 450.96 2597.68 450.96C2571.46 450.96 2550.07 471.2 2550.07 501.56C2550.3 530.31 2571.23 551.24 2597.68 551.24ZM2715 616.1H2682.57V461.77H2714.77V489.14C2720.29 471.2 2738.92 459.01 2757.78 459.01C2790.9 458.55 2815.05 485.23 2815.05 518.58C2815.05 556.99 2790.9 579.53 2759.62 579.3C2740.53 579.07 2720.75 568.72 2715 549.63V616.1ZM2749.5 552.85C2767.9 553.08 2782.62 540.66 2782.62 518.58C2782.62 498.8 2767.44 485.46 2749.5 485.69C2731.56 485.92 2716.15 499.26 2716.15 518.58C2716.15 540.2 2731.33 552.39 2749.5 552.85ZM2853.42 616.1H2820.99V461.77H2853.19V489.14C2858.71 471.2 2877.34 459.01 2896.2 459.01C2929.32 458.55 2953.47 485.23 2953.47 518.58C2953.47 556.99 2929.32 579.53 2898.04 579.3C2878.95 579.07 2859.17 568.72 2853.42 549.63V616.1ZM2887.92 552.85C2906.32 553.08 2921.04 540.66 2921.04 518.58C2921.04 498.8 2905.86 485.46 2887.92 485.69C2869.98 485.92 2854.57 499.26 2854.57 518.58C2854.57 540.2 2869.75 552.39 2887.92 552.85ZM3024.74 579.3C2989.55 579.3 2959.65 555.15 2959.42 519.27C2959.19 481.78 2988.17 458.09 3024.74 458.09C3062 458.09 3090.75 481.78 3090.52 519.27C3090.29 554.69 3062.92 579.3 3024.74 579.3ZM3024.51 552.85C3043.37 552.85 3058.09 538.82 3058.09 519.04C3058.09 499.26 3043.83 484.54 3024.74 484.54C3006.11 484.54 2991.62 498.57 2991.62 519.04C2991.62 538.13 3006.11 552.85 3024.51 552.85ZM3130.3 577H3096.49V460.39H3128.92V490.06C3135.36 464.99 3165.72 453.49 3189.64 464.53L3172.62 490.98C3157.21 481.32 3130.3 494.2 3130.3 519.04V577ZM3280.25 546.41L3285.31 574.01C3254.49 586.66 3213.32 573.78 3213.32 531.69V486.84H3195.61V459.01C3215.85 458.78 3213.32 447.28 3213.32 425.2H3245.52L3245.75 459.01H3277.03V486.84H3245.52V527.55C3245.52 546.87 3262.08 553.54 3280.25 546.41ZM3335.69 579.3C3305.1 579.53 3283.71 558.14 3283.71 521.11V460.39H3316.14V521.11C3316.14 540.66 3327.18 553.08 3345.58 552.85C3364.44 552.39 3375.71 538.13 3375.71 517.66V460.39H3409.29V577H3376.86V548.25C3372.26 569.41 3352.94 579.07 3335.69 579.3ZM3448.75 577H3415.17V460.39H3447.6V487.99C3453.58 468.67 3473.36 458.32 3492.68 458.09C3524.19 457.86 3548.34 480.63 3548.34 519.27V577H3516.14V519.04C3516.14 496.96 3501.19 484.31 3482.56 484.54C3464.16 484.77 3448.75 497.42 3448.75 519.04V577ZM3571.75 449.58C3562.78 449.58 3554.27 444.52 3554.27 436.47C3554.27 428.65 3562.78 423.59 3571.75 423.59C3580.49 423.59 3589 428.65 3589 436.47C3589 444.52 3580.49 449.58 3571.75 449.58ZM3587.62 577H3555.42V460.39H3587.62V577ZM3679.63 546.41L3684.69 574.01C3653.87 586.66 3612.7 573.78 3612.7 531.69V486.84H3594.99V459.01C3615.23 458.78 3612.7 447.28 3612.7 425.2H3644.9L3645.13 459.01H3676.41V486.84H3644.9V527.55C3644.9 546.87 3661.46 553.54 3679.63 546.41ZM3708.44 449.58C3699.47 449.58 3690.96 444.52 3690.96 436.47C3690.96 428.65 3699.47 423.59 3708.44 423.59C3717.18 423.59 3725.69 428.65 3725.69 436.47C3725.69 444.52 3717.18 449.58 3708.44 449.58ZM3724.31 577H3692.11V460.39H3724.31V577ZM3794.47 579.3C3761.81 579.3 3731.68 555.84 3731.68 519.04C3731.68 478.79 3761.81 458.09 3794.47 458.09C3826.67 458.09 3852.2 478.56 3855.65 513.52C3856.11 517.2 3856.11 521.8 3855.65 525.71H3762.27C3764.57 542.27 3779.29 552.85 3794.47 552.85C3806.66 553.08 3818.16 547.79 3823.91 537.9L3848.06 550.09C3837.48 568.26 3817.47 579.3 3794.47 579.3ZM3764.57 508L3825.29 507.77C3822.3 493.05 3808.5 483.85 3794.47 484.08C3780.9 484.08 3767.56 493.05 3764.57 508ZM3912.85 579.3C3885.25 578.61 3862.02 562.97 3861.79 536.75H3891.23C3892.38 549.63 3901.81 555.38 3913.31 555.84C3922.74 556.07 3931.25 551.47 3931.48 543.42C3931.71 534.91 3925.96 531 3911.93 528.7C3882.26 525.02 3862.48 518.12 3862.02 494.2C3861.56 472.35 3881.57 458.09 3909.63 458.09C3938.61 458.09 3960.92 472.35 3961.84 500.18H3932.4C3931.71 489.37 3923.2 482.01 3910.78 481.78C3900.2 481.55 3893.3 487.3 3893.3 495.35C3893.53 503.17 3899.28 507.77 3914.46 510.53C3947.35 516.28 3962.53 521.34 3962.3 545.49C3962.3 568.26 3941.14 579.99 3912.85 579.3Z" fill="url(#paint0_linear_637_292)"/>
<defs>
<linearGradient id="paint0_linear_637_292" x1="-93" y1="320.5" x2="3969" y2="320.5" gradientUnits="userSpaceOnUse">
<stop offset="0.792678" stop-color="#262626"/>
<stop offset="0.892393" stop-color="#02816B"/>
<stop offset="1" stop-color="#8DC55D"/>
</linearGradient>
</defs>
</svg>
