<svg width="423" height="660" viewBox="0 0 423 660" fill="none" xmlns="http://www.w3.org/2000/svg">
<path d="M316.314 228.344L421.717 146.455M316.314 307.01L421.717 272.835M316.314 383.096H421.717M316.314 460.472L421.717 479.171M107.823 228.344L2.4209 146.455M107.823 307.01L2.4209 272.835M107.823 383.096H2.4209M107.823 460.472L2.4209 479.171M317.162 152.271L421.821 27.7549M317.162 534.943L421.821 659.459M107.767 152.737L3.10732 28.2202M107.767 534.478L3.10732 658.994M286.815 153.73L343.724 29.9357M254.377 153.73L278.848 29.9357M223.647 153.73L235.029 29.9357M199.745 153.73L186.372 29.9357M169.299 153.73L141.983 29.9357M136.577 153.73L76.8227 29.9357M286.815 535.434L343.724 659.228M254.377 535.434L278.848 659.228M223.647 535.434L235.029 659.228M199.745 535.434L186.372 659.228M169.299 535.434L141.983 659.228M136.577 535.434L76.8227 659.228M107.823 152.504H317.219V534.711H107.823V152.504ZM87.4501 127.667H337.592V562.279H87.4501V127.667ZM45.1515 76.2555H379.89V610.96H45.1515V76.2555ZM3.16411 27.9876H421.878V659.228H3.16411V27.9876Z" stroke="url(#paint0_radial_432_2743)"/>
<path d="M395.05 299.393L291.038 335.503V349.931L395.05 341.998V299.393Z" fill="url(#paint1_linear_432_2743)"/>
<path d="M410.391 0.000976562L310.819 151.511H293.968L370.567 0.000976562H410.391Z" fill="url(#paint2_linear_432_2743)"/>
<path d="M120.096 0.00033462L82.3818 0L131.257 122.908H151.825L120.096 0.00033462Z" fill="url(#paint3_linear_432_2743)"/>
<path d="M0 447.844V410.065L102.51 402.613V425.714L0 447.844Z" fill="url(#paint4_linear_432_2743)"/>
<path d="M331.522 629.128L279.125 517.76L291.852 517.76L381.197 629.128H331.522Z" fill="url(#paint5_linear_432_2743)"/>
<path d="M231.696 639.112H190.604L200.34 533.302H222.057L231.696 639.112Z" fill="url(#paint6_linear_432_2743)"/>
<defs>
<radialGradient id="paint0_radial_432_2743" cx="0" cy="0" r="1" gradientUnits="userSpaceOnUse" gradientTransform="translate(212.149 343.607) rotate(90) scale(315.852 420.73)">
<stop offset="0.895045" stop-color="#D9D9D9" stop-opacity="0.27"/>
<stop offset="1" stop-color="#737373" stop-opacity="0"/>
</radialGradient>
<linearGradient id="paint1_linear_432_2743" x1="395.05" y1="276.844" x2="285.338" y2="289.834" gradientUnits="userSpaceOnUse">
<stop stop-color="#3AFF16"/>
<stop offset="1" stop-color="#3AFF16" stop-opacity="0"/>
</linearGradient>
<linearGradient id="paint2_linear_432_2743" x1="363.095" y1="17.9684" x2="292.562" y2="73.383" gradientUnits="userSpaceOnUse">
<stop stop-color="#03FFB2"/>
<stop offset="1" stop-color="#03FFB2" stop-opacity="0"/>
</linearGradient>
<linearGradient id="paint3_linear_432_2743" x1="122.724" y1="31.0735" x2="145.37" y2="118.884" gradientUnits="userSpaceOnUse">
<stop stop-color="#02E8F2"/>
<stop offset="1" stop-color="#02E8F2" stop-opacity="0"/>
</linearGradient>
<linearGradient id="paint4_linear_432_2743" x1="-6.55465e-06" y1="430.723" x2="114.571" y2="413.306" gradientUnits="userSpaceOnUse">
<stop stop-color="#FF1F7D"/>
<stop offset="1" stop-color="#FF1F7D" stop-opacity="0"/>
</linearGradient>
<linearGradient id="paint5_linear_432_2743" x1="282.858" y1="520.329" x2="332.414" y2="623.459" gradientUnits="userSpaceOnUse">
<stop stop-color="#FBF002" stop-opacity="0"/>
<stop offset="1" stop-color="#FBF002"/>
</linearGradient>
<linearGradient id="paint6_linear_432_2743" x1="211.15" y1="533.302" x2="211.15" y2="639.112" gradientUnits="userSpaceOnUse">
<stop stop-color="#A259FF" stop-opacity="0"/>
<stop offset="1" stop-color="#A259FF"/>
</linearGradient>
</defs>
</svg>
